<svg width="24" height="16" viewBox="0 0 24 16" fill="none" xmlns="http://www.w3.org/2000/svg">
<path fill-rule="evenodd" clip-rule="evenodd" d="M21.625 1H2.375C1.61561 1 1 1.7835 1 2.75V13.25C1 14.2165 1.61561 15 2.375 15H21.625C22.3844 15 23 14.2165 23 13.25V2.75C23 1.7835 22.3844 1 21.625 1ZM3.75 12.375H17.5V14.125H3.75V12.375ZM21.625 14.125C22.0047 14.125 22.3125 13.7332 22.3125 13.25V2.75C22.3125 2.26675 22.0047 1.875 21.625 1.875H2.375C1.9953 1.875 1.6875 2.26675 1.6875 2.75V13.25C1.6875 13.7332 1.9953 14.125 2.375 14.125H3.0625V11.5H18.1875V14.125H21.625Z" fill="#FFC727"/>
<path d="M17.5 12.375H17.65V12.225H17.5V12.375ZM3.75 12.375V12.225H3.6V12.375H3.75ZM17.5 14.125V14.275H17.65V14.125H17.5ZM3.75 14.125H3.6V14.275H3.75V14.125ZM3.0625 14.125V14.275H3.2125V14.125H3.0625ZM3.0625 11.5V11.35H2.9125V11.5H3.0625ZM18.1875 11.5H18.3375V11.35H18.1875V11.5ZM18.1875 14.125H18.0375V14.275H18.1875V14.125ZM2.375 1.15H21.625V0.85H2.375V1.15ZM1.15 2.75C1.15 1.83063 1.73014 1.15 2.375 1.15V0.85C1.50108 0.85 0.85 1.73637 0.85 2.75H1.15ZM1.15 13.25V2.75H0.85V13.25H1.15ZM2.375 14.85C1.73014 14.85 1.15 14.1694 1.15 13.25H0.85C0.85 14.2636 1.50108 15.15 2.375 15.15V14.85ZM21.625 14.85H2.375V15.15H21.625V14.85ZM22.85 13.25C22.85 14.1694 22.2699 14.85 21.625 14.85V15.15C22.4989 15.15 23.15 14.2636 23.15 13.25H22.85ZM22.85 2.75V13.25H23.15V2.75H22.85ZM21.625 1.15C22.2699 1.15 22.85 1.83063 22.85 2.75H23.15C23.15 1.73637 22.4989 0.85 21.625 0.85V1.15ZM17.5 12.225H3.75V12.525H17.5V12.225ZM17.65 14.125V12.375H17.35V14.125H17.65ZM3.75 14.275H17.5V13.975H3.75V14.275ZM3.6 12.375V14.125H3.9V12.375H3.6ZM22.1625 13.25C22.1625 13.6861 21.8902 13.975 21.625 13.975V14.275C22.1192 14.275 22.4625 13.7804 22.4625 13.25H22.1625ZM22.1625 2.75V13.25H22.4625V2.75H22.1625ZM21.625 2.025C21.8902 2.025 22.1625 2.31388 22.1625 2.75H22.4625C22.4625 2.21962 22.1192 1.725 21.625 1.725V2.025ZM2.375 2.025H21.625V1.725H2.375V2.025ZM1.8375 2.75C1.8375 2.31388 2.10983 2.025 2.375 2.025V1.725C1.88078 1.725 1.5375 2.21962 1.5375 2.75H1.8375ZM1.8375 13.25V2.75H1.5375V13.25H1.8375ZM2.375 13.975C2.10983 13.975 1.8375 13.6861 1.8375 13.25H1.5375C1.5375 13.7804 1.88078 14.275 2.375 14.275V13.975ZM3.0625 13.975H2.375V14.275H3.0625V13.975ZM2.9125 11.5V14.125H3.2125V11.5H2.9125ZM18.1875 11.35H3.0625V11.65H18.1875V11.35ZM18.3375 14.125V11.5H18.0375V14.125H18.3375ZM21.625 13.975H18.1875V14.275H21.625V13.975Z" fill="#FFC727"/>
<rect x="3.0625" y="3.625" width="17.875" height="0.875" fill="#FFC727" stroke="#FFC727" stroke-width="0.3"/>
<rect x="3.0625" y="6.25" width="17.875" height="0.875" fill="#FFC727" stroke="#FFC727" stroke-width="0.3"/>
<rect x="3.0625" y="8.875" width="17.875" height="0.875" fill="#FFC727" stroke="#FFC727" stroke-width="0.3"/>
<ellipse cx="20.25" cy="12.375" rx="0.6875" ry="0.875" fill="#FFC727" stroke="#FFC727" stroke-width="0.3"/>
</svg>
