<svg width="20" height="22" viewBox="0 0 20 22" fill="none" xmlns="http://www.w3.org/2000/svg">
<path fill-rule="evenodd" clip-rule="evenodd" d="M18.5475 1H1.45247C1.20256 1 1 1.20584 1 1.4598V8.95388V9.30549V13.5974C1 13.8514 1.20256 14.0572 1.45247 14.0572H7.10201V15.407C7.10201 15.661 7.30456 15.8668 7.55448 15.8668H8.90758L4.62869 20.215C4.45197 20.3946 4.45197 20.6857 4.62869 20.8653C4.71707 20.9551 4.83285 21 4.94864 21C5.06442 21 5.1802 20.9551 5.26858 20.8653L10 16.0572L14.2951 20.422C14.4719 20.6015 14.7583 20.6015 14.9351 20.422C15.1118 20.2424 15.1118 19.9512 14.9351 19.7717L11.0924 15.8667H12.2734C12.5233 15.8667 12.7259 15.6609 12.7259 15.4069V14.0572H16.3481H18.5475C18.7974 14.0572 19 13.8513 19 13.5974V1.4598C19 1.20584 18.7974 1 18.5475 1ZM1.90495 9.30549V8.95388V1.91961H18.095V13.1376H16.8005V11.6793C16.8005 11.4253 16.598 11.2195 16.3481 11.2195H12.5258C12.2759 11.2195 12.0733 11.4253 12.0733 11.6793V13.1376H7.55448H1.90495V9.30549ZM11.8863 14.9472H8.04932V14.0572H11.8863V14.9472ZM13.0506 12.1391V13.1376H15.9855V12.1391H13.0506Z" fill="#FFC727"/>
<path d="M7.10201 14.0572H7.30201V13.8572H7.10201V14.0572ZM8.90758 15.8668L9.05013 16.0071L9.38499 15.6668H8.90758V15.8668ZM4.62869 20.215L4.77124 20.3553L4.77124 20.3553L4.62869 20.215ZM4.62869 20.8653L4.48613 21.0056L4.48617 21.0056L4.62869 20.8653ZM5.26858 20.8653L5.4111 21.0056L5.41114 21.0056L5.26858 20.8653ZM10 16.0572L10.1426 15.9169L10 15.7721L9.85745 15.9169L10 16.0572ZM14.2951 20.422L14.1526 20.5623L14.1526 20.5623L14.2951 20.422ZM14.9351 20.422L15.0776 20.5623L15.0776 20.5623L14.9351 20.422ZM14.9351 19.7717L14.7925 19.9119L14.7925 19.9119L14.9351 19.7717ZM11.0924 15.8667V15.6667H10.615L10.9499 16.007L11.0924 15.8667ZM12.7259 14.0572V13.8572H12.5259V14.0572H12.7259ZM1.90495 1.91961V1.71961H1.70495V1.91961H1.90495ZM18.095 1.91961H18.295V1.71961H18.095V1.91961ZM18.095 13.1376V13.3376H18.295V13.1376H18.095ZM16.8005 13.1376H16.6005V13.3376H16.8005V13.1376ZM12.0733 13.1376V13.3376H12.2733V13.1376H12.0733ZM1.90495 13.1376H1.70495V13.3376H1.90495V13.1376ZM8.04932 14.9472H7.84932V15.1472H8.04932V14.9472ZM11.8863 14.9472V15.1472H12.0863V14.9472H11.8863ZM8.04932 14.0572V13.8572H7.84932V14.0572H8.04932ZM11.8863 14.0572H12.0863V13.8572H11.8863V14.0572ZM13.0506 13.1376H12.8506V13.3376H13.0506V13.1376ZM13.0506 12.1391V11.9391H12.8506V12.1391H13.0506ZM15.9855 13.1376V13.3376H16.1855V13.1376H15.9855ZM15.9855 12.1391H16.1855V11.9391H15.9855V12.1391ZM1.45247 1.2H18.5475V0.8H1.45247V1.2ZM1.2 1.4598C1.2 1.31325 1.31603 1.2 1.45247 1.2V0.8C1.08908 0.8 0.8 1.09842 0.8 1.4598H1.2ZM1.2 8.95388V1.4598H0.8V8.95388H1.2ZM1.2 9.30549V8.95388H0.8V9.30549H1.2ZM1.2 13.5974V9.30549H0.8V13.5974H1.2ZM1.45247 13.8572C1.31603 13.8572 1.2 13.744 1.2 13.5974H0.8C0.8 13.9588 1.08908 14.2572 1.45247 14.2572V13.8572ZM7.10201 13.8572H1.45247V14.2572H7.10201V13.8572ZM7.30201 15.407V14.0572H6.90201V15.407H7.30201ZM7.55448 15.6668C7.41804 15.6668 7.30201 15.5535 7.30201 15.407H6.90201C6.90201 15.7684 7.19109 16.0668 7.55448 16.0668V15.6668ZM8.90758 15.6668H7.55448V16.0668H8.90758V15.6668ZM4.77124 20.3553L9.05013 16.0071L8.76502 15.7265L4.48613 20.0747L4.77124 20.3553ZM4.77124 20.725C4.67112 20.6233 4.67112 20.457 4.77124 20.3553L4.48613 20.0747C4.23282 20.3321 4.23282 20.7482 4.48613 21.0056L4.77124 20.725ZM4.94864 20.8C4.88479 20.8 4.82085 20.7754 4.7712 20.725L4.48617 21.0056C4.61329 21.1347 4.78092 21.2 4.94864 21.2V20.8ZM5.12607 20.725C5.07642 20.7754 5.01248 20.8 4.94864 20.8V21.2C5.11636 21.2 5.28398 21.1347 5.4111 21.0056L5.12607 20.725ZM9.85745 15.9169L5.12603 20.725L5.41114 21.0056L10.1426 16.1975L9.85745 15.9169ZM14.4377 20.2817L10.1426 15.9169L9.85745 16.1975L14.1526 20.5623L14.4377 20.2817ZM14.7926 20.2817C14.6941 20.3816 14.5361 20.3816 14.4376 20.2817L14.1526 20.5623C14.4077 20.8214 14.8225 20.8214 15.0776 20.5623L14.7926 20.2817ZM14.7925 19.9119C14.8926 20.0137 14.8926 20.18 14.7925 20.2817L15.0776 20.5623C15.3309 20.3048 15.3309 19.8888 15.0776 19.6314L14.7925 19.9119ZM10.9499 16.007L14.7925 19.9119L15.0776 19.6314L11.235 15.7265L10.9499 16.007ZM12.2734 15.6667H11.0924V16.0667H12.2734V15.6667ZM12.5259 15.4069C12.5259 15.5535 12.4098 15.6667 12.2734 15.6667V16.0667C12.6368 16.0667 12.9259 15.7683 12.9259 15.4069H12.5259ZM12.5259 14.0572V15.4069H12.9259V14.0572H12.5259ZM16.3481 13.8572H12.7259V14.2572H16.3481V13.8572ZM18.5475 13.8572H16.3481V14.2572H18.5475V13.8572ZM18.8 13.5974C18.8 13.7439 18.684 13.8572 18.5475 13.8572V14.2572C18.9109 14.2572 19.2 13.9587 19.2 13.5974H18.8ZM18.8 1.4598V13.5974H19.2V1.4598H18.8ZM18.5475 1.2C18.6839 1.2 18.8 1.31327 18.8 1.4598H19.2C19.2 1.09841 18.9109 0.8 18.5475 0.8V1.2ZM1.70495 8.95388V9.30549H2.10495V8.95388H1.70495ZM1.70495 1.91961V8.95388H2.10495V1.91961H1.70495ZM18.095 1.71961H1.90495V2.11961H18.095V1.71961ZM18.295 13.1376V1.91961H17.895V13.1376H18.295ZM16.8005 13.3376H18.095V12.9376H16.8005V13.3376ZM16.6005 11.6793V13.1376H17.0005V11.6793H16.6005ZM16.3481 11.4195C16.4845 11.4195 16.6005 11.5327 16.6005 11.6793H17.0005C17.0005 11.3179 16.7114 11.0195 16.3481 11.0195V11.4195ZM12.5258 11.4195H16.3481V11.0195H12.5258V11.4195ZM12.2733 11.6793C12.2733 11.5327 12.3894 11.4195 12.5258 11.4195V11.0195C12.1624 11.0195 11.8733 11.3179 11.8733 11.6793H12.2733ZM12.2733 13.1376V11.6793H11.8733V13.1376H12.2733ZM7.55448 13.3376H12.0733V12.9376H7.55448V13.3376ZM1.90495 13.3376H7.55448V12.9376H1.90495V13.3376ZM1.70495 9.30549V13.1376H2.10495V9.30549H1.70495ZM8.04932 15.1472H11.8863V14.7472H8.04932V15.1472ZM7.84932 14.0572V14.9472H8.24932V14.0572H7.84932ZM11.8863 13.8572H8.04932V14.2572H11.8863V13.8572ZM12.0863 14.9472V14.0572H11.6863V14.9472H12.0863ZM13.2506 13.1376V12.1391H12.8506V13.1376H13.2506ZM15.9855 12.9376H13.0506V13.3376H15.9855V12.9376ZM15.7855 12.1391V13.1376H16.1855V12.1391H15.7855ZM13.0506 12.3391H15.9855V11.9391H13.0506V12.3391Z" fill="#FFC727"/>
<path d="M6.58494 6.75337C6.71189 6.81662 6.86085 6.81667 6.9878 6.75337L8.96481 5.76801L10.9416 6.75337C11.0686 6.81662 11.2174 6.81667 11.3445 6.75337L13.3218 5.76801L15.299 6.75337C15.3637 6.78566 15.4325 6.80093 15.5001 6.80093C15.6679 6.80093 15.8294 6.70678 15.9087 6.54447C16.0199 6.31671 15.9273 6.04103 15.7019 5.92864L13.5232 4.84288C13.3962 4.77964 13.2474 4.77964 13.1204 4.84288L11.1431 5.82824L9.16626 4.84288C9.03941 4.77969 8.89046 4.77964 8.76341 4.84288L6.7864 5.82824L4.80959 4.84288C4.58431 4.73059 4.31124 4.82403 4.19991 5.05179C4.08869 5.27949 4.18125 5.55522 4.40673 5.66762L6.58494 6.75337Z" fill="#FFC727" stroke="#FFC727" stroke-width="0.4"/>
</svg>
