<svg width="18" height="18" viewBox="0 0 18 18" fill="none" xmlns="http://www.w3.org/2000/svg">
<path fill-rule="evenodd" clip-rule="evenodd" d="M8.23031 2.47501H9.76988C10.8015 2.475 11.6026 2.475 12.248 2.51904C12.9023 2.56368 13.435 2.65533 13.9231 2.85751C15.1543 3.36752 16.1326 4.34576 16.6426 5.57702C16.8448 6.06514 16.9364 6.59778 16.9811 7.25207C17.0251 7.89753 17.0251 8.69863 17.0251 9.7303V9.76972C17.0251 10.8014 17.0251 11.6025 16.9811 12.2479C16.9364 12.9022 16.8448 13.4349 16.6426 13.923C16.1326 15.1543 15.1543 16.1325 13.9231 16.6425C13.435 16.8447 12.9023 16.9363 12.248 16.981C11.6026 17.025 10.8015 17.025 9.76981 17.025H8.23039C7.19872 17.025 6.39762 17.025 5.75216 16.981C5.09787 16.9363 4.56523 16.8447 4.07711 16.6425C2.84585 16.1325 1.86761 15.1543 1.3576 13.923C1.15542 13.4349 1.06377 12.9022 1.01913 12.2479C0.975094 11.6025 0.975096 10.8014 0.975098 9.76979V9.73022C0.975096 8.69859 0.975094 7.89752 1.01913 7.25207C1.06377 6.59778 1.15542 6.06514 1.3576 5.57702C1.86761 4.34576 2.84585 3.36752 4.07711 2.85751C4.56523 2.65533 5.09787 2.56368 5.75216 2.51904C6.39761 2.475 7.19868 2.475 8.23031 2.47501ZM5.82363 3.56661C5.22281 3.6076 4.81778 3.68723 4.47893 3.82759C3.50494 4.23102 2.73112 5.00485 2.32768 5.97884C2.18732 6.31769 2.10769 6.72272 2.0667 7.32354C2.02538 7.92908 2.0251 8.69445 2.0251 9.75001C2.0251 10.8056 2.02538 11.5709 2.0667 12.1765C2.10769 12.7773 2.18732 13.1823 2.32768 13.5212C2.73112 14.4952 3.50494 15.269 4.47893 15.6724C4.81778 15.8128 5.22281 15.8924 5.82363 15.9334C6.42917 15.9747 7.19455 15.975 8.2501 15.975H9.7501C10.8056 15.975 11.571 15.9747 12.1766 15.9334C12.7774 15.8924 13.1824 15.8128 13.5213 15.6724C14.4953 15.269 15.2691 14.4952 15.6725 13.5212C15.8129 13.1823 15.8925 12.7773 15.9335 12.1765C15.9748 11.5709 15.9751 10.8056 15.9751 9.75001C15.9751 8.69445 15.9748 7.92908 15.9335 7.32354C15.8925 6.72272 15.8129 6.31769 15.6725 5.97884C15.2691 5.00485 14.4953 4.23102 13.5213 3.82759C13.1824 3.68723 12.7774 3.6076 12.1766 3.56661C11.571 3.52529 10.8056 3.52501 9.7501 3.52501H8.2501C7.19455 3.52501 6.42917 3.52529 5.82363 3.56661Z" fill="white"/>
<path fill-rule="evenodd" clip-rule="evenodd" d="M12.525 1.5C12.815 1.5 13.05 1.73505 13.05 2.025V3.975C13.05 4.26495 12.815 4.5 12.525 4.5C12.2351 4.5 12 4.26495 12 3.975V2.025C12 1.73505 12.2351 1.5 12.525 1.5Z" fill="white"/>
<path fill-rule="evenodd" clip-rule="evenodd" d="M5.77505 1.5C6.065 1.5 6.30005 1.73505 6.30005 2.025V3.975C6.30005 4.26495 6.065 4.5 5.77505 4.5C5.4851 4.5 5.25005 4.26495 5.25005 3.975V2.025C5.25005 1.73505 5.4851 1.5 5.77505 1.5Z" fill="white"/>
<path d="M9.5251 7.50001C9.5251 7.78996 9.29005 8.02501 9.0001 8.02501C8.71015 8.02501 8.4751 7.78996 8.4751 7.50001C8.4751 7.21006 8.71015 6.97501 9.0001 6.97501C9.29005 6.97501 9.5251 7.21006 9.5251 7.50001Z" fill="white"/>
<path d="M13.2751 7.50001C13.2751 7.78996 13.04 8.02501 12.7501 8.02501C12.4601 8.02501 12.2251 7.78996 12.2251 7.50001C12.2251 7.21006 12.4601 6.97501 12.7501 6.97501C13.04 6.97501 13.2751 7.21006 13.2751 7.50001Z" fill="white"/>
<path d="M5.7751 7.50001C5.7751 7.78996 5.54005 8.02501 5.2501 8.02501C4.96015 8.02501 4.7251 7.78996 4.7251 7.50001C4.7251 7.21006 4.96015 6.97501 5.2501 6.97501C5.54005 6.97501 5.7751 7.21006 5.7751 7.50001Z" fill="white"/>
<path d="M9.5251 10.5C9.5251 10.79 9.29005 11.025 9.0001 11.025C8.71015 11.025 8.4751 10.79 8.4751 10.5C8.4751 10.2101 8.71015 9.97501 9.0001 9.97501C9.29005 9.97501 9.5251 10.2101 9.5251 10.5Z" fill="white"/>
<path d="M5.7751 10.5C5.7751 10.79 5.54005 11.025 5.2501 11.025C4.96015 11.025 4.7251 10.79 4.7251 10.5C4.7251 10.2101 4.96015 9.97501 5.2501 9.97501C5.54005 9.97501 5.7751 10.2101 5.7751 10.5Z" fill="white"/>
<path d="M13.2751 10.5C13.2751 10.79 13.04 11.025 12.7501 11.025C12.4601 11.025 12.2251 10.79 12.2251 10.5C12.2251 10.2101 12.4601 9.97501 12.7501 9.97501C13.04 9.97501 13.2751 10.2101 13.2751 10.5Z" fill="white"/>
<path d="M13.2751 13.5C13.2751 13.79 13.04 14.025 12.7501 14.025C12.4601 14.025 12.2251 13.79 12.2251 13.5C12.2251 13.2101 12.4601 12.975 12.7501 12.975C13.04 12.975 13.2751 13.2101 13.2751 13.5Z" fill="white"/>
<path d="M9.5251 13.5C9.5251 13.79 9.29005 14.025 9.0001 14.025C8.71015 14.025 8.4751 13.79 8.4751 13.5C8.4751 13.2101 8.71015 12.975 9.0001 12.975C9.29005 12.975 9.5251 13.2101 9.5251 13.5Z" fill="white"/>
<path d="M5.7751 13.5C5.7751 13.79 5.54005 14.025 5.2501 14.025C4.96015 14.025 4.7251 13.79 4.7251 13.5C4.7251 13.2101 4.96015 12.975 5.2501 12.975C5.54005 12.975 5.7751 13.2101 5.7751 13.5Z" fill="white"/>
</svg>
