<svg width="18" height="14" viewBox="0 0 18 14" fill="none" xmlns="http://www.w3.org/2000/svg">
<path fill-rule="evenodd" clip-rule="evenodd" d="M6.86878 0.474976H11.1314C12.2298 0.474969 13.097 0.474964 13.7863 0.549649C14.492 0.626107 15.0733 0.785857 15.572 1.14819C15.8713 1.36561 16.1345 1.62878 16.3519 1.92803C16.7142 2.42674 16.874 3.00808 16.9504 3.71378C17.0251 4.40313 17.0251 5.27031 17.0251 6.3687V7.63125C17.0251 8.72965 17.0251 9.59682 16.9504 10.2862C16.874 10.9919 16.7142 11.5732 16.3519 12.0719C16.1345 12.3712 15.8713 12.6343 15.572 12.8518C15.0733 13.2141 14.492 13.3738 13.7863 13.4503C13.0969 13.525 12.2298 13.525 11.1314 13.525H6.86882C5.77043 13.525 4.90325 13.525 4.2139 13.4503C3.5082 13.3738 2.92686 13.2141 2.42815 12.8518C2.1289 12.6343 1.86573 12.3712 1.64831 12.0719C1.28598 11.5732 1.12623 10.9919 1.04977 10.2862C0.975086 9.59683 0.975091 8.72967 0.975098 7.6313V6.36865C0.975091 5.27028 0.975086 4.40312 1.04977 3.71378C1.12623 3.00808 1.28598 2.42674 1.64831 1.92803C1.86573 1.62878 2.1289 1.36561 2.42815 1.14819C2.92686 0.785857 3.5082 0.626107 4.2139 0.549649C4.90324 0.474964 5.7704 0.474969 6.86878 0.474976ZM4.327 1.59354C3.71064 1.66032 3.33522 1.78704 3.04533 1.99766C2.83521 2.15032 2.65044 2.33509 2.49778 2.54521C2.28717 2.83509 2.16044 3.21052 2.09366 3.82688C2.02582 4.45307 2.0251 5.26336 2.0251 6.39998V7.59998C2.0251 8.73659 2.02582 9.54688 2.09366 10.1731C2.16044 10.7894 2.28717 11.1649 2.49778 11.4547C2.65044 11.6649 2.83521 11.8496 3.04533 12.0023C3.33522 12.2129 3.71064 12.3396 4.327 12.4064C4.95319 12.4743 5.76348 12.475 6.9001 12.475H11.1001C12.2367 12.475 13.047 12.4743 13.6732 12.4064C14.2896 12.3396 14.665 12.2129 14.9549 12.0023C15.165 11.8496 15.3498 11.6649 15.5024 11.4547C15.713 11.1649 15.8398 10.7894 15.9065 10.1731C15.9744 9.54688 15.9751 8.73659 15.9751 7.59998V6.39998C15.9751 5.26336 15.9744 4.45307 15.9065 3.82688C15.8398 3.21052 15.713 2.83509 15.5024 2.54521C15.3498 2.33509 15.165 2.15032 14.9549 1.99766C14.665 1.78704 14.2896 1.66032 13.6732 1.59354C13.047 1.5257 12.2367 1.52498 11.1001 1.52498H6.9001C5.76348 1.52498 4.95319 1.5257 4.327 1.59354Z" fill="white"/>
<path fill-rule="evenodd" clip-rule="evenodd" d="M16.5 5.27499C16.5 5.56494 16.2649 5.79999 15.975 5.79999L2.025 5.79999C1.73505 5.79999 1.5 5.56494 1.5 5.27499C1.5 4.98504 1.73505 4.74999 2.025 4.74999L15.975 4.74999C16.2649 4.74999 16.5 4.98504 16.5 5.27499Z" fill="white"/>
<path fill-rule="evenodd" clip-rule="evenodd" d="M15 10.525C15 10.8149 14.7649 11.05 14.475 11.05H12.525C12.2351 11.05 12 10.8149 12 10.525C12 10.235 12.2351 9.99999 12.525 9.99999H14.475C14.7649 9.99999 15 10.235 15 10.525Z" fill="white"/>
</svg>
