<svg width="20" height="20" viewBox="0 0 20 20" fill="none" xmlns="http://www.w3.org/2000/svg">
<g clip-path="url(#clip0_1_940)">
<path d="M15.9999 9.53463V3.99996C15.9999 3.99266 15.9963 3.98656 15.9958 3.97938C15.9914 3.89901 15.9584 3.82288 15.9027 3.76481L15.9022 3.76418L12.2357 0.0977725L12.2351 0.0973037C12.2073 0.0704059 12.1749 0.0486038 12.1396 0.0328903C12.1298 0.0283591 12.1197 0.025781 12.1095 0.0221873C12.0804 0.0118479 12.0499 0.00569296 12.0191 0.00390621C12.0123 0.00343747 12.0067 0 12 0H2.33338C1.78135 0.000585932 1.33398 0.447964 1.33339 0.99999V17.6665C1.33398 18.2185 1.78135 18.6659 2.33338 18.6665H9.35597C10.9761 20.0328 13.2238 20.3797 15.1805 19.5654C17.1372 18.7512 18.4752 16.9121 18.6478 14.7998C18.8203 12.6875 17.7985 10.6557 15.9999 9.53463ZM12.3333 1.138L14.8619 3.6666H12.6666C12.5782 3.66649 12.4935 3.63134 12.431 3.56885C12.3686 3.50637 12.3334 3.42165 12.3333 3.33329V1.138ZM2.33338 17.9998C2.24501 17.9997 2.1603 17.9646 2.09781 17.9021C2.03533 17.8396 2.00018 17.7549 2.00006 17.6665V0.99999C2.00018 0.911624 2.03533 0.82691 2.09781 0.764425C2.1603 0.701941 2.24501 0.666787 2.33338 0.666673H11.6666V3.33333C11.6672 3.88535 12.1146 4.33273 12.6666 4.33332H15.3333V9.17518C14.0009 8.56413 12.4819 8.5012 11.1036 8.99995H7.33333C6.78213 9.00253 6.33592 9.44874 6.33334 9.99994C6.33393 10.552 6.78131 10.9993 7.33333 10.9999H8.4275C8.12775 11.4099 7.88461 11.8583 7.70466 12.3332H7.33333C6.78213 12.3358 6.33592 12.782 6.33334 13.3332C6.33393 13.8853 6.78131 14.3326 7.33333 14.3332C7.33298 15.6778 7.81317 16.9782 8.68726 17.9999H2.33338V17.9998ZM9.79253 9.66659C9.50532 9.86386 9.23678 10.087 8.99027 10.3333H7.33333C7.24497 10.3331 7.16025 10.298 7.09777 10.2355C7.03528 10.173 7.00013 10.0883 7.00001 9.99994C6.99988 9.95553 7.00885 9.91155 7.02637 9.87074C7.04389 9.82992 7.06959 9.79313 7.10189 9.76264C7.13201 9.73187 7.16804 9.7075 7.20781 9.69101C7.24758 9.67451 7.29028 9.66621 7.33333 9.66663H9.79253V9.66659ZM7.49833 12.9999C7.4442 13.2194 7.4034 13.4421 7.37614 13.6665H7.33333C7.24497 13.6664 7.16025 13.6313 7.09777 13.5688C7.03528 13.5063 7.00013 13.4216 7.00001 13.3332C6.99988 13.2888 7.00885 13.2448 7.02637 13.204C7.04389 13.1632 7.06959 13.1264 7.10189 13.0959C7.13201 13.0652 7.16804 13.0408 7.20781 13.0243C7.24758 13.0078 7.29028 12.9995 7.33333 12.9999H7.49833V12.9999ZM13 19.3331C10.2386 19.3331 8 17.0946 8 14.3332C8 11.5718 10.2386 9.33323 13 9.33323C15.7613 9.33323 17.9999 11.5718 17.9999 14.3332C17.9968 17.0933 15.76 19.33 13 19.3331Z" fill="#A3A3A3"/>
<path d="M12.9999 9.99991C10.6067 9.99991 8.66667 11.94 8.66667 14.3332C8.66667 16.7264 10.6068 18.6665 12.9999 18.6665C15.3931 18.6665 17.3332 16.7264 17.3332 14.3332C17.3306 11.9411 15.392 10.0026 12.9999 9.99991ZM12.9999 17.9998C10.9749 17.9998 9.33331 16.3582 9.33331 14.3332C9.33331 12.3082 10.9749 10.6665 12.9999 10.6665C15.025 10.6665 16.6666 12.3082 16.6666 14.3332C16.6643 16.3573 15.024 17.9975 12.9999 17.9998Z" fill="#A3A3A3"/>
<path d="M13.3333 14.1952V11.6666C13.3333 11.4825 13.1841 11.3333 13 11.3333C12.8159 11.3333 12.6666 11.4825 12.6666 11.6666V14.3332C12.6667 14.4216 12.7018 14.5064 12.7643 14.5689L14.431 16.2356C14.4938 16.2965 14.578 16.3302 14.6655 16.3295C14.753 16.3288 14.8367 16.2938 14.8986 16.2319C14.9605 16.17 14.9955 16.0863 14.9962 15.9988C14.9969 15.9113 14.9632 15.8271 14.9023 15.7642L13.3333 14.1952ZM4.66668 2.33331H4.00001C3.44798 2.3339 3.0006 2.78128 3.00002 3.3333V3.99998C3.0006 4.552 3.44798 4.99938 4.00001 4.99997H4.66668C5.2187 4.99938 5.66608 4.552 5.66667 3.99998V3.3333C5.66608 2.78128 5.21874 2.33394 4.66668 2.33331ZM5.00003 3.99998C4.99992 4.08834 4.96477 4.17306 4.90228 4.23554C4.8398 4.29803 4.75508 4.33318 4.66672 4.33329H4.00004C3.91168 4.33318 3.82696 4.29803 3.76448 4.23554C3.70199 4.17306 3.66684 4.08834 3.66673 3.99998V3.3333C3.66684 3.24494 3.70199 3.16022 3.76448 3.09774C3.82696 3.03525 3.91168 3.0001 4.00004 2.99999H4.66672C4.75508 3.0001 4.8398 3.03525 4.90228 3.09774C4.96477 3.16022 4.99992 3.24494 5.00003 3.3333V3.99998ZM7.33333 4.33329H9.99999C10.5522 4.33329 11 3.88556 11 3.3333C11 2.78104 10.5523 2.33331 9.99999 2.33331H7.33333C6.78107 2.33331 6.33334 2.781 6.33334 3.3333C6.33334 3.8856 6.78107 4.33329 7.33333 4.33329ZM7.33333 2.99999H9.99999C10.1841 2.99999 10.3333 3.1492 10.3333 3.3333C10.3333 3.5174 10.1841 3.66662 9.99999 3.66662H7.33333C7.24493 3.66662 7.16015 3.6315 7.09764 3.56899C7.03513 3.50649 7.00002 3.4217 7.00002 3.3333C7.00002 3.2449 7.03513 3.16012 7.09764 3.09761C7.16015 3.0351 7.24493 2.99999 7.33333 2.99999ZM4.66668 5.66664H4.00001C3.44798 5.66723 3.0006 6.1146 3.00002 6.66663V7.3333C3.0006 7.88533 3.44798 8.33271 4.00001 8.33329H4.66668C5.2187 8.33271 5.66608 7.88533 5.66667 7.3333V6.66663C5.66608 6.1146 5.21874 5.66723 4.66668 5.66664ZM5.00003 7.33326C4.99992 7.42163 4.96477 7.50635 4.90228 7.56883C4.8398 7.63131 4.75508 7.66647 4.66672 7.66658H4.00004C3.91168 7.66647 3.82696 7.63131 3.76448 7.56883C3.70199 7.50635 3.66684 7.42163 3.66673 7.33326V6.66659C3.66684 6.57823 3.70199 6.49351 3.76448 6.43103C3.82696 6.36854 3.91168 6.33339 4.00004 6.33327H4.66672C4.75508 6.33339 4.8398 6.36854 4.90228 6.43103C4.96477 6.49351 4.99992 6.57823 5.00003 6.66659V7.33326ZM7.33333 7.66662H13.6666C14.2189 7.66662 14.6666 7.21893 14.6666 6.66663C14.6666 6.11433 14.2189 5.66664 13.6666 5.66664H7.33333C6.78107 5.66664 6.33334 6.11437 6.33334 6.66663C6.33334 7.21889 6.78107 7.66662 7.33333 7.66662ZM7.33333 6.33327H13.6666C13.755 6.33327 13.8398 6.36839 13.9023 6.4309C13.9648 6.49341 13.9999 6.57819 13.9999 6.66659C13.9999 6.75499 13.9648 6.83977 13.9023 6.90228C13.8398 6.96479 13.755 6.99991 13.6666 6.99991H7.33333C7.14923 6.99991 7.00002 6.85069 7.00002 6.66659C7.00002 6.48249 7.14923 6.33327 7.33333 6.33327ZM4.66668 8.99993H4.00001C3.44798 9.00051 3.0006 9.44789 3.00002 9.99992V10.6666C3.0006 11.2186 3.44798 11.666 4.00001 11.6666H4.66668C5.2187 11.666 5.66608 11.2186 5.66667 10.6666V9.99992C5.66608 9.44789 5.21874 9.00051 4.66668 8.99993ZM5.00003 10.6666C4.99992 10.755 4.96477 10.8397 4.90228 10.9022C4.8398 10.9646 4.75508 10.9998 4.66672 10.9999H4.00004C3.91168 10.9998 3.82696 10.9646 3.76448 10.9022C3.70199 10.8397 3.66684 10.755 3.66673 10.6666V9.99992C3.66684 9.91155 3.70199 9.82684 3.76448 9.76435C3.82696 9.70187 3.91168 9.66672 4.00004 9.6666H4.66672C4.75508 9.66672 4.8398 9.70187 4.90228 9.76435C4.96477 9.82684 4.99992 9.91155 5.00003 9.99992V10.6666ZM4.66668 12.3332H4.00001C3.44798 12.3338 3.0006 12.7812 3.00002 13.3332V13.9999C3.0006 14.5519 3.44798 14.9993 4.00001 14.9999H4.66668C5.2187 14.9993 5.66608 14.5519 5.66667 13.9999V13.3332C5.66608 12.7812 5.21874 12.3338 4.66668 12.3332ZM5.00003 13.9999C4.99992 14.0882 4.96477 14.173 4.90228 14.2354C4.8398 14.2979 4.75508 14.3331 4.66672 14.3332H4.00004C3.91168 14.3331 3.82696 14.2979 3.76448 14.2354C3.70199 14.173 3.66684 14.0882 3.66673 13.9999V13.3332C3.66684 13.2448 3.70199 13.1601 3.76448 13.0976C3.82696 13.0352 3.91168 13 4.00004 12.9999H4.66672C4.75508 13 4.8398 13.0352 4.90228 13.0976C4.96477 13.1601 4.99992 13.2448 5.00003 13.3332V13.9999Z" fill="#A3A3A3"/>
</g>
<defs>
<clipPath id="clip0_1_940">
<rect width="20" height="20" fill="white"/>
</clipPath>
</defs>
</svg>
