<svg width="24" height="24" viewBox="0 0 24 24" fill="none" xmlns="http://www.w3.org/2000/svg">
<path fill-rule="evenodd" clip-rule="evenodd" d="M8.13776 22C7.72576 22 7.33476 21.968 6.96676 21.905L6.74876 21.864C4.37776 21.371 2.99976 19.555 2.99976 16.791V7.209C2.99976 6.875 3.01976 6.555 3.05976 6.249C3.40876 3.564 5.25376 2 8.13776 2H15.8628C19.0588 2 20.9698 3.92 20.9998 7.132V7.209V16.791C20.9998 20.048 19.0838 22 15.8628 22H8.13776ZM8.13776 3.457C5.68176 3.457 4.43676 4.72 4.43676 7.209V16.791C4.43676 19.28 5.68176 20.543 8.13776 20.543H15.8538C18.3088 20.543 19.5458 19.28 19.5458 16.791V7.209C19.5458 4.72 18.3088 3.457 15.8538 3.457H8.13776ZM16.3058 16.234C16.3058 15.834 15.9868 15.51 15.5928 15.51H8.38176C7.98776 15.51 7.66776 15.834 7.66776 16.234C7.66776 16.634 7.98776 16.958 8.38176 16.958H15.5928C15.9868 16.958 16.3058 16.634 16.3058 16.234ZM15.5928 11.271C15.8678 11.241 16.1368 11.373 16.2838 11.61C16.4308 11.849 16.4308 12.151 16.2838 12.39C16.1368 12.627 15.8678 12.759 15.5928 12.729H8.38176C8.01576 12.687 7.73876 12.374 7.73876 12C7.73876 11.626 8.01576 11.312 8.38176 11.271H15.5928ZM11.7768 7.771C11.7768 7.397 11.4998 7.083 11.1338 7.042H8.39076C8.02376 7.083 7.74676 7.397 7.74676 7.771C7.74676 8.144 8.02376 8.458 8.39076 8.499H11.1338C11.4998 8.458 11.7768 8.144 11.7768 7.771Z" fill="#737373"/>
</svg>
