<svg width="16" height="18" viewBox="0 0 16 18" fill="none" xmlns="http://www.w3.org/2000/svg">
<path fill-rule="evenodd" clip-rule="evenodd" d="M7.97488 0.974976H8.02531C9.22992 0.974972 10.1681 0.97497 10.9193 1.04C11.6824 1.10607 12.3014 1.24223 12.8536 1.54377C13.636 1.97098 14.2791 2.61408 14.7063 3.39647C15.0078 3.94869 15.144 4.56771 15.2101 5.3308C15.2751 6.08196 15.2751 7.02018 15.2751 8.22481V9.77514C15.2751 10.9798 15.2751 11.918 15.2101 12.6692C15.144 13.4322 15.0078 14.0513 14.7063 14.6035C14.2791 15.3859 13.636 16.029 12.8536 16.4562C12.3014 16.7577 11.6824 16.8939 10.9193 16.9599C10.1681 17.025 9.22989 17.025 8.02526 17.025H7.97493C6.7703 17.025 5.83208 17.025 5.08092 16.9599C4.31784 16.8939 3.69881 16.7577 3.14659 16.4562C2.3642 16.029 1.72111 15.3859 1.29389 14.6035C0.992353 14.0513 0.856194 13.4322 0.790126 12.6692C0.725092 11.918 0.725095 10.9798 0.725098 9.77519V8.22476C0.725095 7.02015 0.725092 6.08195 0.790126 5.3308C0.856194 4.56771 0.992353 3.94869 1.29389 3.39647C1.72111 2.61408 2.3642 1.97098 3.14659 1.54377C3.69881 1.24223 4.31784 1.10607 5.08092 1.04C5.83207 0.97497 6.77027 0.974972 7.97488 0.974976ZM5.17149 2.08609C4.47762 2.14617 4.02163 2.26229 3.6498 2.46533C3.04408 2.79608 2.5462 3.29396 2.21545 3.89968C2.01242 4.27151 1.89629 4.7275 1.83621 5.42137C1.77556 6.12195 1.7751 7.01482 1.7751 8.24998V9.74997C1.7751 10.9851 1.77556 11.878 1.83621 12.5786C1.89629 13.2725 2.01242 13.7284 2.21545 14.1003C2.5462 14.706 3.04408 15.2039 3.6498 15.5346C4.02163 15.7377 4.47762 15.8538 5.17149 15.9139C5.87207 15.9745 6.76494 15.975 8.0001 15.975C9.23525 15.975 10.1281 15.9745 10.8287 15.9139C11.5226 15.8538 11.9786 15.7377 12.3504 15.5346C12.9561 15.2039 13.454 14.706 13.7847 14.1003C13.9878 13.7284 14.1039 13.2725 14.164 12.5786C14.2246 11.878 14.2251 10.9851 14.2251 9.74997V8.24998C14.2251 7.01482 14.2246 6.12195 14.164 5.42137C14.1039 4.7275 13.9878 4.27151 13.7847 3.89968C13.454 3.29396 12.9561 2.79608 12.3504 2.46533C11.9786 2.26229 11.5226 2.14617 10.8287 2.08609C10.1281 2.02543 9.23525 2.02498 8.0001 2.02498C6.76494 2.02498 5.87207 2.02543 5.17149 2.08609Z" fill="white"/>
<path fill-rule="evenodd" clip-rule="evenodd" d="M11 12.525C11 12.8149 10.7649 13.05 10.475 13.05L4.775 13.05C4.48505 13.05 4.25 12.8149 4.25 12.525C4.25 12.235 4.48505 12 4.775 12L10.475 12C10.7649 12 11 12.235 11 12.525Z" fill="white"/>
<path fill-rule="evenodd" clip-rule="evenodd" d="M11 9.52499C11 9.81494 10.7649 10.05 10.475 10.05L4.775 10.05C4.48505 10.05 4.25 9.81494 4.25 9.52499C4.25 9.23504 4.48505 8.99999 4.775 8.99999L10.475 8.99999C10.7649 8.99999 11 9.23504 11 9.52499Z" fill="white"/>
<path fill-rule="evenodd" clip-rule="evenodd" d="M8 6.52499C8 6.81494 7.76495 7.04999 7.475 7.04999L4.775 7.04999C4.48505 7.04999 4.25 6.81494 4.25 6.52499C4.25 6.23504 4.48505 5.99999 4.775 5.99999L7.475 5.99999C7.76495 5.99999 8 6.23504 8 6.52499Z" fill="white"/>
</svg>
