<svg width="41" height="41" viewBox="0 0 41 41" fill="none" xmlns="http://www.w3.org/2000/svg">
<g clip-path="url(#clip0_268_1180)">
<path d="M32.1793 12.4551C33.3891 12.4551 34.3733 11.4709 34.3733 10.2611C34.3733 9.05128 33.3891 8.06708 32.1793 8.06708C30.9694 8.06708 29.9852 9.05128 29.9852 10.2611C29.9852 11.4709 30.9694 12.4551 32.1793 12.4551ZM32.1793 9.52976C32.5824 9.52976 32.9106 9.85759 32.9106 10.2611C32.9106 10.6646 32.5824 10.9924 32.1793 10.9924C31.7761 10.9924 31.4479 10.6646 31.4479 10.2611C31.4479 9.85759 31.7761 9.52976 32.1793 9.52976ZM32.1793 15.3805C30.9694 15.3805 29.9852 16.3647 29.9852 17.5745C29.9852 18.7844 30.9694 19.7686 32.1793 19.7686C33.3891 19.7686 34.3733 18.7844 34.3733 17.5745C34.3733 16.3647 33.3891 15.3805 32.1793 15.3805ZM32.1793 18.3059C31.7761 18.3059 31.4479 17.9781 31.4479 17.5745C31.4479 17.171 31.7761 16.8432 32.1793 16.8432C32.5824 16.8432 32.9106 17.171 32.9106 17.5745C32.9106 17.9781 32.5824 18.3059 32.1793 18.3059ZM27.7912 11.7238C26.5814 11.7238 25.5972 12.708 25.5972 13.9178C25.5972 15.1276 26.5814 16.1119 27.7912 16.1119C29.001 16.1119 29.9852 15.1276 29.9852 13.9178C29.9852 12.708 29.001 11.7238 27.7912 11.7238ZM27.7912 14.6492C27.388 14.6492 27.0599 14.3213 27.0599 13.9178C27.0599 13.5143 27.388 13.1865 27.7912 13.1865C28.1943 13.1865 28.5225 13.5143 28.5225 13.9178C28.5225 14.3213 28.1943 14.6492 27.7912 14.6492ZM34.3733 13.9178C34.3733 15.1278 35.3575 16.1119 36.5673 16.1119C37.7771 16.1119 38.7613 15.1276 38.7613 13.9178C38.7613 12.708 37.7771 11.7238 36.5673 11.7238C35.3575 11.7238 34.3733 12.708 34.3733 13.9178ZM37.2987 13.9178C37.2987 14.3213 36.9705 14.6492 36.5673 14.6492C36.1642 14.6492 35.836 14.3213 35.836 13.9178C35.836 13.5143 36.1642 13.1865 36.5673 13.1865C36.9705 13.1865 37.2987 13.5143 37.2987 13.9178Z" fill="#FFC727"/>
<path d="M40.9325 14.3636C40.94 14.2149 40.9552 14.0683 40.9552 13.9178C40.9552 9.07836 37.0182 5.14172 32.1791 5.14172C29.9582 5.14172 27.9333 5.97765 26.3859 7.3427C26.3739 7.34215 26.3636 7.33575 26.3512 7.33575H14.6269C14.6078 7.33575 14.5921 7.34508 14.5735 7.34654C13.0254 5.97929 10.999 5.14172 8.77611 5.14172C3.937 5.14172 0 9.07836 0 13.9178C0 14.1111 0.016638 14.3001 0.0290709 14.4903C0.013347 14.5589 -0.00347388 14.6276 0.00182836 14.7013L1.20379 31.53C1.37419 33.9162 3.45925 35.8581 5.85147 35.8581H6.58135C8.96041 35.8581 11.2331 34.0398 11.7554 31.7185L13.3982 24.4174C14.0674 25.1505 15.0212 25.6193 16.0895 25.6193C17.8554 25.6193 19.3325 24.3609 19.6724 22.694H21.2828C21.6227 24.3609 23.0998 25.6193 24.8657 25.6193C25.9541 25.6193 26.922 25.1317 27.5925 24.3746L29.2448 31.7187C29.7673 34.0398 32.04 35.8581 34.4188 35.8581H35.1487C37.5406 35.8581 39.6256 33.917 39.7964 31.53L40.9984 14.7013C41.0071 14.5801 40.9779 14.468 40.9325 14.3636ZM12.4385 22.0187L10.3284 31.3973C9.96272 33.0227 8.24681 34.3954 6.58135 34.3954H5.85147C4.21034 34.3954 2.77965 33.0635 2.66282 31.4258L1.79014 19.208C3.39416 21.3209 5.92461 22.694 8.77593 22.694C10.085 22.694 11.3237 22.3978 12.4409 21.8816C12.4405 21.9092 12.4328 21.9348 12.4328 21.9626C12.4328 21.9818 12.4381 21.9995 12.4385 22.0187ZM13.2433 19.6954C12.0063 20.6542 10.4589 21.2313 8.7763 21.2313C4.74349 21.2313 1.46287 17.9503 1.46287 13.9178C1.46287 9.8854 4.74331 6.60441 8.77611 6.60441C12.8089 6.60441 16.0895 9.8854 16.0895 13.9178C16.0895 15.838 15.3399 17.5822 14.1253 18.8884C13.7864 19.1058 13.4938 19.3817 13.2433 19.6954ZM16.0895 24.1566C14.9373 24.1566 14.0001 23.2611 13.9125 22.131L14.1948 20.8766C14.2168 20.8385 14.2338 20.7972 14.2579 20.7606C14.5362 20.5376 14.8007 20.2979 15.0499 20.0428C15.3608 19.8735 15.7114 19.7688 16.0897 19.7688C17.2996 19.7688 18.2838 20.753 18.2838 21.9628C18.2838 23.1726 17.2994 24.1566 16.0895 24.1566ZM21.2828 21.2313H19.6724C19.3497 19.6481 17.9963 18.4503 16.349 18.332C17.1089 17.0335 17.5522 15.5283 17.5522 13.9178C17.5522 12.0065 16.9311 10.2412 15.8899 8.79844H25.0655C24.0241 10.2412 23.403 12.0065 23.403 13.9178C23.403 15.5281 23.8463 17.0335 24.6064 18.332C22.9589 18.4503 21.6057 19.6483 21.2828 21.2313ZM24.8657 24.1566C23.6558 24.1566 22.6716 23.1724 22.6716 21.9626C22.6716 20.7528 23.6558 19.7686 24.8657 19.7686C25.2438 19.7686 25.5944 19.8735 25.9053 20.0425C26.1545 20.2976 26.419 20.5373 26.6973 20.7603C26.7509 20.8415 26.7946 20.9292 26.8372 21.0175L27.0566 21.9928C27.0399 23.1885 26.0651 24.1566 24.8657 24.1566ZM38.3374 31.426C38.2202 33.0635 36.7897 34.3954 35.1487 34.3954H34.4188C32.7534 34.3954 31.0375 33.0227 30.6718 31.3973L28.533 21.8908C29.6452 22.4014 30.8775 22.6941 32.1793 22.6941C35.0604 22.6941 37.6139 21.2925 39.2148 19.1418L38.3374 31.426ZM32.1791 21.2313C30.4963 21.2313 28.9491 20.6542 27.712 19.6954C27.4616 19.3817 27.169 19.1058 26.83 18.8884C25.6153 17.5822 24.8657 15.838 24.8657 13.9178C24.8657 9.8854 28.1463 6.60441 32.1791 6.60441C36.2119 6.60441 39.4925 9.88558 39.4925 13.9178C39.4925 17.9503 36.2119 21.2313 32.1791 21.2313Z" fill="#FFC727"/>
<path d="M13.1642 11.7238H10.9702V9.5298C10.9702 9.12556 10.6427 8.79846 10.2388 8.79846H7.31345C6.90957 8.79846 6.58211 9.12556 6.58211 9.5298V11.7238H4.38808C3.9842 11.7238 3.65674 12.0509 3.65674 12.4552V15.3805C3.65674 15.7848 3.9842 16.1119 4.38808 16.1119H6.58211V18.3059C6.58211 18.7102 6.90957 19.0373 7.31345 19.0373H10.2388C10.6427 19.0373 10.9702 18.7102 10.9702 18.3059V16.1119H13.1642C13.5681 16.1119 13.8955 15.7848 13.8955 15.3805V12.4552C13.8955 12.0509 13.5681 11.7238 13.1642 11.7238ZM6.58211 14.6492H5.11942V13.1865H6.58211V14.6492ZM9.50748 17.5746H8.0448V16.1119H9.50748V17.5746ZM9.50748 14.6492H8.0448V13.1865H9.50748V14.6492ZM9.50748 11.7238H8.0448V10.2611H9.50748V11.7238ZM12.4329 14.6492H10.9702V13.1865H12.4329V14.6492ZM19.0149 10.9925H21.9403V12.4552H19.0149V10.9925Z" fill="#FFC727"/>
</g>
<defs>
<clipPath id="clip0_268_1180">
<rect width="41" height="41" fill="white"/>
</clipPath>
</defs>
</svg>
