<svg width="24" height="24" viewBox="0 0 24 24" fill="none" xmlns="http://www.w3.org/2000/svg">
<path d="M12 22.75C6.07 22.75 1.25 17.93 1.25 12C1.25 6.07 6.07 1.25 12 1.25C17.93 1.25 22.75 6.07 22.75 12C22.75 17.93 17.93 22.75 12 22.75ZM12 2.75C6.9 2.75 2.75 6.9 2.75 12C2.75 17.1 6.9 21.25 12 21.25C17.1 21.25 21.25 17.1 21.25 12C21.25 6.9 17.1 2.75 12 2.75Z" fill="#737373"/>
<path d="M9.00001 21.75H8.00001C7.59001 21.75 7.25001 21.41 7.25001 21C7.25001 20.59 7.57001 20.26 7.98001 20.25C6.41001 14.89 6.41001 9.11 7.98001 3.75C7.57001 3.74 7.25001 3.41 7.25001 3C7.25001 2.59 7.59001 2.25 8.00001 2.25H9.00001C9.24001 2.25 9.47001 2.37 9.61001 2.56C9.75001 2.76 9.79001 3.01 9.71001 3.24C7.83001 8.89 7.83001 15.11 9.71001 20.77C9.79001 21 9.75001 21.25 9.61001 21.45C9.47001 21.63 9.24001 21.75 9.00001 21.75Z" fill="#737373"/>
<path d="M15 21.75C14.92 21.75 14.84 21.74 14.76 21.71C14.37 21.58 14.15 21.15 14.29 20.76C16.17 15.11 16.17 8.89 14.29 3.23C14.16 2.84 14.37 2.41 14.76 2.28C15.16 2.15 15.58 2.36 15.71 2.75C17.7 8.71 17.7 15.27 15.71 21.22C15.61 21.55 15.31 21.75 15 21.75Z" fill="#737373"/>
<path d="M12 17.2C9.21 17.2 6.43 16.81 3.75 16.02C3.74 16.42 3.41 16.75 3 16.75C2.59 16.75 2.25 16.41 2.25 16V15C2.25 14.76 2.37 14.53 2.56 14.39C2.76 14.25 3.01 14.21 3.24 14.29C8.89 16.17 15.12 16.17 20.77 14.29C21 14.21 21.25 14.25 21.45 14.39C21.65 14.53 21.76 14.76 21.76 15V16C21.76 16.41 21.42 16.75 21.01 16.75C20.6 16.75 20.27 16.43 20.26 16.02C17.57 16.81 14.79 17.2 12 17.2Z" fill="#737373"/>
<path d="M21 9.74999C20.92 9.74999 20.84 9.73999 20.76 9.70999C15.11 7.82999 8.88 7.82999 3.23 9.70999C2.83 9.83999 2.41 9.62999 2.28 9.23999C2.16 8.83999 2.37 8.41999 2.76 8.28999C8.72 6.29999 15.28 6.29999 21.23 8.28999C21.62 8.41999 21.84 8.84999 21.7 9.23999C21.61 9.54999 21.31 9.74999 21 9.74999Z" fill="#737373"/>
</svg>
