<svg width="371" height="207" viewBox="0 0 371 207" fill="none" xmlns="http://www.w3.org/2000/svg">
<path opacity="0.1" d="M187.669 206.305C291.129 206.305 375 204.164 375 201.523C375 198.882 291.129 196.741 187.669 196.741C84.2088 196.741 0.337891 198.882 0.337891 201.523C0.337891 204.164 84.2088 206.305 187.669 206.305Z" fill="#839499"/>
<path opacity="0.34" d="M187.721 34.409L162.529 115.604H235.785L211.975 34.409H187.721Z" fill="url(#paint0_linear_1_1507)"/>
<path d="M199.535 42.384C202.031 42.384 204.055 40.3603 204.055 37.864C204.055 35.3677 202.031 33.344 199.535 33.344C197.039 33.344 195.015 35.3677 195.015 37.864C195.015 40.3603 197.039 42.384 199.535 42.384Z" fill="#FFD357"/>
<path d="M199.639 20.291C199.639 20.291 194.039 28.525 181.639 37.864H217.634C205.242 28.525 199.639 20.291 199.639 20.291Z" fill="#1CA0BF"/>
<path d="M200.797 0.164001H198.481V21.992H200.797V0.164001Z" fill="url(#paint1_linear_1_1507)"/>
<path d="M216.327 122.302H219.51L210.596 99.132H207.413L216.327 122.302Z" fill="#AFC5CC"/>
<path d="M250.297 122.302H216.327V125.1H250.297V122.302Z" fill="#AFC5CC"/>
<path d="M238.356 92.551C238.32 92.522 238.28 92.501 238.245 92.468C237.725 91.997 238.564 90.991 239.084 91.468C239.12 91.501 239.165 91.517 239.202 91.545C239.205 91.4269 239.239 91.3116 239.3 91.2106C239.362 91.1097 239.449 91.0267 239.552 90.9698C239.656 90.9129 239.773 90.8842 239.891 90.8865C240.009 90.8889 240.125 90.9221 240.226 90.983C241.883 91.7252 243.701 92.0385 245.511 91.894C244.911 91.5011 244.257 91.1979 243.57 90.994C242.891 90.85 243.049 89.762 243.732 89.915C244.104 89.9981 244.471 90.1012 244.832 90.224C247.949 91.3175 250.772 93.1174 253.078 95.483C253.485 95.8232 253.873 96.1854 254.241 96.568C254.3 96.6449 254.337 96.7361 254.348 96.8321C254.359 96.9282 254.345 97.0255 254.306 97.114C253.745 98.2459 253.054 99.3087 252.247 100.281C252.192 100.344 252.124 100.394 252.047 100.427C252.093 100.547 252.094 100.679 252.051 100.8C252.008 100.921 251.923 101.022 251.811 101.085C251.699 101.148 251.569 101.17 251.443 101.145C251.317 101.12 251.204 101.051 251.125 100.95C250.101 99.6666 249.005 98.4423 247.842 97.283C244.811 97.2172 241.815 96.6149 238.994 95.504C238.426 95.247 238.687 94.288 239.206 94.314C239.212 94.314 239.216 94.305 239.221 94.301L239.197 94.288C238.806 94.1062 238.431 93.8936 238.074 93.652C237.671 93.335 237.993 92.67 238.356 92.551Z" fill="#FF4F26"/>
<path d="M245.038 93.307C242.977 93.1755 240.967 92.6123 239.138 91.654C239.122 91.6467 239.108 91.6363 239.096 91.6233C239.084 91.6102 239.075 91.595 239.07 91.5784C239.064 91.5618 239.062 91.5442 239.064 91.5268C239.065 91.5094 239.07 91.4924 239.078 91.477C239.087 91.4616 239.098 91.448 239.112 91.4372C239.126 91.4263 239.141 91.4184 239.158 91.4139C239.175 91.4094 239.193 91.4085 239.21 91.4111C239.228 91.4136 239.244 91.4198 239.259 91.429C241.049 92.369 243.017 92.9223 245.035 93.053H245.117C245.151 93.053 245.183 93.0664 245.207 93.0904C245.231 93.1143 245.244 93.1467 245.244 93.1805C245.244 93.2143 245.231 93.2468 245.207 93.2707C245.183 93.2946 245.151 93.308 245.117 93.308L245.038 93.307Z" fill="#072A33"/>
<path d="M244.573 94.714C242.186 94.714 238.459 92.75 238.297 92.663C238.267 92.6472 238.245 92.6203 238.235 92.588C238.225 92.5557 238.228 92.5209 238.244 92.491C238.26 92.4612 238.287 92.4388 238.319 92.4289C238.351 92.419 238.386 92.4222 238.416 92.438C238.456 92.459 242.25 94.458 244.574 94.458C244.648 94.458 244.723 94.458 244.793 94.451H244.801C244.835 94.45 244.868 94.4624 244.892 94.4855C244.917 94.5087 244.931 94.5407 244.933 94.5745C244.934 94.6083 244.921 94.6412 244.898 94.6658C244.875 94.6905 244.843 94.705 244.809 94.706C244.731 94.711 244.653 94.714 244.573 94.714Z" fill="#072A33"/>
<path d="M244.422 95.835C242.611 95.5966 240.84 95.1219 239.153 94.423C239.122 94.4101 239.097 94.3855 239.084 94.3544C239.071 94.3233 239.07 94.2883 239.083 94.257C239.096 94.2263 239.121 94.202 239.152 94.1889C239.183 94.1759 239.218 94.1752 239.249 94.187C240.908 94.8702 242.648 95.3387 244.426 95.581C244.46 95.581 244.492 95.5944 244.516 95.6183C244.54 95.6423 244.553 95.6747 244.553 95.7085C244.553 95.7423 244.54 95.7748 244.516 95.7987C244.492 95.8226 244.46 95.836 244.426 95.836L244.422 95.835Z" fill="#072A33"/>
<path d="M300.872 82.341C289.633 78.096 278.627 92.841 272.992 100.574C267.357 108.307 271.248 113.992 275.203 113.092C287.607 110.269 307.683 84.914 300.872 82.341Z" fill="#188BA6"/>
<path d="M253.399 89.899C261.93 91.64 272.613 97.386 278.855 100.619C283.577 103.064 275.765 113.35 273.997 113.163C272.229 112.976 255.837 109.375 247.665 101.344C247.666 101.346 251.729 89.558 253.399 89.899Z" fill="#188BA6"/>
<path d="M289.875 86.289C289.875 86.289 285.136 92.521 283.014 104.577C278.021 104.407 264.545 109.455 264.545 109.455L285.71 107.261L289.875 86.289Z" fill="#072A33"/>
<path d="M246.011 197.28C247.109 196.47 247.952 195.362 248.437 194.086C248.445 194.079 248.451 194.068 248.453 194.057C249.045 192.729 250.963 189.557 251.59 188.282C250.422 186.333 246.754 186.688 244.348 185.394C243.566 186.865 242.508 188.172 241.233 189.244C241.079 189.342 240.914 189.423 240.743 189.486C238.4 190.399 234.573 189.035 232.409 189.138C232.172 189.118 231.933 189.145 231.707 189.219C231.481 189.293 231.272 189.411 231.093 189.567C229.678 191.057 243.577 199.095 246.011 197.28Z" fill="#FF4F26"/>
<path d="M231.29 189.427C231.219 189.463 231.156 189.513 231.106 189.574C229.553 191.139 243.729 199.414 246.076 197.655H246.09C246.24 197.575 246.379 197.477 246.504 197.363C247.387 196.429 248.049 195.308 248.44 194.084C248.443 194.083 248.447 194.08 248.448 194.077C248.45 194.074 248.451 194.07 248.45 194.066C245.415 193.52 242.68 191.895 240.75 189.489C238.691 190.289 235.5 189.35 233.296 189.162C232.618 188.992 231.9 189.087 231.29 189.427Z" fill="#1CA0BF"/>
<path d="M231.29 189.427C231.219 189.463 231.156 189.513 231.106 189.574C229.553 191.139 243.729 199.414 246.076 197.655H246.09C246.24 197.575 246.379 197.477 246.504 197.363C244.541 197.234 242.624 196.715 240.865 195.835C237.308 194.302 234.063 192.13 231.29 189.427V189.427Z" fill="#072A33"/>
<path d="M273.358 150.414C273.929 150.282 295.629 148.78 303.198 146.275C309.332 144.248 318.198 142.526 318.798 135.875C319.706 125.505 316.198 121.166 308.998 119.953C305.167 119.311 299.898 117.79 296.467 119.186C291.608 121.172 258.809 131.238 257.603 141.145C256.525 149.961 266.553 151.983 273.358 150.414Z" fill="#0F5566"/>
<path d="M258.668 138.573C255.181 143.212 240.852 173.326 239.038 182.618C242.677 187.518 249.978 190.578 258.017 191.346C258.166 191.939 264.135 175.454 267.654 168.046C270.097 162.879 273.325 158.146 276.361 153.295C277.353 151.727 278.324 150.136 279.237 148.531C281.911 143.804 262.767 133.119 258.668 138.573Z" fill="#0F5566"/>
<path d="M339.809 115.356C339.809 115.356 325.509 112.375 313.388 120.512C301.267 128.649 297.548 148.802 297.548 148.802L336.192 123.944L339.809 115.356Z" fill="#BED0E2"/>
<path d="M286.569 127.398C286.569 127.398 262.431 132.009 260.517 139.904C258.603 147.799 267.655 168.044 267.655 168.044L265.097 142.069L286.569 127.398Z" fill="#072A33"/>
<path d="M261.979 142.512C261.959 143.35 262.072 144.185 262.315 144.987C264.006 150.743 272.063 151.975 277.815 150.652C277.926 150.631 278.793 150.56 280.178 150.437C281.625 150.306 283.641 150.137 285.954 149.907C293.095 149.207 303.027 148.053 307.662 146.515C313.796 144.488 322.667 142.766 323.262 136.115C323.67 131.49 323.192 128.068 321.897 125.582C320.308 122.495 317.456 120.865 313.463 120.193C309.633 119.551 305.975 121.493 302.541 122.893C297.679 124.881 263.268 131.481 262.057 141.381C262.059 141.402 262.055 141.424 262.046 141.443C262.005 141.808 261.984 142.176 261.979 142.512Z" fill="#0F5566"/>
<path d="M261.964 142.298C261.964 142.368 261.974 142.441 261.974 142.512C262.042 143.342 262.154 144.168 262.31 144.987C263.94 154.705 270.91 181.304 274.962 188.73C279.762 186.102 287.762 185.022 295.143 183.33C295.195 183.37 295.174 183.238 295.113 182.953C294.492 180.477 289.513 166.399 287.697 159.247C286.938 156.169 286.356 153.05 285.955 149.905C285.619 147.44 285.334 144.955 284.997 142.479C284.987 142.428 284.987 142.379 284.977 142.327C284.743 140.492 284.477 138.649 284.151 136.827C283.235 131.713 263.442 135.155 262.045 141.442C261.977 141.722 261.949 142.01 261.964 142.298V142.298Z" fill="#0F5566"/>
<path d="M284.164 185.579C284.125 185.579 284.087 185.566 284.055 185.542C284.023 185.519 284 185.486 283.988 185.449C283.888 185.121 273.949 152.515 273.227 146.122C273.118 145.518 273.136 144.899 273.279 144.302C273.423 143.706 273.689 143.146 274.06 142.658C275.969 140.327 280.83 139.908 288.188 139.271C290.267 139.091 292.623 138.887 295.125 138.617C309.062 137.117 313.817 124.85 313.863 124.726C313.88 124.681 313.915 124.644 313.959 124.624C314.003 124.604 314.053 124.602 314.099 124.619C314.144 124.636 314.181 124.671 314.201 124.715C314.221 124.759 314.223 124.81 314.206 124.855C314.159 124.98 309.33 137.455 295.164 138.982C292.657 139.251 290.3 139.455 288.22 139.635C280.955 140.264 276.154 140.679 274.344 142.89C274.004 143.341 273.762 143.857 273.632 144.406C273.502 144.955 273.488 145.525 273.59 146.08C274.307 152.441 284.237 185.014 284.338 185.342C284.352 185.389 284.347 185.439 284.324 185.482C284.301 185.525 284.262 185.557 284.216 185.572C284.199 185.576 284.182 185.579 284.164 185.579V185.579Z" fill="#072A33"/>
<path d="M279.232 146.383C279.405 147.137 279.741 148.563 280.179 150.436C282.339 159.716 286.964 180.036 286.379 184.828C286.379 184.828 294.04 183.178 295.14 183.328L295.11 182.951C294.489 180.475 289.51 166.397 287.694 159.245C286.935 156.167 286.353 153.048 285.952 149.903C293.093 149.203 303.025 148.049 307.661 146.511C313.795 144.484 322.666 142.762 323.261 136.111C323.668 131.486 323.191 128.064 321.896 125.578L318.932 123.714C318.932 123.714 311.822 137.782 299.179 140.329C293.379 141.501 288.494 141.929 284.999 142.478C280.871 143.132 278.68 143.959 279.232 146.383Z" fill="#0A3F4D"/>
<path d="M324.166 124.638C324.166 124.638 319.55 88.846 308.938 82.706C302.107 78.753 291.565 82.23 289.212 87.419C284.622 97.538 281.946 124.596 281.946 124.596C281.946 124.596 306.487 129.741 324.166 124.638Z" fill="#1CA0BF"/>
<path d="M298.491 82.808L299.215 80.367L301.927 80.647L304.209 81.125L298.491 82.808Z" fill="#F2F8FF"/>
<path d="M298.491 82.808L297.585 80.367L296.463 81.745L298.491 82.808Z" fill="#F2F8FF"/>
<path d="M338.547 200.998L328.36 144.651L327.357 144.832L337.544 201.179L338.547 200.998Z" fill="#072A33"/>
<path d="M304.766 144.86L303.763 144.679L293.571 201.023L294.573 201.204L304.766 144.86Z" fill="#072A33"/>
<path d="M313.726 144.86L312.723 144.679L302.531 201.023L303.533 201.204L313.726 144.86Z" fill="#072A33"/>
<path d="M331.796 166.08H300.185V167.099H331.796V166.08Z" fill="#072A33"/>
<path d="M339.809 115.355C339.809 115.355 315.853 129.255 297.549 148.801C297.549 148.801 319.47 152.869 330.318 143.601C341.166 134.333 339.809 115.355 339.809 115.355Z" fill="#FF4F26"/>
<path d="M295.307 70.408C296.087 73.086 298.289 72.392 300.528 71.997C300.442 72.6594 300.485 73.3323 300.656 73.978C300.619 74.0375 300.595 74.1038 300.585 74.173C300.46 75.006 300.372 75.836 300.32 76.673C300.311 76.7504 300.32 76.8288 300.345 76.9024C300.371 76.9759 300.413 77.0427 300.468 77.0978C300.523 77.1528 300.59 77.1946 300.664 77.2201C300.737 77.2456 300.816 77.2542 300.893 77.245C303.537 76.838 304.493 73.61 303.95 71.266C303.856 70.7806 303.637 70.3282 303.313 69.9539C302.99 69.5797 302.575 69.2967 302.108 69.133C300.976 68.8773 299.821 68.7333 298.661 68.703C297.153 68.45 294.564 67.857 295.307 70.408Z" fill="#072A33"/>
<path d="M297.136 76.37C297.136 76.37 297.259 80.425 297.396 81.337C297.624 81.9172 298.004 82.4253 298.496 82.808C300.196 81.588 301.607 81.875 302.142 81.337C301.662 79.727 301.45 78.0489 301.514 76.37C301.51 74.324 297.136 76.37 297.136 76.37Z" fill="#FF4F26"/>
<path d="M302.064 73.076C302.064 73.076 301.115 78.586 297.635 78.694C294.155 78.802 296.335 71.194 296.857 70.982C297.379 70.77 300.773 70.037 302.064 73.076Z" fill="#FF4F26"/>
<path d="M300.269 74.084C300.407 73.811 300.622 73.5837 300.886 73.4294C301.151 73.2751 301.454 73.2003 301.76 73.214C302.722 73.359 302.944 75.652 301.314 75.85C299.684 76.048 300.269 74.084 300.269 74.084Z" fill="#FF4F26"/>
<path d="M295.147 183.34C295.162 182.419 275.199 187.271 274.965 188.74C274.646 190.721 295.103 186.023 295.147 183.34Z" fill="#072A33"/>
<path d="M293.545 192.028C293.416 190.669 292.898 189.377 292.054 188.305C292.053 188.3 292.051 188.295 292.049 188.29C292.046 188.285 292.042 188.281 292.038 188.278C291.204 187.086 290.493 186.14 289.725 184.948C287.15 185.112 284.661 185.936 282.497 187.341C283.356 188.768 283.933 190.347 284.197 191.991C284.201 192.174 284.186 192.358 284.152 192.538C283.729 195.016 280.591 197.596 279.566 199.504C279.426 199.696 279.327 199.915 279.273 200.147C279.22 200.379 279.214 200.619 279.256 200.853C279.804 202.834 293.846 195.052 293.545 192.028Z" fill="#FF4F26"/>
<path d="M279.235 200.611C279.229 200.69 279.239 200.769 279.266 200.844C279.808 202.982 294.198 195.084 293.898 192.166V192.152C293.906 191.982 293.893 191.813 293.86 191.646C293.513 190.409 292.893 189.265 292.045 188.3C292.046 188.296 292.045 188.292 292.043 188.289C292.041 188.286 292.038 188.283 292.034 188.282C290.005 190.604 287.203 192.113 284.148 192.529C283.777 194.707 281.327 196.96 280.031 198.752C279.54 199.248 279.255 199.913 279.235 200.611V200.611Z" fill="#1CA0BF"/>
<path d="M279.235 200.612C279.229 200.691 279.239 200.77 279.266 200.845C279.808 202.983 294.198 195.085 293.898 192.167V192.153C293.906 191.983 293.893 191.813 293.86 191.647C292.74 193.264 291.308 194.64 289.648 195.696C286.507 197.959 282.978 199.625 279.235 200.612V200.612Z" fill="#072A33"/>
<path d="M311.446 89.495C311.446 89.495 298.465 116.859 294.446 119.277C290.427 121.695 281.94 122.458 281.94 122.458C281.94 122.458 295.105 122.258 297.13 120.616C304.271 114.82 311.446 89.495 311.446 89.495Z" fill="#072A33"/>
<path d="M249.613 123.091C249.713 123.791 250.475 124.391 250.875 123.742C250.88 123.735 250.885 123.728 250.891 123.721C250.891 124.468 251.723 125.205 252.164 124.521C253.074 123.107 254.012 121.568 255.572 121.078C256.872 120.672 258.445 121.248 259.796 121.447C260.887 121.62 261.996 121.651 263.096 121.539C267.145 121.099 271.147 120.305 275.058 119.166C275.168 119.105 275.265 119.022 275.341 118.922C275.417 118.822 275.472 118.707 275.501 118.584C275.53 118.462 275.533 118.335 275.509 118.211C275.486 118.087 275.437 117.97 275.366 117.866L270.788 110.943C270.71 110.793 270.584 110.673 270.429 110.605C270.274 110.537 270.1 110.524 269.937 110.569C269.825 110.567 269.714 110.598 269.621 110.66C265.563 113.1 260.9 114.348 256.166 114.26C254.623 114.185 253.08 114.423 251.631 114.96C250.182 115.497 248.857 116.321 247.736 117.384C247.047 118.022 247.922 119.595 248.615 118.952C249.8 117.839 251.259 117.06 252.843 116.693C252.843 116.747 252.832 116.793 252.837 116.849C251.029 118.089 249.556 119.758 248.55 121.705C248.105 122.53 249.098 123.719 249.613 123.091Z" fill="#FF4F26"/>
<path d="M250.806 118.76C250.768 118.759 250.73 118.748 250.698 118.728C250.676 118.714 250.656 118.695 250.641 118.674C250.626 118.652 250.615 118.628 250.61 118.602C250.604 118.576 250.603 118.55 250.608 118.524C250.613 118.498 250.623 118.473 250.637 118.451C251.261 117.779 251.963 117.183 252.729 116.677C252.773 116.648 252.826 116.637 252.878 116.647C252.929 116.657 252.975 116.687 253.005 116.73C253.034 116.774 253.046 116.827 253.037 116.879C253.027 116.931 252.998 116.977 252.955 117.007C252.231 117.48 251.566 118.037 250.975 118.667C250.957 118.695 250.932 118.719 250.902 118.735C250.873 118.751 250.84 118.76 250.806 118.76V118.76Z" fill="#072A33"/>
<path d="M249.614 123.292C249.582 123.292 249.55 123.284 249.522 123.27C249.498 123.258 249.477 123.242 249.46 123.221C249.443 123.201 249.43 123.178 249.422 123.153C249.414 123.128 249.411 123.102 249.413 123.075C249.415 123.049 249.423 123.023 249.435 123C250.499 121.009 252.006 119.29 253.841 117.975C253.885 117.946 253.94 117.936 253.992 117.947C254.044 117.958 254.089 117.989 254.118 118.034C254.147 118.079 254.157 118.133 254.146 118.185C254.135 118.237 254.103 118.282 254.059 118.311C252.289 119.595 250.831 121.259 249.791 123.182C249.774 123.215 249.749 123.242 249.718 123.262C249.687 123.281 249.651 123.292 249.614 123.292V123.292Z" fill="#072A33"/>
<path d="M250.894 123.92C250.859 123.92 250.824 123.91 250.794 123.893C250.771 123.88 250.751 123.862 250.735 123.841C250.719 123.82 250.708 123.796 250.701 123.77C250.694 123.745 250.693 123.718 250.697 123.692C250.7 123.666 250.709 123.641 250.723 123.618C250.801 123.486 252.652 120.371 254.591 119.536C254.64 119.515 254.695 119.514 254.744 119.534C254.794 119.554 254.834 119.592 254.855 119.641C254.876 119.69 254.877 119.745 254.857 119.795C254.837 119.844 254.799 119.884 254.75 119.905C252.932 120.689 251.087 123.79 251.069 123.822C251.051 123.852 251.025 123.877 250.994 123.895C250.964 123.912 250.929 123.921 250.894 123.92V123.92Z" fill="#072A33"/>
<path d="M310.518 84.881C298.687 82.794 288.584 98.799 284.478 107.441C280.372 116.083 292.004 120.612 294.415 119.15C296.826 117.688 317.689 86.148 310.518 84.881Z" fill="#188BA6"/>
<path d="M260.959 110.732C268.967 107.315 286.097 105.17 291.316 106.195C296.535 107.22 296.01 118.426 294.451 119.277C292.892 120.128 273.784 126.698 262.495 124.736C262.495 124.737 259.39 111.402 260.959 110.732Z" fill="#188BA6"/>
<path d="M66.2058 116.09C66.2058 116.09 80.5058 113.11 92.6268 121.247C104.748 129.384 108.467 149.537 108.467 149.537L69.8228 124.678L66.2058 116.09Z" fill="#BED0E2"/>
<path d="M134.778 139.449C134.692 141.298 134.67 143.162 134.678 145.01C134.678 145.062 134.678 145.11 134.678 145.164C134.667 147.664 134.708 150.164 134.695 152.652C134.707 155.822 134.537 158.99 134.185 162.14C133.318 169.467 130.213 184.074 129.919 186.609C129.896 186.9 129.893 187.034 129.937 186.987C137.471 187.703 145.55 187.731 150.649 189.713C153.702 181.821 159.499 153.765 157.003 144.232C156.355 141.78 135.02 134.259 134.778 139.449Z" fill="#1CA0BF"/>
<path d="M129.93 186.993C129.796 186.08 150.22 188.293 150.643 189.715C151.217 191.645 130.324 189.653 129.93 186.993Z" fill="#17171D"/>
<path d="M136.376 187.085C135.957 189.714 134.919 194.998 134.876 195.558C134.876 195.558 134.864 195.566 134.871 195.588C134.697 196.931 134.907 198.295 135.479 199.523C137.115 196.936 138.955 196.651 142.279 197.374C145.407 198.05 151.572 199.585 151.061 199.308C149.212 198.184 145.449 197.118 143.83 195.208C143.705 195.071 143.597 194.92 143.507 194.758C143.307 194.413 143.247 193.026 143.85 188.031C141.394 187.48 138.892 187.163 136.376 187.085V187.085Z" fill="#FF4F26"/>
<path d="M135.852 200.618C135.918 200.727 136.022 200.808 136.145 200.843C137.063 200.874 137.281 198.236 137.868 198.443C145.737 201.166 152.025 201.476 152.639 200.925C152.701 200.874 152.75 200.809 152.781 200.735C152.812 200.661 152.825 200.581 152.818 200.501C152.753 199.739 151.198 198.71 150.538 198.457C148.235 197.509 145.993 196.419 143.824 195.196C140.981 196.398 137.8 196.53 134.867 195.568C134.866 195.569 134.865 195.571 134.864 195.573C134.863 195.574 134.863 195.576 134.863 195.578C134.863 195.58 134.863 195.582 134.864 195.583C134.865 195.585 134.866 195.587 134.867 195.588C134.605 197.328 134.953 199.105 135.852 200.618Z" fill="#1CA0BF"/>
<path d="M143.236 194.177C144.814 196.264 148.572 197.596 148.572 197.596C148.572 197.596 145.772 198.776 134.872 195.56C134.873 195.559 141.886 192.39 143.236 194.177Z" fill="#FF4F26"/>
<path d="M136.146 200.843C137.064 200.874 137.282 198.236 137.869 198.443C145.738 201.166 152.026 201.476 152.64 200.925C152.702 200.874 152.751 200.809 152.782 200.735C152.813 200.661 152.826 200.581 152.819 200.501C148.541 201.08 144.76 199.671 140.746 198.541C137.7 197.685 137.494 196.976 136.355 200.087C136.289 200.188 136.064 200.835 136.146 200.843Z" fill="#072A33"/>
<path d="M157.254 145.385C156.047 135.478 123.248 125.413 118.389 123.427C114.956 122.027 109.689 123.552 105.859 124.194C98.659 125.405 95.152 129.746 96.059 140.116C96.651 146.767 105.524 148.49 111.659 150.516C119.228 153.022 140.927 154.523 141.499 154.655C148.3 156.225 158.331 154.205 157.254 145.385Z" fill="#1CA0BF"/>
<path d="M128.284 131.641C128.284 131.641 152.422 136.252 154.336 144.147C156.25 152.042 136.186 185.537 136.186 185.537L149.757 146.312L128.284 131.641Z" fill="#072A33"/>
<path d="M152.808 145.684C152.799 145.665 152.795 145.644 152.797 145.623C151.586 135.723 117.173 129.123 112.315 127.134C108.882 125.734 105.225 123.794 101.394 124.434C97.401 125.106 94.548 126.734 92.96 129.824C91.665 132.309 91.186 135.732 91.594 140.357C92.185 147.008 101.058 148.731 107.194 150.757C111.829 152.295 121.761 153.446 128.903 154.148C131.216 154.373 133.232 154.548 134.679 154.679C136.064 154.801 136.93 154.873 137.042 154.893C142.797 156.217 150.856 154.985 152.542 149.229C152.784 148.427 152.898 147.591 152.878 146.753C152.87 146.418 152.849 146.051 152.808 145.684Z" fill="#0F5566"/>
<path d="M152.871 147.207C152.522 140.778 133.556 134.146 131.816 139.041C131.197 140.787 130.634 142.563 130.103 144.333C130.085 144.382 130.077 144.433 130.058 144.481C129.321 146.869 128.634 149.274 127.899 151.651C126.988 154.688 125.905 157.67 124.653 160.583C121.696 167.342 114.48 180.417 113.463 182.758C113.357 183.029 113.314 183.158 113.371 183.124C120.371 185.998 128.093 188.372 132.397 191.749C137.611 185.086 148.833 159.983 152.028 150.662C152.315 149.88 152.561 149.083 152.765 148.275C152.777 148.205 152.799 148.135 152.81 148.065C152.872 147.783 152.892 147.494 152.871 147.207V147.207Z" fill="#0F5566"/>
<path d="M135.623 150.626C135.45 151.379 135.114 152.806 134.675 154.679C132.515 163.959 122.875 181.921 123.458 186.709C123.458 186.709 114.472 182.969 113.372 183.122C113.372 183.122 119.412 171.25 123.416 163.274C125.026 160.358 126.171 157.208 126.81 153.939C119.669 153.239 111.825 152.297 107.19 150.759C101.056 148.732 92.1849 147.009 91.5899 140.359C91.1829 135.734 91.6609 132.311 92.9559 129.826L95.919 127.962C95.919 127.962 103.03 142.03 115.673 144.577C121.473 145.747 126.359 146.177 129.853 146.726C133.983 147.375 136.172 148.201 135.623 150.626Z" fill="#1CA0BF"/>
<path d="M113.366 183.127C113.502 182.215 132.403 190.267 132.395 191.748C132.384 193.764 112.971 185.787 113.366 183.127Z" fill="#17171D"/>
<path d="M155.801 97.516C155.823 97.486 155.852 97.461 155.872 97.429C156.184 96.956 155.311 96.342 154.999 96.816C154.978 96.849 154.944 96.87 154.921 96.901C154.893 96.809 154.842 96.7258 154.772 96.6595C154.702 96.5932 154.617 96.5462 154.523 96.5229C154.43 96.4996 154.332 96.5009 154.24 96.5267C154.147 96.5525 154.063 96.6019 153.995 96.67C152.835 97.5861 151.464 98.1973 150.007 98.448C150.399 98.0173 150.852 97.6466 151.352 97.348C151.859 97.098 151.506 96.282 150.999 96.539C150.724 96.6795 150.457 96.8344 150.199 97.003C147.969 98.4822 146.114 100.46 144.78 102.779C144.528 103.126 144.297 103.487 144.086 103.861C144.056 103.933 144.047 104.012 144.058 104.09C144.069 104.167 144.1 104.24 144.149 104.301C144.831 105.07 145.6 105.759 146.439 106.353C146.773 106.481 147.117 106.579 147.469 106.643C148.011 105.434 148.622 104.256 149.299 103.117C151.676 102.453 153.918 101.376 155.922 99.934C156.322 99.618 155.91 98.922 155.506 99.049C155.501 99.0471 155.496 99.0447 155.491 99.042C155.497 99.0373 155.503 99.0323 155.508 99.027C155.779 98.8069 156.031 98.5651 156.262 98.304C156.506 97.989 156.114 97.535 155.801 97.516Z" fill="#FF4F26"/>
<path d="M150.584 99.509C150.552 99.5096 150.522 99.4986 150.498 99.4779C150.474 99.4572 150.459 99.4284 150.455 99.3971C150.452 99.3658 150.46 99.3342 150.478 99.3085C150.496 99.2828 150.523 99.2648 150.554 99.258C152.138 98.7543 153.597 97.9191 154.834 96.808C154.859 96.7888 154.891 96.7797 154.923 96.7825C154.954 96.7853 154.984 96.7998 155.005 96.8231C155.027 96.8464 155.039 96.8769 155.039 96.9087C155.04 96.9405 155.028 96.9712 155.007 96.995C153.743 98.1415 152.243 98.9981 150.613 99.505C150.604 99.5073 150.594 99.5086 150.584 99.509V99.509Z" fill="#2A2B3C"/>
<path d="M151.13 100.535C151.096 100.538 151.063 100.528 151.037 100.506C151.011 100.485 150.995 100.454 150.992 100.421C150.988 100.387 150.999 100.354 151.02 100.328C151.042 100.302 151.072 100.285 151.106 100.282C152.943 99.923 155.688 97.447 155.716 97.421C155.742 97.4019 155.773 97.3931 155.805 97.3961C155.837 97.3992 155.866 97.414 155.888 97.4377C155.909 97.4613 155.921 97.4921 155.921 97.5239C155.921 97.5558 155.909 97.5865 155.887 97.61C155.773 97.71 153.062 100.159 151.155 100.532L151.13 100.535Z" fill="#2A2B3C"/>
<path d="M151.665 101.337C151.634 101.338 151.603 101.327 151.58 101.306C151.556 101.286 151.541 101.258 151.537 101.227C151.532 101.196 151.54 101.165 151.557 101.139C151.574 101.113 151.601 101.095 151.631 101.087C152.983 100.538 154.259 99.8211 155.431 98.952C155.444 98.9418 155.459 98.9344 155.476 98.9302C155.492 98.926 155.509 98.9252 155.525 98.9277C155.542 98.9302 155.558 98.9361 155.572 98.9449C155.586 98.9537 155.598 98.9653 155.608 98.979C155.618 98.9924 155.625 99.0077 155.629 99.0239C155.633 99.04 155.633 99.0569 155.631 99.0733C155.628 99.0898 155.622 99.1056 155.614 99.1198C155.605 99.134 155.593 99.1463 155.58 99.156C154.388 100.047 153.085 100.778 151.703 101.331C151.691 101.335 151.678 101.337 151.665 101.337V101.337Z" fill="#2A2B3C"/>
<path d="M108.583 87.958C111.41 85.822 123.664 101.706 134.36 109.752C142.005 115.504 128.76 124.766 126.331 123.334C123.902 121.902 102.774 92.346 108.583 87.958Z" fill="#8DCEDE"/>
<path d="M145.199 98.695C137.399 102.069 130.694 108.976 126.408 112.125C122.122 115.274 125.265 123.316 127.039 123.425C128.813 123.534 144.09 119.116 150.518 113.025C150.518 113.02 146.765 98.019 145.199 98.695Z" fill="#8DCEDE"/>
<path d="M112.51 91.421C112.51 91.421 125.583 116.121 129.776 118.042C133.969 119.963 150.517 113.019 150.517 113.019C150.517 113.019 146.771 116.624 137.83 120.554C129.777 124.095 127.018 124.097 126.33 123.333C110.385 105.603 114.335 107.581 112.51 91.421Z" fill="#82BDCC"/>
<path d="M84.6599 131.743C84.6599 131.743 89.3069 92.196 98.1889 88.399C105.446 85.299 112.211 87.368 113.566 95.048C114.81 102.095 117.137 111.284 118.591 114.929C120.002 118.464 124.44 125.429 124.44 125.429C124.44 125.429 102.731 135.211 84.6599 131.743Z" fill="#1CA0BF"/>
<path d="M106.87 89.112L105.984 86.725L103.484 86.893L101.025 87.369L106.87 89.112Z" fill="#FFD357"/>
<path d="M106.87 89.112L107.61 86.612L108.673 88.081L106.87 89.112Z" fill="#FFD357"/>
<path d="M99.1379 90.815C99.1379 90.815 106.912 102.33 108.71 113.767C110.508 125.204 118.591 127.678 118.591 127.678C118.591 127.678 102.475 134.878 84.6589 131.742C84.6599 131.744 89.3409 98.833 99.1379 90.815Z" fill="#188BA6"/>
<path d="M113.948 136.432C113.456 135.027 112.668 133.744 111.638 132.67C111.644 132.64 111.648 132.61 111.651 132.58C112.655 133.156 113.529 133.934 114.217 134.865C114.607 135.394 115.369 134.716 114.982 134.192C113.669 132.407 111.823 131.084 109.71 130.414C106.505 129.31 103.58 127.521 101.138 125.17C101.082 125.113 101.013 125.07 100.938 125.044C100.849 124.98 100.742 124.947 100.632 124.948C100.523 124.95 100.416 124.986 100.329 125.052L96.487 127.857C96.4286 127.909 96.383 127.974 96.3536 128.047C96.3241 128.119 96.3117 128.197 96.3172 128.275C96.3227 128.354 96.346 128.429 96.3853 128.497C96.4246 128.565 96.4789 128.623 96.544 128.666C99.0172 130.239 101.594 131.642 104.258 132.866C104.969 133.189 105.711 133.437 106.473 133.606C107.466 133.705 108.435 133.975 109.335 134.406C110.218 135.122 110.873 136.08 111.22 137.163C111.268 137.257 111.344 137.334 111.438 137.382C111.532 137.43 111.639 137.448 111.744 137.431C111.848 137.415 111.945 137.365 112.02 137.291C112.094 137.216 112.144 137.119 112.16 137.015C112.16 137.02 112.165 137.025 112.168 137.031C112.21 137.121 112.279 137.195 112.365 137.245C112.45 137.295 112.549 137.319 112.648 137.312C112.747 137.305 112.841 137.268 112.919 137.207C112.997 137.145 113.054 137.062 113.084 136.967C113.356 137.44 114.153 137.009 113.948 136.432Z" fill="#FF4F26"/>
<path d="M112.802 134.251C112.777 134.251 112.753 134.244 112.733 134.23C112.712 134.217 112.696 134.198 112.686 134.175C112.353 133.666 111.971 133.191 111.546 132.757C111.527 132.732 111.517 132.701 111.52 132.669C111.522 132.637 111.537 132.608 111.56 132.586C111.583 132.564 111.613 132.552 111.645 132.551C111.676 132.55 111.707 132.561 111.731 132.582C112.175 133.039 112.573 133.538 112.919 134.073C112.926 134.088 112.93 134.105 112.93 134.121C112.93 134.138 112.927 134.155 112.921 134.17C112.915 134.186 112.906 134.2 112.895 134.212C112.883 134.224 112.869 134.233 112.854 134.24C112.838 134.247 112.82 134.251 112.802 134.251Z" fill="#2A2B3C"/>
<path d="M113.083 137.09C113.056 137.09 113.03 137.082 113.008 137.066C112.987 137.05 112.971 137.028 112.963 137.002C112.453 135.603 111.672 134.32 110.663 133.225C110.643 133.2 110.633 133.169 110.635 133.138C110.637 133.106 110.651 133.076 110.673 133.054C110.695 133.032 110.725 133.019 110.757 133.017C110.789 133.016 110.82 133.026 110.844 133.046C111.879 134.167 112.68 135.484 113.201 136.918C113.206 136.934 113.209 136.95 113.207 136.967C113.206 136.983 113.202 137 113.195 137.014C113.187 137.029 113.177 137.043 113.165 137.053C113.152 137.064 113.138 137.073 113.122 137.078C113.11 137.085 113.097 137.089 113.083 137.09V137.09Z" fill="#2A2B3C"/>
<path d="M112.158 137.14C112.133 137.14 112.108 137.133 112.087 137.118C112.065 137.104 112.049 137.084 112.04 137.06C111.584 135.899 110.895 134.844 110.015 133.96C109.992 133.938 109.978 133.908 109.976 133.876C109.973 133.845 109.983 133.813 110.003 133.788C110.023 133.763 110.051 133.746 110.082 133.741C110.114 133.736 110.146 133.743 110.173 133.76C111.092 134.67 111.808 135.764 112.273 136.971C112.285 137.002 112.285 137.037 112.271 137.068C112.258 137.099 112.233 137.123 112.202 137.136C112.188 137.14 112.173 137.141 112.158 137.14Z" fill="#2A2B3C"/>
<path d="M98.38 91.289C101.665 92.616 99.01 113.165 93.806 121.189C88.602 129.213 77.188 127.52 77.168 124.7C77.148 121.88 91.628 88.564 98.38 91.289Z" fill="#8DCEDE"/>
<path d="M108.001 128.215C101.101 123.262 91.724 121.062 86.82 119.005C81.916 116.948 76.634 123.781 77.455 125.357C78.276 126.933 89.919 137.765 98.455 140.143C98.451 140.143 109.39 129.209 108.001 128.215Z" fill="#8DCEDE"/>
<path d="M87.6039 101.706C87.6039 101.706 81.9849 118.047 82.4939 122.631C83.0029 127.215 98.4499 140.141 98.4499 140.141C98.4499 140.141 93.4309 138.782 85.4629 133.135C78.2849 128.049 76.9629 125.709 77.1629 124.701C77.3629 123.693 79.7229 114.611 87.6039 101.706Z" fill="#82BDCC"/>
<path d="M118.825 184.829C118.086 186.421 117.259 187.97 116.348 189.47C116.348 189.47 116.333 189.47 116.328 189.492C115.503 190.566 115 191.852 114.877 193.201C117.591 191.785 119.326 192.462 121.841 194.759C124.206 196.916 128.766 201.338 128.464 200.843C127.428 198.943 124.711 196.129 124.272 193.664C124.232 193.483 124.214 193.298 124.217 193.113C124.674 191.343 125.283 189.616 126.036 187.95C125.714 187.746 121.079 185.633 118.825 184.829Z" fill="#FF4F26"/>
<path d="M114.653 194.337C114.655 194.464 114.705 194.586 114.794 194.678C115.573 195.166 117.085 192.995 117.494 193.467C122.931 199.773 128.214 203.199 129.021 203.031C129.1 203.019 129.175 202.987 129.239 202.939C129.304 202.891 129.355 202.828 129.389 202.755C129.714 202.062 128.889 200.394 128.443 199.844C126.928 197.868 125.536 195.801 124.274 193.655C121.212 193.267 118.394 191.782 116.341 189.477C116.339 189.478 116.338 189.478 116.336 189.48C116.335 189.481 116.334 189.482 116.333 189.484C116.332 189.486 116.331 189.488 116.331 189.489C116.331 189.491 116.331 189.493 116.332 189.495C115.229 190.866 114.635 192.577 114.653 194.337V194.337Z" fill="#1CA0BF"/>
<path d="M124.272 192.475C124.589 195.075 127.172 198.112 127.172 198.112C127.172 198.112 124.155 197.724 116.348 189.471C116.346 189.471 124.006 190.255 124.272 192.475Z" fill="#FF4F26"/>
<path d="M114.794 194.679C115.573 195.167 117.085 192.996 117.494 193.468C122.931 199.774 128.214 203.2 129.021 203.032C129.1 203.02 129.175 202.988 129.24 202.94C129.304 202.892 129.355 202.829 129.389 202.756C125.399 201.109 122.836 197.989 119.933 194.999C117.733 192.729 117.906 192.013 115.36 194.131C115.246 194.184 114.727 194.631 114.794 194.679Z" fill="#072A33"/>
<path d="M114.267 86.195C112.895 85.5218 111.682 84.5625 110.712 83.3816C109.741 82.2007 109.035 80.8257 108.64 79.349C108.64 79.349 108.64 79.349 108.64 79.349C108.882 78.199 109.398 76.478 108.373 75.778C107.559 75.222 107.573 74.692 106.857 75.151C104.568 76.625 103.809 80.326 103.45 82.975C103.233 84.575 103.265 89.066 103.955 89.588C105.168 90.508 112.742 88.208 114.261 87.076C114.337 87.0304 114.4 86.9662 114.443 86.8893C114.487 86.8125 114.511 86.7256 114.511 86.6372C114.512 86.5487 114.49 86.4616 114.447 86.3841C114.404 86.3067 114.342 86.2416 114.267 86.195V86.195Z" fill="#072A33"/>
<path d="M105.434 75.065C105.404 75.0807 105.376 75.0991 105.349 75.12C102.721 74.677 101 77.695 101.706 80.269C101.974 81.244 103.206 82.889 104.306 81.808C104.854 81.271 104.877 80.108 104.957 79.408C104.995 79.0567 105.009 78.7032 104.999 78.35C105.205 78.3862 105.413 78.4042 105.622 78.404C107.085 78.6156 108.559 78.7425 110.037 78.784C110.171 78.7822 110.3 78.728 110.395 78.6329C110.49 78.5378 110.544 78.4094 110.546 78.275C110.618 75.842 107.534 74.234 105.434 75.065Z" fill="#072A33"/>
<path d="M108.33 87.78C107.168 86.7867 106.232 85.5564 105.585 84.1715C104.938 82.7867 104.594 81.2795 104.578 79.751V79.751C105.1 78.698 106.026 77.158 105.208 76.226C104.557 75.484 104.7 74.974 103.895 75.242C101.312 76.102 99.6569 79.497 98.6519 81.974C98.0439 83.474 96.9599 87.826 97.4989 88.505C98.4449 89.698 106.353 89.352 108.106 88.633C108.191 88.6077 108.268 88.561 108.329 88.4973C108.391 88.4337 108.435 88.3552 108.458 88.2695C108.48 88.1838 108.48 88.0937 108.458 88.008C108.436 87.9223 108.391 87.8437 108.33 87.78V87.78Z" fill="#072A33"/>
<path d="M108.919 82.886C108.919 82.886 107.94 86.65 107.865 87.569C107.677 88.1638 107.331 88.6967 106.865 89.111C105.085 88.011 103.699 88.389 103.128 87.889C103.752 86.3702 104.23 84.7955 104.555 83.186C104.829 81.153 108.919 82.886 108.919 82.886Z" fill="#F24B24"/>
<path d="M102.874 79.915C102.874 79.915 104.914 85.121 108.344 84.524C111.774 83.927 108.106 76.913 107.551 76.814C106.996 76.715 103.524 76.675 102.874 79.915Z" fill="#F24B24"/>
<path d="M104.834 80.537C104.643 80.2976 104.388 80.1182 104.098 80.0203C103.808 79.9224 103.496 79.9101 103.199 79.985C102.285 80.32 102.531 82.61 104.166 82.477C105.801 82.344 104.834 80.537 104.834 80.537Z" fill="#F24B24"/>
<path d="M104.516 82.009C104.33 81.874 104.09 82.144 104.28 82.281C104.572 82.494 105.014 83.169 104.539 83.428C104.113 83.659 103.331 83.181 103.681 82.684C103.814 82.495 103.543 82.256 103.409 82.447C102.89 83.181 103.7 83.983 104.481 83.825C105.445 83.627 105.105 82.435 104.516 82.009Z" fill="#FFD357"/>
<path d="M78.6594 145.592L77.6567 145.411L67.4643 201.756L68.467 201.937L78.6594 145.592Z" fill="#072A33"/>
<path d="M112.445 201.746L102.258 145.398L101.255 145.579L111.442 201.927L112.445 201.746Z" fill="#072A33"/>
<path d="M103.485 201.746L93.2979 145.398L92.2951 145.579L102.482 201.927L103.485 201.746Z" fill="#072A33"/>
<path d="M105.831 166.816H74.2197V167.835H105.831V166.816Z" fill="#072A33"/>
<path d="M66.2059 116.09C66.2059 116.09 89.8159 131.49 108.121 151.043C108.121 151.043 86.5439 153.605 75.6969 144.343C64.8499 135.081 66.2059 116.09 66.2059 116.09Z" fill="#FF4F26"/>
<path d="M264.554 125.103H120.578V127.82H264.554V125.103Z" fill="#072A33"/>
<path d="M120.748 202.356C120.725 202.356 120.702 202.355 120.679 202.351C120.612 202.342 120.549 202.32 120.491 202.286C120.433 202.253 120.382 202.208 120.342 202.154C120.301 202.101 120.272 202.04 120.255 201.976C120.238 201.911 120.234 201.843 120.243 201.777L130.43 126.39C130.439 126.324 130.461 126.26 130.495 126.202C130.528 126.144 130.573 126.094 130.627 126.053C130.68 126.013 130.741 125.983 130.805 125.966C130.87 125.949 130.938 125.945 131.004 125.954C131.07 125.963 131.134 125.985 131.192 126.019C131.25 126.053 131.3 126.097 131.341 126.151C131.381 126.204 131.411 126.265 131.428 126.329C131.445 126.394 131.449 126.462 131.44 126.528L121.253 201.912C121.237 202.035 121.177 202.147 121.084 202.229C120.991 202.311 120.872 202.356 120.748 202.356V202.356Z" fill="#072A33"/>
<path d="M164.697 202.356C164.574 202.355 164.456 202.31 164.364 202.229C164.272 202.148 164.213 202.036 164.197 201.915L154.01 126.531C154.001 126.465 154.005 126.397 154.022 126.332C154.039 126.268 154.068 126.207 154.109 126.154C154.149 126.1 154.2 126.056 154.258 126.022C154.316 125.988 154.38 125.966 154.446 125.957C154.512 125.948 154.58 125.952 154.644 125.969C154.709 125.986 154.77 126.016 154.823 126.056C154.876 126.097 154.921 126.147 154.955 126.205C154.989 126.263 155.011 126.327 155.02 126.393L165.207 201.777C165.216 201.843 165.212 201.911 165.195 201.976C165.178 202.04 165.148 202.101 165.108 202.154C165.067 202.208 165.017 202.253 164.959 202.286C164.901 202.32 164.837 202.342 164.771 202.351C164.746 202.355 164.722 202.357 164.697 202.356V202.356Z" fill="#072A33"/>
<path d="M213.912 202.356C213.889 202.356 213.866 202.355 213.843 202.351C213.777 202.342 213.713 202.32 213.655 202.286C213.597 202.253 213.546 202.208 213.506 202.154C213.465 202.101 213.436 202.04 213.419 201.976C213.402 201.911 213.398 201.843 213.407 201.777L223.594 126.39C223.602 126.323 223.623 126.259 223.656 126.2C223.689 126.142 223.734 126.091 223.788 126.05C223.841 126.01 223.902 125.98 223.967 125.963C224.033 125.947 224.1 125.944 224.167 125.954C224.233 125.963 224.297 125.985 224.355 126.019C224.413 126.052 224.463 126.097 224.504 126.151C224.544 126.204 224.574 126.265 224.591 126.329C224.608 126.394 224.612 126.462 224.603 126.528L214.416 201.912C214.4 202.035 214.34 202.147 214.248 202.229C214.155 202.311 214.035 202.356 213.912 202.356V202.356Z" fill="#072A33"/>
<path d="M257.864 202.356C257.741 202.355 257.623 202.31 257.531 202.229C257.44 202.148 257.38 202.036 257.364 201.915L247.177 126.531C247.168 126.465 247.172 126.397 247.189 126.332C247.206 126.268 247.235 126.207 247.276 126.154C247.316 126.1 247.367 126.055 247.425 126.022C247.483 125.988 247.547 125.966 247.613 125.957C247.679 125.947 247.747 125.95 247.813 125.966C247.878 125.983 247.939 126.012 247.993 126.053C248.046 126.094 248.091 126.145 248.124 126.203C248.158 126.262 248.179 126.326 248.187 126.393L258.374 201.777C258.383 201.843 258.379 201.911 258.362 201.976C258.345 202.04 258.316 202.101 258.275 202.154C258.235 202.208 258.184 202.253 258.126 202.286C258.068 202.32 258.004 202.342 257.938 202.351C257.913 202.355 257.889 202.357 257.864 202.356V202.356Z" fill="#072A33"/>
<path d="M181.472 121.711H152.933L160.066 103.07H188.606L181.472 121.711Z" fill="#AFC5CC"/>
<path d="M178.638 121.711H154.92L161.62 104.152H185.339L178.638 121.711Z" fill="white"/>
<path d="M170.153 114.893H159.192L162.126 107.205H173.092L170.153 114.893Z" fill="#E4EAEF"/>
<path d="M180.739 111.045H172.908L174.375 107.201H182.206L180.739 111.045Z" fill="#E4EAEF"/>
<path d="M181.472 121.711H127.978V125.1H181.472V121.711Z" fill="#E4EAEF"/>
<path d="M180.51 112.135H172.59V112.644H180.51V112.135Z" fill="#C4CFD9"/>
<path d="M179.873 113.899H171.953V114.408H179.873V113.899Z" fill="#C4CFD9"/>
<path d="M179.02 116.631H158.732V117.14H179.02V116.631Z" fill="#C4CFD9"/>
<path d="M178.086 119.044H157.797V119.553H178.086V119.044Z" fill="#C4CFD9"/>
<path d="M184.368 121.711H180.511L187.644 103.069H191.5L184.368 121.711Z" fill="#AFC5CC"/>
<path d="M184.366 121.711H143.214V125.1H184.366V121.711Z" fill="#AFC5CC"/>
<path d="M30.0669 174.807C29.3199 172.082 28.7469 168.176 26.8519 165.953C23.5169 162.039 11.8289 171.765 12.4639 171.593C14.8095 170.806 17.1996 170.158 19.6219 169.654C23.4059 169.111 24.7479 171.764 26.1219 174.668C27.9789 178.584 29.0349 182.787 31.5219 186.396C31.5866 186.499 31.6857 186.575 31.8015 186.612C31.9174 186.648 32.0424 186.642 32.1543 186.595C32.2662 186.548 32.3577 186.462 32.4124 186.354C32.467 186.245 32.4814 186.121 32.4529 186.003C31.865 182.23 31.0684 178.492 30.0669 174.807V174.807Z" fill="#20B6D9"/>
<path d="M35.7908 171.394C35.6768 167.67 35.9718 162.394 34.1028 159.022C32.4398 156.027 27.9298 155.322 24.9408 154.497C20.4158 153.249 10.4408 152.879 10.9898 153.025C14.4688 153.953 17.9768 154.808 21.4328 155.825C25.5408 157.034 28.2458 159.125 29.4478 163.363C31.4998 170.61 32.4228 178.347 33.8478 185.745C33.8587 185.821 33.8903 185.892 33.939 185.95C33.9877 186.009 34.0516 186.053 34.1238 186.078C34.1936 186.156 34.2842 186.212 34.3851 186.24C34.4859 186.268 34.5927 186.267 34.6927 186.236C34.7927 186.205 34.8818 186.146 34.9493 186.066C35.0169 185.986 35.0601 185.889 35.0738 185.785C35.6874 181.014 35.9271 176.202 35.7908 171.394V171.394Z" fill="#20B6D9"/>
<path d="M54.4819 146.899C49.4199 150.651 44.6909 155.148 42.2259 161.065C39.3319 168.008 40.0259 175.815 37.4259 182.853C37.3984 182.918 37.3875 182.988 37.3943 183.058C37.4011 183.128 37.4254 183.195 37.4649 183.253L37.4529 183.283C37.2259 183.898 38.2109 184.164 38.4359 183.554C40.8559 176.97 42.9569 170.132 45.8869 163.754C48.4949 158.078 52.6869 153.385 55.1789 147.595C55.3559 147.193 54.9439 146.557 54.4819 146.899Z" fill="#20B6D9"/>
<path d="M22.2258 136.842C29.4538 152.083 35.5908 167.173 34.5358 183.125C34.5299 183.197 34.5442 183.27 34.5772 183.335C34.6103 183.399 34.6607 183.453 34.7228 183.491C34.5758 183.963 34.4508 184.436 34.2878 184.905C34.0668 185.541 35.4428 185.827 35.6078 185.176C43.0428 155.856 21.9248 136.203 22.2258 136.842Z" fill="#105D6F"/>
<path d="M59.3558 181.383C57.4728 176.276 54.8738 172.861 48.9998 173.556C43.5078 174.207 40.4288 177.398 37.5318 181.802C37.4945 181.845 37.4659 181.895 37.4478 181.949C37.1858 182.461 37.9478 182.902 38.3148 182.449C41.3558 179.967 44.4238 177.658 48.5258 177.659C51.9978 177.659 56.5958 178.491 58.4258 181.782C58.6948 182.268 59.5558 181.935 59.3558 181.383Z" fill="#105D6F"/>
<path d="M40.5777 200.998H29.3487L26.1177 181.407H43.8067L40.5777 200.998Z" fill="#BED0E2"/>
<defs>
<linearGradient id="paint0_linear_1_1507" x1="199.157" y1="115.604" x2="199.157" y2="34.409" gradientUnits="userSpaceOnUse">
<stop stop-color="white" stop-opacity="0"/>
<stop offset="1" stop-color="#F8CB3D"/>
</linearGradient>
<linearGradient id="paint1_linear_1_1507" x1="199.639" y1="21.992" x2="199.639" y2="0.164001" gradientUnits="userSpaceOnUse">
<stop stop-color="#1CA0BF"/>
<stop offset="1" stop-color="white" stop-opacity="0"/>
</linearGradient>
</defs>
</svg>
