<svg width="375" height="379" viewBox="0 0 375 379" fill="none" xmlns="http://www.w3.org/2000/svg">
<path d="M321.834 106.196H121.835V191.994H321.834V106.196Z" fill="white" stroke="#0F5566" stroke-linecap="round" stroke-linejoin="round"/>
<path d="M327.276 103.778H116.401V107.401H327.276V103.778Z" fill="white" stroke="#0F5566" stroke-linecap="round" stroke-linejoin="round"/>
<path d="M321.834 188.969H121.835V191.994H321.834V188.969Z" fill="#0F5566" stroke="#0F5566" stroke-linecap="round" stroke-linejoin="round"/>
<path d="M165.566 137.642C166.843 130.169 161.821 123.076 154.348 121.798C146.875 120.521 139.781 125.544 138.504 133.017C137.226 140.49 142.249 147.583 149.722 148.861C157.195 150.138 164.289 145.115 165.566 137.642Z" stroke="#0F5566" stroke-miterlimit="10"/>
<path d="M151.784 117.611V156.55" stroke="#0F5566" stroke-miterlimit="10"/>
<path d="M133.812 135.583H169.256" stroke="#0F5566" stroke-miterlimit="10"/>
<path d="M207.884 138.919H243.328" stroke="#0F5566" stroke-miterlimit="10"/>
<path d="M225.355 120.454V159.392" stroke="#0F5566" stroke-miterlimit="10"/>
<path d="M212.379 125.441L217.76 129.626C220.09 131.438 222.949 132.438 225.9 132.472C228.851 132.507 231.732 131.573 234.103 129.815L239.341 125.942" stroke="#0F5566" stroke-miterlimit="10"/>
<path d="M239.318 150.562L233.936 146.377C231.605 144.566 228.745 143.568 225.793 143.533C222.841 143.499 219.959 144.431 217.586 146.188L212.356 150.061" stroke="#0F5566" stroke-miterlimit="10"/>
<path d="M288.944 120.075V152.767" stroke="#0F5566" stroke-miterlimit="10"/>
<path d="M271.381 136.66H304.567" stroke="#0F5566" stroke-miterlimit="10"/>
<path d="M273.511 135.356V138.009" stroke="#0F5566" stroke-miterlimit="10"/>
<path d="M275.437 135.356V138.009" stroke="#0F5566" stroke-miterlimit="10"/>
<path d="M277.37 135.356V138.009" stroke="#0F5566" stroke-miterlimit="10"/>
<path d="M279.295 135.356V138.009" stroke="#0F5566" stroke-miterlimit="10"/>
<path d="M281.228 135.356V138.009" stroke="#0F5566" stroke-miterlimit="10"/>
<path d="M283.153 135.356V138.009" stroke="#0F5566" stroke-miterlimit="10"/>
<path d="M285.078 135.356V138.009" stroke="#0F5566" stroke-miterlimit="10"/>
<path d="M287.011 135.356V138.009" stroke="#0F5566" stroke-miterlimit="10"/>
<path d="M290.862 135.356V138.009" stroke="#0F5566" stroke-miterlimit="10"/>
<path d="M292.795 135.356V138.009" stroke="#0F5566" stroke-miterlimit="10"/>
<path d="M294.72 135.356V138.009" stroke="#0F5566" stroke-miterlimit="10"/>
<path d="M296.653 135.356V138.009" stroke="#0F5566" stroke-miterlimit="10"/>
<path d="M298.578 135.356V138.009" stroke="#0F5566" stroke-miterlimit="10"/>
<path d="M300.504 135.356V138.009" stroke="#0F5566" stroke-miterlimit="10"/>
<path d="M302.437 135.356V138.009" stroke="#0F5566" stroke-miterlimit="10"/>
<path d="M287.618 151.145H290.271" stroke="#0F5566" stroke-miterlimit="10"/>
<path d="M287.618 149.212H290.271" stroke="#0F5566" stroke-miterlimit="10"/>
<path d="M287.618 147.287H290.271" stroke="#0F5566" stroke-miterlimit="10"/>
<path d="M287.618 145.354H290.271" stroke="#0F5566" stroke-miterlimit="10"/>
<path d="M287.618 143.429H290.271" stroke="#0F5566" stroke-miterlimit="10"/>
<path d="M287.618 141.503H290.271" stroke="#0F5566" stroke-miterlimit="10"/>
<path d="M287.618 139.571H290.271" stroke="#0F5566" stroke-miterlimit="10"/>
<path d="M287.618 133.787H290.271" stroke="#0F5566" stroke-miterlimit="10"/>
<path d="M287.618 131.862H290.271" stroke="#0F5566" stroke-miterlimit="10"/>
<path d="M287.618 129.929H290.271" stroke="#0F5566" stroke-miterlimit="10"/>
<path d="M287.618 128.003H290.271" stroke="#0F5566" stroke-miterlimit="10"/>
<path d="M287.618 126.078H290.271" stroke="#0F5566" stroke-miterlimit="10"/>
<path d="M287.618 124.145H290.271" stroke="#0F5566" stroke-miterlimit="10"/>
<path d="M287.618 122.22H290.271" stroke="#0F5566" stroke-miterlimit="10"/>
<path d="M136.215 164.486H166.489" stroke="#0F5566" stroke-miterlimit="10"/>
<path d="M136.215 168.215H166.489" stroke="#0F5566" stroke-miterlimit="10"/>
<path d="M136.215 171.945H166.489" stroke="#0F5566" stroke-miterlimit="10"/>
<path d="M136.215 175.682H166.489" stroke="#0F5566" stroke-miterlimit="10"/>
<path d="M212.932 164.486H243.206" stroke="#0F5566" stroke-miterlimit="10"/>
<path d="M212.932 168.215H243.206" stroke="#0F5566" stroke-miterlimit="10"/>
<path d="M212.932 171.945H243.206" stroke="#0F5566" stroke-miterlimit="10"/>
<path d="M212.932 175.682H243.206" stroke="#0F5566" stroke-miterlimit="10"/>
<path d="M275.55 164.486H305.825" stroke="#0F5566" stroke-miterlimit="10"/>
<path d="M275.55 168.215H305.825" stroke="#0F5566" stroke-miterlimit="10"/>
<path d="M275.55 171.945H305.825" stroke="#0F5566" stroke-miterlimit="10"/>
<path d="M275.55 175.682H305.825" stroke="#0F5566" stroke-miterlimit="10"/>
<path d="M173.956 144.581H204.223" stroke="#0F5566" stroke-miterlimit="10"/>
<path d="M173.956 148.31H204.223" stroke="#0F5566" stroke-miterlimit="10"/>
<path d="M173.956 152.04H204.223" stroke="#0F5566" stroke-miterlimit="10"/>
<path d="M173.956 155.777H204.223" stroke="#0F5566" stroke-miterlimit="10"/>
<path d="M241.963 116.793H272.23" stroke="#0F5566" stroke-miterlimit="10"/>
<path d="M241.963 120.53H272.23" stroke="#0F5566" stroke-miterlimit="10"/>
<path d="M241.963 124.259H272.23" stroke="#0F5566" stroke-miterlimit="10"/>
<path d="M241.963 127.988H272.23" stroke="#0F5566" stroke-miterlimit="10"/>
<path d="M67.6767 191.774H28.6321V224.573H67.6767V191.774Z" fill="#0F5566" stroke="#0F5566" stroke-linecap="round" stroke-linejoin="round"/>
<path d="M91.3717 228.742H52.3271V230.826H91.3717V228.742Z" fill="#0F5566" stroke="#0F5566" stroke-linecap="round" stroke-linejoin="round"/>
<path d="M50.7655 215.461H43.2158V230.561H50.7655V215.461Z" fill="#707070" stroke="#0F5566" stroke-linecap="round" stroke-linejoin="round"/>
<path d="M128.339 233.805H24.2129V303.079H128.339V233.805Z" fill="#0F5566" stroke="#0F5566" stroke-linecap="round" stroke-linejoin="round"/>
<path d="M25.9182 234.305H22.4087V304.716H25.9182V234.305Z" fill="#707070" stroke="#0F5566" stroke-linecap="round" stroke-linejoin="round"/>
<path d="M129.757 234.305H126.247V304.716H129.757V234.305Z" fill="#707070" stroke="#0F5566" stroke-linecap="round" stroke-linejoin="round"/>
<path d="M134.691 230.106H19.4753V236.723H134.691V230.106Z" fill="#707070" stroke="#0F5566" stroke-linecap="round" stroke-linejoin="round"/>
<path d="M186.743 166.047C186.743 166.047 182.559 168.647 181.202 172.043C179.845 175.439 174.191 192.987 172.72 195.253C171.25 197.52 171.25 201.022 172.948 202.947C174.646 204.872 177.496 206.108 179.845 203.849C182.195 201.59 182.877 197.065 185.151 191.721C187.425 186.377 189.343 171.338 190.457 168.284C191.136 166.46 191.591 164.562 191.814 162.629L186.743 166.047Z" fill="white" stroke="#0F5566" stroke-linecap="round" stroke-linejoin="round"/>
<path d="M220.906 210.178C220.906 210.178 221.581 219.176 221.24 223.754C220.899 228.332 217.851 257.212 217.851 257.212L213.44 296.173H206.656L201.729 238.717L195.119 296.007H188.161C188.161 296.007 184.09 259.926 182.9 251.285C182.188 245.88 182.018 240.418 182.392 234.98C182.392 234.472 180.876 222.935 180.876 219.714C180.899 217.519 181.051 215.327 181.331 213.15L181.051 211.906C181.051 211.906 193.603 215.302 202.275 213.263C210.946 211.224 219.405 208.518 219.405 208.518L220.906 210.178Z" fill="#0F5566" stroke="#0F5566" stroke-linecap="round" stroke-linejoin="round"/>
<path d="M213.44 296.173L215.471 303.132C215.542 303.242 215.59 303.365 215.611 303.494C215.633 303.623 215.628 303.755 215.596 303.882C215.565 304.009 215.508 304.128 215.43 304.232C215.351 304.337 215.252 304.424 215.138 304.489C214.289 304.996 204.784 304.489 204.784 304.489C204.516 304.35 204.303 304.125 204.18 303.849C204.057 303.574 204.032 303.264 204.109 302.973C204.276 301.783 206.656 296.151 206.656 296.151L213.44 296.173Z" stroke="#0F5566" stroke-linecap="round" stroke-linejoin="round"/>
<path d="M195.119 296.007L195.733 302.351C195.77 302.746 195.665 303.141 195.437 303.465C195.285 303.677 195.085 303.849 194.853 303.968C194.621 304.087 194.364 304.148 194.103 304.148H180.952C179.618 304.148 177.041 304.102 177.291 302.791C177.458 301.942 188.145 296.029 188.145 296.029L195.119 296.007Z" stroke="#0F5566" stroke-linecap="round" stroke-linejoin="round"/>
<path d="M201.729 238.717L200.038 231.561L193.929 227.317" stroke="#6B6B6B" stroke-linecap="round" stroke-linejoin="round"/>
<path d="M184.371 174.757V187.984C184.371 188.742 180.3 206.176 179.959 207.889C179.618 209.602 179.959 211.171 181.316 213.089C182.673 215.007 187.766 216.94 198.848 217.842C209.93 218.744 218.193 214.673 220.451 212.073C222.71 209.473 220.11 204.493 219.322 197.482C218.534 190.47 218.299 168.276 215.138 166.836C211.977 165.396 201.789 160.507 201.789 160.507C201.789 160.507 196.021 160.507 192.178 162.204C189.654 163.414 187.416 165.148 185.614 167.291" fill="white"/>
<path d="M184.371 174.757V187.984C184.371 188.742 180.3 206.176 179.959 207.889C179.618 209.602 179.959 211.171 181.316 213.089C182.673 215.007 187.766 216.94 198.848 217.842C209.93 218.744 218.193 214.673 220.451 212.073C222.71 209.473 220.11 204.493 219.322 197.482C218.534 190.47 218.299 168.276 215.138 166.836C211.977 165.396 201.789 160.507 201.789 160.507C201.789 160.507 196.021 160.507 192.178 162.204C189.654 163.414 187.416 165.148 185.614 167.291" stroke="#0F5566" stroke-linecap="round" stroke-linejoin="round"/>
<path d="M201.107 158.24C201.739 158.187 202.371 158.334 202.914 158.659C203.458 158.984 203.887 159.471 204.139 160.052C204.935 162.091 202.441 174.416 202.441 174.416C202.441 174.416 196.9 170.459 195.544 170.459C194.187 170.459 187.964 174.416 187.964 174.416C187.964 174.416 190.003 165.934 191.814 162.652C193.626 159.37 198.598 157.565 200.637 158.104L201.107 158.24Z" fill="white" stroke="#0F5566" stroke-linecap="round" stroke-linejoin="round"/>
<path d="M201.562 157.111C201.562 157.111 202.017 158.24 199.978 163.675C197.939 169.11 196.946 173.741 195.68 172.491C194.414 171.24 192.966 164.691 192.966 164.691C192.966 164.691 199.523 159.938 201.562 157.111Z" fill="white" stroke="#0F5566" stroke-linecap="round" stroke-linejoin="round"/>
<path d="M183.37 148.348C183.944 151.49 184.683 154.6 185.583 157.664C186.683 160.969 188.1 165.858 191.882 166.957C195.665 168.056 196.772 165.229 198.348 163.925C199.925 162.621 202.441 158.407 202.441 156.345C202.441 154.283 202.282 149.728 201.494 148.151C200.706 146.574 199.288 144.998 195.195 144.21C191.102 143.421 187.312 144.088 183.37 148.348Z" fill="white" stroke="#0F5566" stroke-linecap="round" stroke-linejoin="round"/>
<path d="M201.183 152.601C201.183 152.601 198.818 153.548 198.189 152.131C197.56 150.713 196.453 148.659 196.453 148.659C196.453 148.659 191.564 150.713 188.577 150.842C185.591 150.971 182.271 149.114 181.801 147.052C181.331 144.99 183.059 140.435 187.001 137.956C190.942 135.477 199.129 134.325 201.653 138.267C203.566 141.273 204.504 144.797 204.336 148.356C204.336 151.032 204.177 152.904 204.177 152.904C203.729 152.643 203.229 152.48 202.713 152.428C202.196 152.376 201.675 152.435 201.183 152.601Z" fill="#0F5566" stroke="#0F5566" stroke-linecap="round" stroke-linejoin="round"/>
<path d="M200.236 153.707C200.236 153.707 201.653 150.076 203.071 150.554C204.488 151.032 204.647 153.866 203.829 155.595C203.01 157.323 200.994 157.96 200.524 157.649" fill="white"/>
<path d="M200.236 153.707C200.236 153.707 201.653 150.076 203.071 150.554C204.488 151.032 204.647 153.866 203.829 155.595C203.01 157.323 200.994 157.96 200.524 157.649" stroke="#0F5566" stroke-linecap="round" stroke-linejoin="round"/>
<path d="M189.639 155.625C189.639 155.625 195.339 155.223 196.544 155.382C197.749 155.542 197.583 156.898 197.264 158.414C196.946 159.93 195.096 160.825 192.928 160.423C190.761 160.021 190.275 158.149 189.896 157.854C189.517 157.558 189.336 157.209 188.858 157.452C188.38 157.694 188.456 159.377 187.895 160.097C187.334 160.817 185.803 161.386 184.105 160.499C182.407 159.612 182.498 157.05 182.498 156.163C182.498 155.276 183.378 155.36 183.779 155.405C184.181 155.451 189.639 155.625 189.639 155.625Z" stroke="#0F5566" stroke-linecap="round" stroke-linejoin="round"/>
<path d="M197.348 155.708L200.88 152.093" stroke="#0F5566" stroke-linecap="round" stroke-linejoin="round"/>
<path d="M182.893 155.382L184.257 153.7" stroke="#0F5566" stroke-linecap="round" stroke-linejoin="round"/>
<path d="M188.752 158.354C188.752 158.354 188.434 159.316 188.267 160.12C188.1 160.923 188.752 162.53 189.715 162.394C190.677 162.257 190.92 161.75 190.92 161.75" stroke="#0F5566" stroke-linecap="round" stroke-linejoin="round"/>
<path d="M195.354 154.503C194.27 154.167 193.103 154.224 192.057 154.662" stroke="#0F5566" stroke-linecap="round" stroke-linejoin="round"/>
<path d="M187.948 154.822C187.589 154.526 187.142 154.358 186.678 154.343C186.213 154.327 185.756 154.467 185.379 154.738" stroke="#0F5566" stroke-linecap="round" stroke-linejoin="round"/>
<path d="M211.856 165.479C211.856 165.479 216.722 166.95 218.867 168.761C221.012 170.573 224.476 184.8 225.492 191.585C226.508 198.369 228.092 204.236 226.735 205.031C225.378 205.827 204.162 203.053 204.162 203.053L203.487 199.779L217.313 196.898C217.313 196.898 209.589 181.738 209.369 177.584C209.164 175.358 209.473 173.115 210.271 171.028" fill="white"/>
<path d="M211.856 165.479C211.856 165.479 216.722 166.95 218.867 168.761C221.012 170.573 224.476 184.8 225.492 191.585C226.508 198.369 228.092 204.236 226.735 205.031C225.378 205.827 204.162 203.053 204.162 203.053L203.487 199.779L217.313 196.898C217.313 196.898 209.589 181.738 209.369 177.584C209.164 175.358 209.473 173.115 210.271 171.028" stroke="#0F5566" stroke-linecap="round" stroke-linejoin="round"/>
<path d="M189.237 191.971L195.225 206.676L185.053 210.406L178.716 196.155L189.237 191.971Z" fill="#1CA0BF" stroke="#0F5566" stroke-linecap="round" stroke-linejoin="round"/>
<path d="M178.716 196.155L171.477 190.842L177.92 205.774L185.053 210.406L178.716 196.155Z" fill="#1CA0BF" stroke="#0F5566" stroke-linecap="round" stroke-linejoin="round"/>
<path d="M203.487 199.778C203.487 199.778 195.339 197.504 194.437 196.837C193.535 196.17 185.955 199.21 185.5 199.21C185.045 199.21 185.159 199.778 185.614 200.006C186.068 200.233 191.041 198.869 191.041 198.869C191.041 198.869 186.296 201.363 186.296 201.901C186.302 202.075 186.345 202.247 186.422 202.404C186.499 202.56 186.608 202.699 186.743 202.81C186.743 202.81 186.857 203.826 187.425 204.054C187.994 204.281 193.755 203.144 193.755 203.144C193.755 203.144 189.207 204.842 189.798 205.183C190.07 205.351 190.384 205.439 190.704 205.439C191.023 205.439 191.337 205.351 191.609 205.183C192.284 204.842 196.362 203.599 196.362 203.599C196.362 203.599 199.394 204.501 201.107 204.054C202.137 203.773 203.15 203.432 204.139 203.03L203.487 199.778Z" fill="white" stroke="#0F5566" stroke-linecap="round" stroke-linejoin="round"/>
<path d="M186.743 202.833L192.398 201.249" stroke="#0F5566" stroke-linecap="round" stroke-linejoin="round"/>
<path d="M172.72 195.253C172.72 195.253 176.563 198.081 177.268 198.983C177.465 199.237 177.607 199.529 177.685 199.841C177.764 200.153 177.776 200.477 177.723 200.794L175.229 199.778C175.229 199.778 178.398 202.606 178.511 203.053C178.625 203.5 179.754 205.433 178.398 205.206C177.041 204.978 172.97 202.833 172.174 201.696C171.379 200.559 171.159 195.253 171.159 195.253C171.159 195.253 171.477 194.124 172.72 195.253Z" fill="white" stroke="#0F5566" stroke-linecap="round" stroke-linejoin="round"/>
<path d="M178.489 203.735L173.963 201.022" stroke="#0F5566" stroke-linecap="round" stroke-linejoin="round"/>
<path d="M178.943 204.751C178.943 204.751 174.873 202.947 174.077 202.265" stroke="#0F5566" stroke-linecap="round" stroke-linejoin="round"/>
<path d="M175.206 199.779L173.85 198.869" stroke="#0F5566" stroke-linecap="round" stroke-linejoin="round"/>
<path d="M203.123 240.635H199.97V304.716H203.123V240.635Z" fill="white" stroke="#0F5566" stroke-linecap="round" stroke-linejoin="round"/>
<path d="M347.068 240.635H343.914V304.716H347.068V240.635Z" fill="white" stroke="#0F5566" stroke-linecap="round" stroke-linejoin="round"/>
<path d="M351.502 236.852H197.332V242.803H351.502V236.852Z" fill="white" stroke="#0F5566" stroke-linecap="round" stroke-linejoin="round"/>
<path d="M41.5029 240.635H38.3496V304.716H41.5029V240.635Z" fill="white" stroke="#0F5566" stroke-linecap="round" stroke-linejoin="round"/>
<path d="M185.439 240.635H182.286V304.716H185.439V240.635Z" fill="white" stroke="#0F5566" stroke-linecap="round" stroke-linejoin="round"/>
<path d="M189.881 236.852H35.7117V242.803H189.881V236.852Z" fill="white" stroke="#0F5566" stroke-linecap="round" stroke-linejoin="round"/>
<path d="M300.564 251.868L307.811 298.296L311.692 298.538L312.609 253.005L300.564 251.868Z" fill="#707070" stroke="#0F5566" stroke-linecap="round" stroke-linejoin="round"/>
<path d="M307.811 298.296V303.465C307.812 303.672 307.89 303.87 308.031 304.022C308.171 304.173 308.363 304.267 308.569 304.284L311.411 304.443C311.531 304.45 311.65 304.43 311.761 304.385C311.872 304.34 311.972 304.272 312.054 304.184C312.135 304.097 312.197 303.993 312.234 303.879C312.271 303.765 312.282 303.645 312.268 303.526L311.692 298.538L307.811 298.296Z" fill="white" stroke="#0F5566" stroke-linecap="round" stroke-linejoin="round"/>
<path d="M328.876 251.982L320.833 298.25L316.945 298.402L316.816 252.861L328.876 251.982Z" fill="#707070" stroke="#0F5566" stroke-linecap="round" stroke-linejoin="round"/>
<path d="M320.833 298.25L320.742 303.412C320.739 303.623 320.654 303.824 320.505 303.974C320.357 304.123 320.157 304.21 319.946 304.216L317.096 304.314C316.977 304.318 316.859 304.295 316.75 304.248C316.64 304.201 316.542 304.13 316.463 304.042C316.384 303.953 316.325 303.848 316.29 303.734C316.255 303.62 316.246 303.5 316.263 303.382L316.945 298.402L320.833 298.25Z" fill="white" stroke="#0F5566" stroke-linecap="round" stroke-linejoin="round"/>
<path d="M298.275 207.002C298.275 207.002 286.147 230.5 285.814 232.501C285.48 234.502 287.466 237.466 290.938 237.133C294.409 236.799 303.452 236.64 303.452 236.64L303.619 233.494L293.197 232.175L299.48 227.211L298.275 207.002Z" fill="#1CA0BF" stroke="#0F5566" stroke-linecap="round" stroke-linejoin="round"/>
<path d="M293.197 232.175L291.931 234.654" stroke="#0F5566" stroke-linecap="round" stroke-linejoin="round"/>
<path d="M330.755 207.51C330.755 207.51 343.111 230.515 343.444 232.524C343.778 234.533 341.792 237.489 338.32 237.155C334.849 236.822 326.73 236.663 326.73 236.663L326.564 233.464L332.203 232.145L328.254 227.12L330.755 207.51Z" fill="#1CA0BF" stroke="#0F5566" stroke-linecap="round" stroke-linejoin="round"/>
<path d="M332.203 232.175L337.327 234.654" stroke="#0F5566" stroke-linecap="round" stroke-linejoin="round"/>
<path d="M309.812 200.809L301.853 205.024C297.873 207.131 298.518 205.949 298.283 207.002C298.048 208.056 299.624 244.576 299.624 244.576C299.624 244.576 302.656 247.533 310.63 248.321C322.561 249.488 327.708 245.744 327.708 245.744C327.708 245.744 330.74 208.799 330.74 207.51C330.74 206.222 325.813 203.72 322.66 202.204C319.507 200.688 316.005 199.407 309.812 200.809Z" fill="#1CA0BF" stroke="#0F5566" stroke-linecap="round" stroke-linejoin="round"/>
<path d="M314.057 175.856C314.057 175.856 308.895 178.13 307.235 181.837C305.575 185.543 308.266 194.215 307.644 196.481C307.023 198.748 304.142 198.543 304.142 198.543C304.142 198.543 305.378 205.562 312.389 206.388C319.401 207.214 322.501 206.176 325.389 203.083C328.277 199.991 327.663 199.991 327.663 199.991C327.663 199.991 326.427 199.991 325.806 196.481C325.184 192.972 326.01 183.072 322.918 178.744C319.825 174.416 315.118 174.583 314.057 175.856Z" fill="#0F5566" stroke="#0F5566" stroke-linecap="round" stroke-linejoin="round"/>
<path d="M299.617 244.576C299.617 244.576 298.571 256.272 298.92 257.796C299.268 259.319 302.899 261.775 310.29 262.01C317.68 262.245 326.905 262.594 329.133 259.903C331.362 257.212 327.724 245.744 327.724 245.744C327.724 245.744 308.046 247.381 299.617 244.576Z" fill="#707070" stroke="#0F5566" stroke-linecap="round" stroke-linejoin="round"/>
<path d="M314.428 200.59C314.428 200.59 314.603 199.377 318.218 200.415" stroke="#0F5566" stroke-linecap="round" stroke-linejoin="round"/>
<path d="M299.45 304.011C299.342 304.003 299.236 303.974 299.139 303.925C299.042 303.877 298.956 303.809 298.885 303.726C298.815 303.644 298.761 303.548 298.728 303.445C298.695 303.341 298.683 303.232 298.692 303.124L301.095 258.88L303.854 259.1L300.322 303.261C300.304 303.475 300.203 303.674 300.04 303.815C299.877 303.955 299.665 304.026 299.45 304.011Z" fill="#FF4F26" stroke="#FF4F26" stroke-linecap="round" stroke-linejoin="round"/>
<path d="M329.202 304.011C329.42 303.994 329.622 303.891 329.764 303.724C329.906 303.558 329.976 303.342 329.96 303.124L327.557 258.88L324.798 259.1L328.322 303.261C328.342 303.476 328.445 303.675 328.609 303.815C328.773 303.956 328.986 304.026 329.202 304.011Z" fill="#FF4F26" stroke="#FF4F26" stroke-linecap="round" stroke-linejoin="round"/>
<path d="M332.029 224.05C325.855 224.941 319.627 225.399 313.39 225.422C307.554 225.357 301.73 224.899 295.956 224.05C295.736 224.015 295.512 224.032 295.301 224.101C295.089 224.169 294.897 224.286 294.74 224.443C294.583 224.599 294.464 224.791 294.395 225.002C294.326 225.213 294.307 225.437 294.341 225.657C295.236 231.251 297.775 247.343 297.775 250.42C297.775 254.165 296.486 257.682 296.486 259.319C296.486 260.957 297.191 262.245 298.359 262.708C298.904 262.927 305.037 262.943 313.329 262.897C322.925 262.943 329.065 262.897 329.603 262.708C330.771 262.245 331.476 260.957 331.476 259.319C331.476 257.682 330.187 254.165 330.187 250.42C330.187 247.343 332.726 231.243 333.628 225.657C333.663 225.438 333.646 225.215 333.578 225.005C333.51 224.794 333.393 224.603 333.237 224.446C333.081 224.29 332.891 224.172 332.681 224.103C332.471 224.034 332.247 224.016 332.029 224.05ZM326.026 258.334C325.609 258.493 320.879 258.508 313.481 258.47C307.091 258.508 302.361 258.47 301.944 258.334C301.47 258.099 301.078 257.725 300.821 257.262C300.564 256.799 300.453 256.269 300.504 255.742C300.504 254.491 301.489 251.808 301.489 248.92C301.489 248.253 301.33 246.767 301.087 244.887L303.43 247.426C303.751 247.771 304.139 248.045 304.571 248.233C305.002 248.421 305.468 248.518 305.939 248.518H322.008C322.9 248.518 323.757 248.17 324.396 247.548L326.844 245.16C326.617 246.911 326.473 248.283 326.473 248.95C326.473 251.808 327.466 254.491 327.466 255.772C327.51 256.294 327.396 256.818 327.14 257.274C326.883 257.731 326.495 258.1 326.026 258.334ZM329.126 230.053C328.732 232.479 327.928 237.489 327.307 241.794L324.972 243.242C323.663 244.038 322.16 244.457 320.629 244.455H307.538C306.05 244.455 304.59 244.057 303.308 243.303L300.648 241.741C300.034 237.444 299.238 232.463 298.844 230.053C298.819 229.885 298.834 229.713 298.888 229.552C298.942 229.39 299.033 229.244 299.154 229.124C299.275 229.005 299.423 228.915 299.585 228.863C299.747 228.811 299.919 228.798 300.087 228.825C304.538 229.474 309.028 229.824 313.526 229.871C318.345 229.858 323.158 229.508 327.928 228.825C328.093 228.804 328.26 228.822 328.417 228.877C328.574 228.932 328.716 229.023 328.832 229.142C328.948 229.261 329.035 229.405 329.086 229.563C329.137 229.721 329.15 229.889 329.126 230.053Z" fill="#FF4F26" stroke="#FF4F26" stroke-linecap="round" stroke-linejoin="round"/>
<path d="M240.288 210.36V204.046H249.301V210.83L240.288 210.36Z" fill="white" stroke="#0F5566" stroke-linecap="round" stroke-linejoin="round"/>
<path d="M235.846 195.973C235.846 195.973 234.436 195.617 234.436 197.846C234.436 200.074 236.286 201.628 237.044 201.469C237.802 201.31 236.695 197.141 236.574 196.322C236.453 195.503 235.846 195.973 235.846 195.973Z" fill="white" stroke="#0F5566" stroke-linecap="round" stroke-linejoin="round"/>
<path d="M253.402 195.973C253.402 195.973 254.804 195.617 254.804 197.846C254.804 200.074 252.962 201.628 252.204 201.469C251.446 201.31 252.553 197.141 252.666 196.322C252.78 195.503 253.402 195.973 253.402 195.973Z" fill="white" stroke="#0F5566" stroke-linecap="round" stroke-linejoin="round"/>
<path d="M253.432 187.158C253.432 187.158 254.311 186.718 253.326 184.626C253.063 184.034 252.669 183.508 252.174 183.09C251.679 182.671 251.096 182.369 250.468 182.208C250.468 182.208 251.226 181.768 251.226 181.329C251.226 180.889 250.241 180.783 247.269 181.662C246.465 181.836 245.737 182.262 245.192 182.879C244.647 183.495 244.312 184.269 244.237 185.088C244.182 185.056 244.123 185.028 244.063 185.005C243.343 184.656 240.554 183.413 239.219 184.08C237.703 184.838 239.439 184.626 239.439 184.626C237.691 184.912 236.118 185.855 235.043 187.264C233.398 189.538 234.603 189.796 234.937 189.796C235.27 189.796 235.596 188.803 235.596 188.803V190.895C235.596 190.895 235.634 191.077 235.702 191.365C235.24 194.465 236.059 197.974 236.513 200.18C237.097 202.992 239.439 205.683 241.198 206.244C242.956 206.805 248.331 206.244 248.331 206.244C249.671 204.895 250.814 203.364 251.726 201.696C252.703 199.633 253.22 197.384 253.242 195.102C253.841 193.849 254.194 192.493 254.281 191.107C254.531 188.257 253.432 187.158 253.432 187.158Z" fill="#0F5566" stroke="#0F5566" stroke-linecap="round" stroke-linejoin="round"/>
<path d="M250.589 199.058C250.589 199.058 245.624 196.383 240.735 198.475C237.908 199.68 235.823 202.682 235.823 202.682C238.285 201.947 240.835 201.554 243.403 201.514C246.572 201.585 249.734 201.818 252.878 202.212C252.317 201.028 251.54 199.959 250.589 199.058Z" fill="#1CA0BF" stroke="#0F5566" stroke-linecap="round" stroke-linejoin="round"/>
<path d="M224.961 210.171C224.961 210.171 212.075 230.515 211.742 232.501C211.408 234.487 213.394 237.466 216.866 237.133C220.338 236.799 233.239 236.64 233.239 236.64L233.406 233.494L222.991 232.175L229.274 227.21L224.961 210.171Z" fill="#1CA0BF" stroke="#0F5566" stroke-linecap="round" stroke-linejoin="round"/>
<path d="M222.991 232.175L217.859 234.654" stroke="#0F5566" stroke-linecap="round" stroke-linejoin="round"/>
<path d="M264.627 209.352C264.627 209.352 277.688 230.515 278.014 232.501C278.34 234.487 276.361 237.466 272.89 237.133C269.418 236.799 256.517 236.64 256.517 236.64L256.35 233.494L266.773 232.175L260.489 227.21L264.627 209.352Z" fill="#1CA0BF" stroke="#0F5566" stroke-linecap="round" stroke-linejoin="round"/>
<path d="M266.773 232.175L271.897 234.654" stroke="#0F5566" stroke-linecap="round" stroke-linejoin="round"/>
<path d="M239.591 200.809L231.632 205.024C227.652 207.131 225.196 209.117 224.961 210.171C224.726 211.224 229.411 244.576 229.411 244.576C229.411 244.576 232.443 247.532 240.409 248.321C252.34 249.488 257.487 245.744 257.487 245.744C257.487 245.744 264.628 210.641 264.628 209.36C264.628 208.079 255.615 203.743 252.462 202.219C249.308 200.696 245.791 199.407 239.591 200.809Z" fill="#1CA0BF" stroke="#0F5566" stroke-linecap="round" stroke-linejoin="round"/>
<path d="M222.619 254.286L236.544 298.788L240.409 298.318L234.671 253.233L222.619 254.286Z" fill="white" stroke="#0F5566" stroke-linecap="round" stroke-linejoin="round"/>
<path d="M236.544 298.788L237.461 303.875C237.498 304.081 237.613 304.266 237.782 304.39C237.952 304.514 238.162 304.568 238.37 304.542L241.198 304.178C241.317 304.163 241.431 304.123 241.532 304.059C241.634 303.996 241.72 303.911 241.785 303.81C241.85 303.71 241.892 303.596 241.909 303.478C241.925 303.359 241.915 303.239 241.88 303.124L240.41 298.318L236.544 298.788Z" fill="white" stroke="#0F5566" stroke-linecap="round" stroke-linejoin="round"/>
<path d="M265.552 254.286L251.628 298.788L247.762 298.318L253.5 253.233L265.552 254.286Z" fill="white" stroke="#0F5566" stroke-linecap="round" stroke-linejoin="round"/>
<path d="M251.628 298.788L250.688 303.875C250.651 304.081 250.536 304.266 250.366 304.39C250.197 304.514 249.986 304.568 249.778 304.542L246.951 304.178C246.832 304.163 246.718 304.123 246.617 304.059C246.515 303.996 246.429 303.911 246.364 303.81C246.299 303.71 246.257 303.596 246.24 303.478C246.224 303.359 246.234 303.239 246.269 303.124L247.739 298.318L251.628 298.788Z" fill="white" stroke="#0F5566" stroke-linecap="round" stroke-linejoin="round"/>
<path d="M241.342 249.018C241.342 249.018 228.592 245.039 226.25 246.214C223.908 247.388 221.566 250.42 222.384 253.794C223.203 257.167 230.229 261.283 231.745 261.374C233.261 261.465 241.463 261.374 241.463 261.374L241.342 249.018Z" fill="white" stroke="#0F5566" stroke-linecap="round" stroke-linejoin="round"/>
<path d="M247.611 249.018C247.611 249.018 260.368 245.039 262.71 246.214C265.052 247.388 267.387 250.42 266.568 253.794C265.749 257.167 258.73 261.283 257.207 261.374C255.683 261.465 247.497 261.374 247.497 261.374L247.611 249.018Z" fill="white" stroke="#0F5566" stroke-linecap="round" stroke-linejoin="round"/>
<path d="M229.411 244.576C229.411 244.576 228.357 256.272 228.706 257.796C229.055 259.319 232.685 261.775 240.076 262.01C247.466 262.245 256.691 262.594 258.92 259.903C261.148 257.212 257.51 245.744 257.51 245.744C257.51 245.744 237.802 247.381 229.411 244.576Z" fill="white" stroke="#0F5566" stroke-linecap="round" stroke-linejoin="round"/>
<path d="M229.237 304.011C229.019 303.994 228.816 303.89 228.674 303.724C228.532 303.558 228.462 303.342 228.479 303.124L230.881 258.88L233.64 259.1L230.116 303.261C230.096 303.476 229.994 303.675 229.829 303.815C229.665 303.955 229.452 304.026 229.237 304.011Z" fill="#FF4F26" stroke="#FF4F26" stroke-linecap="round" stroke-linejoin="round"/>
<path d="M259.026 304.011C259.244 303.994 259.446 303.89 259.588 303.724C259.73 303.558 259.801 303.342 259.784 303.124L257.381 258.88L254.622 259.1L258.147 303.261C258.166 303.476 258.269 303.675 258.433 303.815C258.597 303.955 258.81 304.026 259.026 304.011Z" fill="#FF4F26" stroke="#FF4F26" stroke-linecap="round" stroke-linejoin="round"/>
<path d="M261.785 224.05C255.611 224.941 249.383 225.399 243.146 225.422C237.31 225.356 231.486 224.898 225.712 224.05C225.492 224.015 225.268 224.032 225.057 224.101C224.846 224.169 224.653 224.286 224.496 224.443C224.339 224.599 224.221 224.791 224.151 225.002C224.082 225.213 224.063 225.437 224.097 225.657C224.999 231.251 227.539 247.343 227.539 250.42C227.539 254.165 226.25 257.682 226.25 259.319C226.25 260.957 226.947 262.245 228.122 262.708C228.66 262.927 234.793 262.943 243.085 262.897C252.689 262.943 258.821 262.897 259.359 262.708C260.534 262.245 261.232 260.957 261.232 259.319C261.232 257.682 259.951 254.165 259.951 250.42C259.951 247.343 262.49 231.243 263.384 225.657C263.419 225.438 263.402 225.215 263.334 225.005C263.266 224.794 263.149 224.603 262.994 224.446C262.838 224.289 262.647 224.172 262.437 224.103C262.227 224.034 262.003 224.016 261.785 224.05ZM255.782 258.334C255.365 258.493 250.635 258.508 243.237 258.47C236.847 258.508 232.117 258.47 231.7 258.334C231.226 258.098 230.834 257.725 230.577 257.262C230.32 256.799 230.209 256.269 230.26 255.742C230.26 254.491 231.253 251.808 231.253 248.92C231.253 248.253 231.094 246.767 230.843 244.887L233.193 247.426C233.513 247.772 233.902 248.047 234.333 248.235C234.765 248.423 235.231 248.519 235.702 248.518H251.772C252.663 248.516 253.519 248.168 254.159 247.548L256.6 245.16C256.38 246.911 256.236 248.283 256.236 248.95C256.236 251.808 257.222 254.491 257.222 255.772C257.266 256.294 257.153 256.818 256.896 257.274C256.639 257.731 256.251 258.1 255.782 258.334ZM258.882 230.053C258.488 232.479 257.684 237.489 257.07 241.794L254.69 243.242C253.383 244.036 251.883 244.456 250.354 244.455H237.302C235.812 244.456 234.348 244.059 233.064 243.303L230.411 241.741C229.79 237.443 228.994 232.463 228.6 230.053C228.575 229.885 228.59 229.713 228.644 229.552C228.698 229.39 228.789 229.244 228.91 229.124C229.031 229.005 229.179 228.915 229.341 228.863C229.503 228.811 229.675 228.798 229.843 228.825C234.294 229.474 238.784 229.824 243.282 229.871C248.089 229.856 252.888 229.507 257.646 228.825C257.814 228.798 257.986 228.811 258.148 228.863C258.309 228.915 258.457 229.004 258.577 229.124C258.698 229.244 258.788 229.39 258.841 229.552C258.894 229.713 258.908 229.885 258.882 230.053Z" fill="#FF4F26" stroke="#FF4F26" stroke-linecap="round" stroke-linejoin="round"/>
<path d="M231.268 224.269L235.763 241.014L239.265 240.513L235.513 225.02L231.268 224.269Z" fill="#757575" stroke="#0F5566" stroke-linecap="round" stroke-linejoin="round"/>
<path d="M249.013 240.013L252.264 225.02L256.767 224.512L252.515 241.014L249.013 240.013Z" fill="#757575" stroke="#0F5566" stroke-linecap="round" stroke-linejoin="round"/>
<path d="M227.054 251.557L233.019 264.011V269.514L226.515 256.014L227.054 251.557Z" fill="#757575" stroke="#0F5566" stroke-linecap="round" stroke-linejoin="round"/>
<path d="M260.519 251.557L254.561 264.011V269.514L261.057 256.014L260.519 251.557Z" fill="#757575" stroke="#0F5566" stroke-linecap="round" stroke-linejoin="round"/>
<path d="M250.12 236.769C250.12 236.769 239.371 236.011 236.119 237.019C232.867 238.027 231.124 240.513 231.374 244.516C231.624 248.518 229.373 264.011 229.623 268.014C229.873 272.016 231.374 274.517 237.87 275.768C244.366 277.019 251.12 276.526 254.872 275.01C258.624 273.494 260.413 267.779 258.116 261.76C255.82 255.742 256.396 246.486 255.395 241.991C254.395 237.497 251.871 237.019 250.12 236.769Z" fill="#1CA0BF" stroke="#0F5566" stroke-linecap="round" stroke-linejoin="round"/>
<path d="M256.183 266.907C256.183 266.998 256.009 269.386 255.986 269.477C254.228 276.155 244.806 275.093 239.583 274.222C236.983 273.79 233.087 272.478 232.079 269.674C230.98 266.642 232.405 262.852 232.951 259.782C233.284 257.879 233.474 252.05 235.626 251.08C237.779 250.11 250.847 248.707 252.825 252.657C255.039 257.098 255.395 261.768 256.183 266.907Z" fill="#1CA0BF" stroke="#0F5566" stroke-linecap="round" stroke-linejoin="round"/>
<path d="M246.299 241.4H241.357V244.167H246.299V241.4Z" fill="#0F5566" stroke="#0F5566" stroke-linecap="round" stroke-linejoin="round"/>
<path d="M233.648 259.994H255.001C255.05 260.77 254.817 261.538 254.345 262.157C253.873 262.775 253.193 263.202 252.431 263.36C249.24 264.042 245.723 263.913 242.486 263.92C239.583 263.913 233.315 264.345 233.648 259.994Z" fill="#0F5566" stroke="#0F5566" stroke-linecap="round" stroke-linejoin="round"/>
<path d="M138.936 252.141L146.183 298.576L150.063 298.811L150.981 253.286L138.936 252.141Z" fill="#1CA0BF" stroke="#0F5566" stroke-linecap="round" stroke-linejoin="round"/>
<path d="M146.182 298.576V303.738C146.182 303.946 146.259 304.146 146.4 304.3C146.54 304.453 146.733 304.547 146.94 304.564L149.79 304.716C149.91 304.721 150.028 304.7 150.139 304.655C150.249 304.61 150.348 304.542 150.43 304.455C150.511 304.367 150.573 304.264 150.61 304.15C150.648 304.037 150.66 303.917 150.647 303.799L150.071 298.811L146.182 298.576Z" fill="white" stroke="#0F5566" stroke-linecap="round" stroke-linejoin="round"/>
<path d="M167.255 252.255L159.205 298.523L155.324 298.675L155.188 253.142L167.255 252.255Z" fill="#1CA0BF" stroke="#0F5566" stroke-linecap="round" stroke-linejoin="round"/>
<path d="M159.205 298.523L159.114 303.685C159.111 303.89 159.032 304.087 158.892 304.237C158.751 304.387 158.561 304.479 158.356 304.496L155.506 304.587C155.387 304.59 155.268 304.568 155.158 304.521C155.049 304.474 154.951 304.403 154.871 304.315C154.791 304.226 154.731 304.121 154.695 304.007C154.66 303.893 154.649 303.773 154.665 303.655L155.347 298.675L159.205 298.523Z" fill="white" stroke="#0F5566" stroke-linecap="round" stroke-linejoin="round"/>
<path d="M136.654 207.275C136.654 207.275 124.526 230.773 124.185 232.774C123.844 234.775 125.845 237.739 129.317 237.406C132.789 237.072 141.824 236.913 141.824 236.913L141.991 233.767L131.576 232.448L137.86 227.483L136.654 207.275Z" fill="white" stroke="#0F5566" stroke-linecap="round" stroke-linejoin="round"/>
<path d="M131.576 232.448L130.31 234.927" stroke="#0F5566" stroke-linecap="round" stroke-linejoin="round"/>
<path d="M169.271 206.767C169.271 206.767 181.49 230.796 181.816 232.774C182.142 234.753 180.164 237.739 176.692 237.406C173.22 237.072 165.11 236.913 165.11 236.913L164.943 233.767L170.575 232.448L167.02 227.514L169.271 206.767Z" fill="white" stroke="#0F5566" stroke-linecap="round" stroke-linejoin="round"/>
<path d="M170.575 232.448L175.699 234.927" stroke="#0F5566" stroke-linecap="round" stroke-linejoin="round"/>
<path d="M148.176 201.09L140.217 205.297C136.237 207.404 136.882 206.222 136.654 207.275C136.427 208.329 137.996 244.834 137.996 244.834C137.996 244.834 141.028 247.798 148.995 248.579C160.933 249.746 166.08 246.001 166.08 246.001C166.08 246.001 169.112 209.056 169.112 207.768C169.112 206.479 164.185 203.978 161.024 202.462C157.863 200.946 154.376 199.68 148.176 201.09Z" fill="white" stroke="#0F5566" stroke-linecap="round" stroke-linejoin="round"/>
<path d="M137.996 244.834C137.996 244.834 136.943 256.538 137.291 258.054C137.64 259.57 141.271 262.033 148.661 262.268C156.052 262.503 165.277 262.852 167.498 260.161C169.718 257.47 166.095 246.001 166.095 246.001C166.095 246.001 146.418 247.654 137.996 244.834Z" fill="#1CA0BF" stroke="#0F5566" stroke-linecap="round" stroke-linejoin="round"/>
<path d="M153.664 178.175C153.664 178.175 149.874 175.901 145.872 180.252C141.869 184.603 146.046 193.245 146.561 195.321C147.077 197.398 139.641 209.208 139.641 214.514C139.641 219.82 146.084 225.126 156.271 224.072C166.459 223.019 167.702 217.66 166.315 211.255C164.928 204.85 163.366 198.088 163.366 195.337C163.366 192.585 165.792 186.332 163.541 180.268C161.289 174.204 155.748 175.924 153.664 178.175Z" fill="#0F5566" stroke="#0F5566" stroke-linecap="round" stroke-linejoin="round"/>
<path d="M148.13 196.36L152.807 200.862C152.807 200.862 147.956 212.467 147.433 215.583C146.91 218.698 149.707 221.647 153.497 221.298C157.287 220.949 159.735 217.66 159.561 214.893C159.387 212.126 156.612 200.688 156.612 200.688C159.006 199.438 161.036 197.589 162.502 195.321" stroke="#808080" stroke-linecap="round" stroke-linejoin="round"/>
<path d="M152.807 200.87C152.807 200.87 152.982 199.657 156.597 200.696" stroke="#0F5566" stroke-linecap="round" stroke-linejoin="round"/>
<path d="M137.822 304.284C137.605 304.267 137.404 304.164 137.262 304C137.12 303.835 137.049 303.621 137.064 303.405L139.467 259.153L142.226 259.38L138.701 303.534C138.684 303.75 138.581 303.95 138.416 304.09C138.252 304.231 138.038 304.301 137.822 304.284Z" fill="#FF4F26" stroke="#FF4F26" stroke-linecap="round" stroke-linejoin="round"/>
<path d="M167.573 304.284C167.681 304.276 167.786 304.247 167.882 304.199C167.979 304.151 168.065 304.084 168.135 304.002C168.205 303.92 168.259 303.825 168.293 303.723C168.326 303.62 168.339 303.512 168.331 303.405L165.936 259.153L163.177 259.38L166.701 303.534C166.719 303.748 166.82 303.947 166.983 304.088C167.146 304.228 167.358 304.299 167.573 304.284Z" fill="#FF4F26" stroke="#FF4F26" stroke-linecap="round" stroke-linejoin="round"/>
<path d="M170.4 224.323C164.229 225.213 158.004 225.672 151.769 225.695C145.933 225.633 140.108 225.175 134.335 224.323C134.115 224.289 133.891 224.307 133.68 224.377C133.469 224.446 133.278 224.564 133.121 224.721C132.964 224.879 132.847 225.071 132.779 225.282C132.711 225.493 132.693 225.718 132.728 225.937C133.622 231.524 136.162 247.616 136.162 250.701C136.162 254.445 134.873 257.955 134.873 259.592C134.873 261.23 135.578 262.518 136.745 262.988C137.283 263.2 143.416 263.216 151.708 263.17C161.312 263.216 167.444 263.17 167.99 262.988C169.157 262.518 169.862 261.23 169.862 259.592C169.862 257.955 168.574 254.445 168.574 250.701C168.574 247.616 171.113 231.524 172.007 225.937C172.044 225.718 172.028 225.492 171.96 225.28C171.892 225.068 171.775 224.875 171.618 224.718C171.461 224.56 171.269 224.442 171.057 224.373C170.845 224.304 170.62 224.287 170.4 224.323ZM164.397 258.607C163.98 258.774 159.25 258.781 151.852 258.751C145.462 258.751 140.732 258.751 140.315 258.607C139.841 258.371 139.45 257.997 139.192 257.535C138.935 257.072 138.825 256.542 138.875 256.015C138.875 254.764 139.868 252.088 139.868 249.23C139.868 248.556 139.709 247.07 139.467 245.198L141.809 247.73C142.129 248.076 142.517 248.352 142.948 248.541C143.38 248.731 143.846 248.828 144.318 248.829H160.387C161.274 248.83 162.125 248.485 162.76 247.866L165.201 245.486C164.981 247.229 164.837 248.601 164.837 249.276C164.837 252.134 165.83 254.809 165.83 256.06C165.872 256.579 165.758 257.098 165.502 257.552C165.247 258.006 164.862 258.373 164.397 258.607ZM167.497 230.326C167.103 232.751 166.307 237.762 165.686 242.067L163.313 243.515C162.005 244.313 160.502 244.736 158.97 244.735H145.917C144.426 244.735 142.963 244.334 141.68 243.576L139.027 242.014C138.405 237.724 137.609 232.744 137.223 230.326C137.196 230.157 137.21 229.985 137.264 229.823C137.317 229.66 137.408 229.513 137.53 229.393C137.651 229.273 137.799 229.184 137.962 229.133C138.125 229.081 138.298 229.069 138.466 229.098C142.915 229.75 147.402 230.102 151.898 230.152C156.717 230.132 161.529 229.78 166.3 229.098C166.465 229.077 166.632 229.095 166.789 229.15C166.946 229.205 167.087 229.296 167.203 229.415C167.319 229.533 167.406 229.678 167.457 229.836C167.508 229.994 167.522 230.162 167.497 230.326Z" fill="#FF4F26" stroke="#FF4F26" stroke-linecap="round" stroke-linejoin="round"/>
<path d="M78.6675 200.392V194.078H87.6725V200.862L78.6675 200.392Z" fill="white" stroke="#0F5566" stroke-linecap="round" stroke-linejoin="round"/>
<path d="M74.2182 186.006C74.2182 186.006 72.8159 185.649 72.8159 187.878C72.8159 190.106 74.6882 191.615 75.3855 191.501C76.0829 191.387 75.0369 187.173 74.9232 186.354C74.8095 185.536 74.2182 186.006 74.2182 186.006Z" fill="white" stroke="#0F5566" stroke-linecap="round" stroke-linejoin="round"/>
<path d="M91.7734 186.006C91.7734 186.006 93.1832 185.649 93.1832 187.878C93.1832 190.106 91.311 191.615 90.606 191.501C89.9011 191.387 90.9547 187.173 91.076 186.354C91.1973 185.536 91.7734 186.006 91.7734 186.006Z" fill="white" stroke="#0F5566" stroke-linecap="round" stroke-linejoin="round"/>
<path d="M80.4186 174.886C80.4186 174.886 76.4391 175.469 74.8018 178.979C73.1646 182.488 74.3395 187.408 74.9231 190.213C75.5068 193.017 77.849 195.716 79.6 196.277C81.351 196.837 86.7403 196.277 86.7403 196.277C88.078 194.926 89.221 193.395 90.1362 191.729C91.7735 188.803 92.0084 183.3 91.3035 180.146C90.5986 176.993 88.1426 173.825 86.2704 173.59C84.3981 173.355 82.6471 175.106 82.6471 175.106C81.9522 174.776 81.1645 174.699 80.4186 174.886Z" fill="#0F5566" stroke="#0F5566" stroke-linecap="round" stroke-linejoin="round"/>
<path d="M88.9611 199.225C88.9611 199.225 82.1391 198.171 79.1071 198.641C76.0751 199.111 74.1953 202.848 74.1953 202.848C76.6567 202.115 79.2072 201.722 81.7753 201.681C84.9437 201.753 88.1062 201.988 91.2503 202.386C90.6877 201.201 89.9117 200.129 88.9611 199.225Z" fill="white" stroke="#0F5566" stroke-linecap="round" stroke-linejoin="round"/>
<path d="M63.3408 210.337C63.3408 210.337 50.4472 230.69 50.1213 232.706C49.7954 234.722 51.7737 237.671 55.2454 237.337C58.717 237.004 71.6182 236.845 71.6182 236.845L71.7774 233.699L61.3624 232.38L67.6463 227.4L63.3408 210.337Z" fill="white" stroke="#0F5566" stroke-linecap="round" stroke-linejoin="round"/>
<path d="M61.3624 232.342L56.2383 234.821" stroke="#0F5566" stroke-linecap="round" stroke-linejoin="round"/>
<path d="M103.007 209.519C103.007 209.519 116.06 230.69 116.393 232.668C116.727 234.646 114.741 237.633 111.261 237.299C107.782 236.966 94.8963 236.807 94.8963 236.807L94.7295 233.661L105.152 232.342L98.8606 227.4L103.007 209.519Z" fill="white" stroke="#0F5566" stroke-linecap="round" stroke-linejoin="round"/>
<path d="M105.145 232.342L110.276 234.821" stroke="#0F5566" stroke-linecap="round" stroke-linejoin="round"/>
<path d="M77.9626 200.976L70.0036 205.191C66.0317 207.298 63.5682 209.284 63.3408 210.337C63.1134 211.391 67.7827 244.743 67.7827 244.743C67.7827 244.743 70.8147 247.699 78.7813 248.488C90.7198 249.655 95.8666 245.91 95.8666 245.91C95.8666 245.91 103.007 210.807 103.007 209.526C103.007 208.245 93.9943 203.902 90.8335 202.386C87.6726 200.87 84.1631 199.574 77.9626 200.976Z" fill="white" stroke="#0F5566" stroke-linecap="round" stroke-linejoin="round"/>
<path d="M60.9985 254.453L74.923 298.955L78.7812 298.493L73.0507 253.399L60.9985 254.453Z" fill="#1CA0BF" stroke="#0F5566" stroke-linecap="round" stroke-linejoin="round"/>
<path d="M74.9231 298.955L75.8327 304.041C75.8716 304.249 75.9883 304.433 76.1588 304.557C76.3293 304.681 76.5407 304.735 76.7499 304.708L79.5772 304.345C79.6953 304.329 79.8086 304.288 79.9091 304.224C80.0096 304.16 80.095 304.075 80.1592 303.974C80.2235 303.874 80.265 303.761 80.281 303.643C80.297 303.525 80.2871 303.405 80.2518 303.291L78.7813 298.493L74.9231 298.955Z" fill="white" stroke="#0F5566" stroke-linecap="round" stroke-linejoin="round"/>
<path d="M103.924 254.453L89.9996 298.955L86.1414 298.493L91.8718 253.399L103.924 254.453Z" fill="#1CA0BF" stroke="#0F5566" stroke-linecap="round" stroke-linejoin="round"/>
<path d="M89.9921 298.955L89.0825 304.041C89.0436 304.249 88.9269 304.433 88.7564 304.557C88.5859 304.681 88.3744 304.735 88.1653 304.708L85.3379 304.345C85.2198 304.329 85.1066 304.288 85.006 304.224C84.9055 304.16 84.8202 304.075 84.7559 303.974C84.6917 303.874 84.6501 303.761 84.6341 303.643C84.6181 303.525 84.6281 303.405 84.6633 303.291L86.1338 298.493L89.9921 298.955Z" fill="white" stroke="#0F5566" stroke-linecap="round" stroke-linejoin="round"/>
<path d="M79.7213 249.185C79.7213 249.185 66.9642 245.213 64.6219 246.35C62.2797 247.487 59.9451 250.564 60.7637 253.93C61.5824 257.296 68.6014 261.419 70.125 261.51C71.6486 261.601 79.835 261.51 79.835 261.51L79.7213 249.185Z" fill="#1CA0BF" stroke="#0F5566" stroke-linecap="round" stroke-linejoin="round"/>
<path d="M85.9899 249.185C85.9899 249.185 98.7395 245.213 101.082 246.38C103.424 247.548 105.766 250.595 104.94 253.96C104.114 257.326 97.1022 261.449 95.5786 261.54C94.0551 261.631 85.8687 261.54 85.8687 261.54L85.9899 249.185Z" fill="#1CA0BF" stroke="#0F5566" stroke-linecap="round" stroke-linejoin="round"/>
<path d="M67.7828 244.743C67.7828 244.743 66.7291 256.447 67.0778 257.963C67.4265 259.479 71.0573 261.942 78.4478 262.177C85.8383 262.412 95.0632 262.761 97.2841 260.07C99.5051 257.379 95.8818 245.91 95.8818 245.91C95.8818 245.91 76.2117 247.548 67.7828 244.743Z" fill="#1CA0BF" stroke="#0F5566" stroke-linecap="round" stroke-linejoin="round"/>
<path d="M67.6159 304.178C67.5083 304.17 67.4032 304.141 67.3068 304.093C67.2104 304.044 67.1245 303.977 67.0541 303.896C66.9836 303.814 66.93 303.719 66.8964 303.617C66.8627 303.514 66.8496 303.406 66.8579 303.299L69.2532 259.046L72.0123 259.274L68.4952 303.427C68.4777 303.643 68.3754 303.844 68.2106 303.984C68.0458 304.125 67.8319 304.195 67.6159 304.178Z" fill="#FF4F26" stroke="#FF4F26" stroke-linecap="round" stroke-linejoin="round"/>
<path d="M97.3598 304.178C97.4674 304.17 97.5724 304.141 97.6688 304.093C97.7653 304.044 97.8512 303.977 97.9216 303.896C97.992 303.814 98.0456 303.719 98.0793 303.617C98.113 303.514 98.126 303.406 98.1178 303.299L95.7225 259.046L92.9634 259.274L96.4881 303.427C96.5055 303.642 96.6068 303.841 96.7699 303.981C96.9331 304.122 97.145 304.192 97.3598 304.178Z" fill="#FF4F26" stroke="#FF4F26" stroke-linecap="round" stroke-linejoin="round"/>
<path d="M100.164 224.216C93.9909 225.107 87.7626 225.566 81.5252 225.588C75.6896 225.524 69.865 225.065 64.0912 224.216C63.8712 224.181 63.646 224.199 63.434 224.267C63.2221 224.336 63.0295 224.454 62.8719 224.612C62.7144 224.769 62.5964 224.962 62.5277 225.174C62.459 225.386 62.4415 225.611 62.4766 225.831C63.3711 231.417 65.9104 247.51 65.9104 250.595C65.9104 254.339 64.6218 257.849 64.6218 259.486C64.6218 261.123 65.3267 262.412 66.494 262.882C67.0398 263.094 73.172 263.109 81.4645 263.064C91.0608 263.109 97.2006 263.064 97.7388 262.882C98.9061 262.412 99.611 261.123 99.611 259.486C99.611 257.849 98.3224 254.339 98.3224 250.595C98.3224 247.51 100.862 231.41 101.756 225.823C101.792 225.605 101.776 225.382 101.71 225.172C101.643 224.961 101.527 224.77 101.371 224.613C101.216 224.456 101.025 224.338 100.816 224.269C100.606 224.2 100.383 224.182 100.164 224.216ZM94.161 258.478C93.7441 258.637 89.0142 258.652 81.6085 258.622C75.2186 258.622 70.4963 258.622 70.0794 258.478C69.6037 258.244 69.2104 257.87 68.9519 257.407C68.6933 256.944 68.5816 256.414 68.6316 255.886C68.6316 254.635 69.6246 251.959 69.6246 249.102C69.6246 248.427 69.4654 246.941 69.2228 245.069L71.565 247.601C71.8854 247.946 72.2735 248.222 72.7052 248.411C73.1368 248.6 73.6028 248.699 74.074 248.7H90.1436C91.0373 248.701 91.8955 248.35 92.5313 247.722L94.9797 245.342C94.7523 247.085 94.6082 248.457 94.6082 249.132C94.6082 251.99 95.6012 254.665 95.6012 255.916C95.6455 256.438 95.5319 256.962 95.2751 257.418C95.0183 257.875 94.6302 258.244 94.161 258.478ZM97.2537 230.197C96.8671 232.623 96.0636 237.633 95.442 241.938L93.0695 243.386C91.7606 244.182 90.2579 244.601 88.7262 244.599H75.6734C74.186 244.599 72.7256 244.201 71.4438 243.447L68.768 241.908C68.154 237.61 67.3581 232.638 66.964 230.22C66.9393 230.051 66.9545 229.88 67.0085 229.718C67.0624 229.557 67.1536 229.411 67.2747 229.291C67.3957 229.171 67.5432 229.082 67.7052 229.03C67.8671 228.978 68.0391 228.965 68.2071 228.992C72.6609 229.641 77.1533 229.991 81.654 230.038C86.4732 230.024 91.2855 229.675 96.056 228.992C96.2209 228.971 96.3883 228.989 96.5451 229.044C96.7018 229.099 96.8438 229.189 96.9598 229.308C97.0758 229.427 97.1627 229.571 97.2137 229.73C97.2647 229.888 97.2783 230.055 97.2537 230.22V230.197Z" fill="#FF4F26" stroke="#FF4F26" stroke-linecap="round" stroke-linejoin="round"/>
<path d="M8.12793 304.716H363.63" stroke="#0F5566" stroke-linecap="round" stroke-linejoin="round"/>
</svg>
