<svg width="320" height="315" viewBox="0 0 320 315" fill="none" xmlns="http://www.w3.org/2000/svg">
<path d="M302.573 103.566H93.3633V222.094H302.573V103.566Z" stroke="#263238" stroke-miterlimit="10" stroke-linecap="round"/>
<path d="M280.282 160.902C287.453 160.902 293.267 155.179 293.267 148.119C293.267 141.06 287.453 135.337 280.282 135.337C273.11 135.337 267.296 141.06 267.296 148.119C267.296 155.179 273.11 160.902 280.282 160.902Z" stroke="#263238" stroke-miterlimit="10" stroke-linecap="round"/>
<path d="M280.282 155.371C284.35 155.371 287.648 152.124 287.648 148.119C287.648 144.114 284.35 140.868 280.282 140.868C276.213 140.868 272.915 144.114 272.915 148.119C272.915 152.124 276.213 155.371 280.282 155.371Z" stroke="#263238" stroke-miterlimit="10" stroke-linecap="round"/>
<path d="M280.282 150.192C281.445 150.192 282.387 149.264 282.387 148.119C282.387 146.975 281.445 146.047 280.282 146.047C279.119 146.047 278.176 146.975 278.176 148.119C278.176 149.264 279.119 150.192 280.282 150.192Z" stroke="#263238" stroke-miterlimit="10" stroke-linecap="round"/>
<path d="M295.366 127.569H265.19V168.67H295.366V127.569Z" stroke="#263238" stroke-miterlimit="10" stroke-linecap="round"/>
<path d="M233.261 160.902C240.433 160.902 246.247 155.179 246.247 148.119C246.247 141.06 240.433 135.337 233.261 135.337C226.089 135.337 220.275 141.06 220.275 148.119C220.275 155.179 226.089 160.902 233.261 160.902Z" stroke="#263238" stroke-miterlimit="10" stroke-linecap="round"/>
<path d="M233.261 155.371C237.329 155.371 240.627 152.124 240.627 148.119C240.627 144.114 237.329 140.868 233.261 140.868C229.193 140.868 225.895 144.114 225.895 148.119C225.895 152.124 229.193 155.371 233.261 155.371Z" stroke="#263238" stroke-miterlimit="10" stroke-linecap="round"/>
<path d="M233.261 150.192C234.424 150.192 235.366 149.264 235.366 148.119C235.366 146.975 234.424 146.047 233.261 146.047C232.098 146.047 231.155 146.975 231.155 148.119C231.155 149.264 232.098 150.192 233.261 150.192Z" stroke="#263238" stroke-miterlimit="10" stroke-linecap="round"/>
<path d="M248.346 127.569H218.17V168.67H248.346V127.569Z" stroke="#263238" stroke-miterlimit="10" stroke-linecap="round"/>
<path d="M186.24 160.902C193.412 160.902 199.226 155.179 199.226 148.119C199.226 141.06 193.412 135.337 186.24 135.337C179.068 135.337 173.254 141.06 173.254 148.119C173.254 155.179 179.068 160.902 186.24 160.902Z" stroke="#263238" stroke-miterlimit="10" stroke-linecap="round"/>
<path d="M186.24 155.371C190.309 155.371 193.607 152.124 193.607 148.119C193.607 144.114 190.309 140.868 186.24 140.868C182.172 140.868 178.874 144.114 178.874 148.119C178.874 152.124 182.172 155.371 186.24 155.371Z" stroke="#263238" stroke-miterlimit="10" stroke-linecap="round"/>
<path d="M186.24 150.192C187.403 150.192 188.346 149.264 188.346 148.119C188.346 146.975 187.403 146.047 186.24 146.047C185.077 146.047 184.135 146.975 184.135 148.119C184.135 149.264 185.077 150.192 186.24 150.192Z" stroke="#263238" stroke-miterlimit="10" stroke-linecap="round"/>
<path d="M201.331 127.569H171.155V168.67H201.331V127.569Z" stroke="#263238" stroke-miterlimit="10" stroke-linecap="round"/>
<path d="M206.714 193.196H162.867V222.1H206.714V193.196Z" stroke="#263238" stroke-miterlimit="10" stroke-linecap="round"/>
<path d="M203.974 194.733H162.867V222.094H203.974V194.733Z" stroke="#263238" stroke-miterlimit="10" stroke-linecap="round"/>
<path d="M148.32 193.196H104.474V222.1H148.32V193.196Z" stroke="#263238" stroke-miterlimit="10" stroke-linecap="round"/>
<path d="M145.581 194.733H104.474V222.094H145.581V194.733Z" stroke="#263238" stroke-miterlimit="10" stroke-linecap="round"/>
<path d="M154.343 103.887V221.836" stroke="#263238" stroke-miterlimit="10" stroke-linecap="round"/>
<path d="M230.31 37.3149C231.229 37.3149 231.974 36.5815 231.974 35.6769C231.974 34.7722 231.229 34.0389 230.31 34.0389C229.391 34.0389 228.646 34.7722 228.646 35.6769C228.646 36.5815 229.391 37.3149 230.31 37.3149Z" stroke="#263238" stroke-miterlimit="10" stroke-linecap="round"/>
<path d="M244.608 37.3149C245.527 37.3149 246.272 36.5815 246.272 35.6769C246.272 34.7722 245.527 34.0389 244.608 34.0389C243.689 34.0389 242.944 34.7722 242.944 35.6769C242.944 36.5815 243.689 37.3149 244.608 37.3149Z" stroke="#263238" stroke-miterlimit="10" stroke-linecap="round"/>
<path d="M258.906 37.3149C259.825 37.3149 260.57 36.5815 260.57 35.6769C260.57 34.7722 259.825 34.0389 258.906 34.0389C257.987 34.0389 257.242 34.7722 257.242 35.6769C257.242 36.5815 257.987 37.3149 258.906 37.3149Z" stroke="#263238" stroke-miterlimit="10" stroke-linecap="round"/>
<path d="M273.197 37.3149C274.116 37.3149 274.861 36.5815 274.861 35.6769C274.861 34.7722 274.116 34.0389 273.197 34.0389C272.278 34.0389 271.533 34.7722 271.533 35.6769C271.533 36.5815 272.278 37.3149 273.197 37.3149Z" stroke="#263238" stroke-miterlimit="10" stroke-linecap="round"/>
<path d="M287.495 37.3149C288.414 37.3149 289.159 36.5815 289.159 35.6769C289.159 34.7722 288.414 34.0389 287.495 34.0389C286.576 34.0389 285.831 34.7722 285.831 35.6769C285.831 36.5815 286.576 37.3149 287.495 37.3149Z" stroke="#263238" stroke-miterlimit="10" stroke-linecap="round"/>
<path d="M230.31 48.2202C231.229 48.2202 231.974 47.4868 231.974 46.5822C231.974 45.6775 231.229 44.9442 230.31 44.9442C229.391 44.9442 228.646 45.6775 228.646 46.5822C228.646 47.4868 229.391 48.2202 230.31 48.2202Z" stroke="#263238" stroke-miterlimit="10" stroke-linecap="round"/>
<path d="M244.608 48.2202C245.527 48.2202 246.272 47.4868 246.272 46.5822C246.272 45.6775 245.527 44.9442 244.608 44.9442C243.689 44.9442 242.944 45.6775 242.944 46.5822C242.944 47.4868 243.689 48.2202 244.608 48.2202Z" stroke="#263238" stroke-miterlimit="10" stroke-linecap="round"/>
<path d="M258.906 48.2202C259.825 48.2202 260.57 47.4868 260.57 46.5822C260.57 45.6775 259.825 44.9442 258.906 44.9442C257.987 44.9442 257.242 45.6775 257.242 46.5822C257.242 47.4868 257.987 48.2202 258.906 48.2202Z" stroke="#263238" stroke-miterlimit="10" stroke-linecap="round"/>
<path d="M273.197 48.2202C274.116 48.2202 274.861 47.4868 274.861 46.5822C274.861 45.6775 274.116 44.9442 273.197 44.9442C272.278 44.9442 271.533 45.6775 271.533 46.5822C271.533 47.4868 272.278 48.2202 273.197 48.2202Z" stroke="#263238" stroke-miterlimit="10" stroke-linecap="round"/>
<path d="M287.495 48.2202C288.414 48.2202 289.159 47.4868 289.159 46.5822C289.159 45.6775 288.414 44.9442 287.495 44.9442C286.576 44.9442 285.831 45.6775 285.831 46.5822C285.831 47.4868 286.576 48.2202 287.495 48.2202Z" stroke="#263238" stroke-miterlimit="10" stroke-linecap="round"/>
<path d="M230.31 59.1192C231.229 59.1192 231.974 58.3858 231.974 57.4812C231.974 56.5766 231.229 55.8432 230.31 55.8432C229.391 55.8432 228.646 56.5766 228.646 57.4812C228.646 58.3858 229.391 59.1192 230.31 59.1192Z" stroke="#263238" stroke-miterlimit="10" stroke-linecap="round"/>
<path d="M244.608 59.1192C245.527 59.1192 246.272 58.3858 246.272 57.4812C246.272 56.5766 245.527 55.8432 244.608 55.8432C243.689 55.8432 242.944 56.5766 242.944 57.4812C242.944 58.3858 243.689 59.1192 244.608 59.1192Z" stroke="#263238" stroke-miterlimit="10" stroke-linecap="round"/>
<path d="M258.906 59.1192C259.825 59.1192 260.57 58.3858 260.57 57.4812C260.57 56.5766 259.825 55.8432 258.906 55.8432C257.987 55.8432 257.242 56.5766 257.242 57.4812C257.242 58.3858 257.987 59.1192 258.906 59.1192Z" stroke="#263238" stroke-miterlimit="10" stroke-linecap="round"/>
<path d="M273.197 59.1192C274.116 59.1192 274.861 58.3858 274.861 57.4812C274.861 56.5766 274.116 55.8432 273.197 55.8432C272.278 55.8432 271.533 56.5766 271.533 57.4812C271.533 58.3858 272.278 59.1192 273.197 59.1192Z" stroke="#263238" stroke-miterlimit="10" stroke-linecap="round"/>
<path d="M287.495 59.1192C288.414 59.1192 289.159 58.3858 289.159 57.4812C289.159 56.5766 288.414 55.8432 287.495 55.8432C286.576 55.8432 285.831 56.5766 285.831 57.4812C285.831 58.3858 286.576 59.1192 287.495 59.1192Z" stroke="#263238" stroke-miterlimit="10" stroke-linecap="round"/>
<path d="M231.974 68.3865C231.974 68.7104 231.877 69.0271 231.694 69.2965C231.511 69.5659 231.251 69.7758 230.947 69.8998C230.643 70.0238 230.309 70.0562 229.986 69.993C229.663 69.9298 229.367 69.7738 229.134 69.5447C228.901 69.3156 228.743 69.0238 228.678 68.706C228.614 68.3883 228.647 68.0589 228.773 67.7596C228.899 67.4603 229.112 67.2045 229.386 67.0245C229.66 66.8445 229.981 66.7485 230.31 66.7485C230.752 66.7485 231.175 66.9211 231.487 67.2282C231.799 67.5354 231.974 67.9521 231.974 68.3865Z" stroke="#263238" stroke-miterlimit="10" stroke-linecap="round"/>
<path d="M246.272 68.3865C246.272 68.7104 246.174 69.0271 245.992 69.2965C245.809 69.5659 245.549 69.7758 245.245 69.8998C244.941 70.0238 244.606 70.0562 244.283 69.993C243.961 69.9298 243.664 69.7738 243.431 69.5447C243.199 69.3156 243.04 69.0238 242.976 68.706C242.912 68.3883 242.945 68.0589 243.071 67.7596C243.197 67.4603 243.41 67.2045 243.684 67.0245C243.957 66.8445 244.279 66.7485 244.608 66.7485C245.049 66.7501 245.471 66.9232 245.783 67.2301C246.095 67.5369 246.27 67.9526 246.272 68.3865Z" stroke="#263238" stroke-miterlimit="10" stroke-linecap="round"/>
<path d="M260.563 68.3865C260.563 68.7107 260.466 69.0277 260.282 69.2972C260.099 69.5667 259.839 69.7766 259.535 69.9004C259.23 70.0242 258.895 70.0563 258.572 69.9925C258.249 69.9288 257.953 69.7722 257.72 69.5425C257.488 69.3128 257.33 69.0203 257.267 68.7022C257.203 68.384 257.237 68.0545 257.364 67.7553C257.491 67.4561 257.705 67.2007 257.98 67.0215C258.254 66.8422 258.576 66.7472 258.906 66.7485C259.346 66.7502 259.768 66.9235 260.078 67.2305C260.389 67.5375 260.563 67.9532 260.563 68.3865Z" stroke="#263238" stroke-miterlimit="10" stroke-linecap="round"/>
<path d="M274.861 68.3865C274.861 68.7104 274.763 69.0271 274.581 69.2965C274.398 69.5659 274.138 69.7758 273.834 69.8998C273.53 70.0238 273.195 70.0562 272.872 69.993C272.55 69.9298 272.253 69.7738 272.02 69.5447C271.788 69.3156 271.629 69.0238 271.565 68.706C271.501 68.3883 271.534 68.0589 271.66 67.7596C271.786 67.4603 271.999 67.2045 272.272 67.0245C272.546 66.8445 272.868 66.7485 273.197 66.7485C273.638 66.7485 274.062 66.9211 274.374 67.2282C274.686 67.5354 274.861 67.9521 274.861 68.3865Z" stroke="#263238" stroke-miterlimit="10" stroke-linecap="round"/>
<path d="M289.159 68.3865C289.159 68.7104 289.061 69.0271 288.878 69.2965C288.695 69.5659 288.435 69.7758 288.131 69.8998C287.827 70.0238 287.493 70.0562 287.17 69.993C286.847 69.9298 286.551 69.7738 286.318 69.5447C286.085 69.3156 285.927 69.0238 285.863 68.706C285.798 68.3883 285.831 68.0589 285.957 67.7596C286.083 67.4603 286.296 67.2045 286.57 67.0245C286.844 66.8445 287.165 66.7485 287.495 66.7485C287.935 66.7501 288.358 66.9232 288.669 67.2301C288.981 67.5369 289.157 67.9526 289.159 68.3865Z" stroke="#263238" stroke-miterlimit="10" stroke-linecap="round"/>
<path d="M230.31 80.9235C231.229 80.9235 231.974 80.1901 231.974 79.2855C231.974 78.3808 231.229 77.6475 230.31 77.6475C229.391 77.6475 228.646 78.3808 228.646 79.2855C228.646 80.1901 229.391 80.9235 230.31 80.9235Z" stroke="#263238" stroke-miterlimit="10" stroke-linecap="round"/>
<path d="M244.608 80.9235C245.527 80.9235 246.272 80.1901 246.272 79.2855C246.272 78.3808 245.527 77.6475 244.608 77.6475C243.689 77.6475 242.944 78.3808 242.944 79.2855C242.944 80.1901 243.689 80.9235 244.608 80.9235Z" stroke="#263238" stroke-miterlimit="10" stroke-linecap="round"/>
<path d="M258.906 80.9235C259.825 80.9235 260.57 80.1901 260.57 79.2855C260.57 78.3808 259.825 77.6475 258.906 77.6475C257.987 77.6475 257.242 78.3808 257.242 79.2855C257.242 80.1901 257.987 80.9235 258.906 80.9235Z" stroke="#263238" stroke-miterlimit="10" stroke-linecap="round"/>
<path d="M273.197 80.9235C274.116 80.9235 274.861 80.1901 274.861 79.2855C274.861 78.3808 274.116 77.6475 273.197 77.6475C272.278 77.6475 271.533 78.3808 271.533 79.2855C271.533 80.1901 272.278 80.9235 273.197 80.9235Z" stroke="#263238" stroke-miterlimit="10" stroke-linecap="round"/>
<path d="M287.495 80.9235C288.414 80.9235 289.159 80.1901 289.159 79.2855C289.159 78.3808 288.414 77.6475 287.495 77.6475C286.576 77.6475 285.831 78.3808 285.831 79.2855C285.831 80.1901 286.576 80.9235 287.495 80.9235Z" stroke="#263238" stroke-miterlimit="10" stroke-linecap="round"/>
<path d="M230.31 91.8288C231.229 91.8288 231.974 91.0954 231.974 90.1908C231.974 89.2862 231.229 88.5528 230.31 88.5528C229.391 88.5528 228.646 89.2862 228.646 90.1908C228.646 91.0954 229.391 91.8288 230.31 91.8288Z" stroke="#263238" stroke-miterlimit="10" stroke-linecap="round"/>
<path d="M244.608 91.8288C245.527 91.8288 246.272 91.0954 246.272 90.1908C246.272 89.2862 245.527 88.5528 244.608 88.5528C243.689 88.5528 242.944 89.2862 242.944 90.1908C242.944 91.0954 243.689 91.8288 244.608 91.8288Z" stroke="#263238" stroke-miterlimit="10" stroke-linecap="round"/>
<path d="M258.906 91.8288C259.825 91.8288 260.57 91.0954 260.57 90.1908C260.57 89.2862 259.825 88.5528 258.906 88.5528C257.987 88.5528 257.242 89.2862 257.242 90.1908C257.242 91.0954 257.987 91.8288 258.906 91.8288Z" stroke="#263238" stroke-miterlimit="10" stroke-linecap="round"/>
<path d="M273.197 91.8288C274.116 91.8288 274.861 91.0954 274.861 90.1908C274.861 89.2862 274.116 88.5528 273.197 88.5528C272.278 88.5528 271.533 89.2862 271.533 90.1908C271.533 91.0954 272.278 91.8288 273.197 91.8288Z" stroke="#263238" stroke-miterlimit="10" stroke-linecap="round"/>
<path d="M287.495 91.8288C288.414 91.8288 289.159 91.0954 289.159 90.1908C289.159 89.2862 288.414 88.5528 287.495 88.5528C286.576 88.5528 285.831 89.2862 285.831 90.1908C285.831 91.0954 286.576 91.8288 287.495 91.8288Z" stroke="#263238" stroke-miterlimit="10" stroke-linecap="round"/>
<path d="M230.31 235.708C231.229 235.708 231.974 234.975 231.974 234.07C231.974 233.166 231.229 232.432 230.31 232.432C229.391 232.432 228.646 233.166 228.646 234.07C228.646 234.975 229.391 235.708 230.31 235.708Z" stroke="#263238" stroke-miterlimit="10" stroke-linecap="round"/>
<path d="M244.608 235.708C245.527 235.708 246.272 234.975 246.272 234.07C246.272 233.166 245.527 232.432 244.608 232.432C243.689 232.432 242.944 233.166 242.944 234.07C242.944 234.975 243.689 235.708 244.608 235.708Z" stroke="#263238" stroke-miterlimit="10" stroke-linecap="round"/>
<path d="M258.906 235.708C259.825 235.708 260.57 234.975 260.57 234.07C260.57 233.166 259.825 232.432 258.906 232.432C257.987 232.432 257.242 233.166 257.242 234.07C257.242 234.975 257.987 235.708 258.906 235.708Z" stroke="#263238" stroke-miterlimit="10" stroke-linecap="round"/>
<path d="M273.197 235.708C274.116 235.708 274.861 234.975 274.861 234.07C274.861 233.166 274.116 232.432 273.197 232.432C272.278 232.432 271.533 233.166 271.533 234.07C271.533 234.975 272.278 235.708 273.197 235.708Z" stroke="#263238" stroke-miterlimit="10" stroke-linecap="round"/>
<path d="M287.495 235.708C288.414 235.708 289.159 234.975 289.159 234.07C289.159 233.166 288.414 232.432 287.495 232.432C286.576 232.432 285.831 233.166 285.831 234.07C285.831 234.975 286.576 235.708 287.495 235.708Z" stroke="#263238" stroke-miterlimit="10" stroke-linecap="round"/>
<path d="M230.31 246.613C231.229 246.613 231.974 245.88 231.974 244.975C231.974 244.071 231.229 243.337 230.31 243.337C229.391 243.337 228.646 244.071 228.646 244.975C228.646 245.88 229.391 246.613 230.31 246.613Z" stroke="#263238" stroke-miterlimit="10" stroke-linecap="round"/>
<path d="M244.608 246.613C245.527 246.613 246.272 245.88 246.272 244.975C246.272 244.071 245.527 243.337 244.608 243.337C243.689 243.337 242.944 244.071 242.944 244.975C242.944 245.88 243.689 246.613 244.608 246.613Z" stroke="#263238" stroke-miterlimit="10" stroke-linecap="round"/>
<path d="M258.906 246.613C259.825 246.613 260.57 245.88 260.57 244.975C260.57 244.071 259.825 243.337 258.906 243.337C257.987 243.337 257.242 244.071 257.242 244.975C257.242 245.88 257.987 246.613 258.906 246.613Z" stroke="#263238" stroke-miterlimit="10" stroke-linecap="round"/>
<path d="M273.197 246.613C274.116 246.613 274.861 245.88 274.861 244.975C274.861 244.071 274.116 243.337 273.197 243.337C272.278 243.337 271.533 244.071 271.533 244.975C271.533 245.88 272.278 246.613 273.197 246.613Z" stroke="#263238" stroke-miterlimit="10" stroke-linecap="round"/>
<path d="M287.495 246.613C288.414 246.613 289.159 245.88 289.159 244.975C289.159 244.071 288.414 243.337 287.495 243.337C286.576 243.337 285.831 244.071 285.831 244.975C285.831 245.88 286.576 246.613 287.495 246.613Z" stroke="#263238" stroke-miterlimit="10" stroke-linecap="round"/>
<path d="M230.31 257.512C231.229 257.512 231.974 256.779 231.974 255.874C231.974 254.97 231.229 254.236 230.31 254.236C229.391 254.236 228.646 254.97 228.646 255.874C228.646 256.779 229.391 257.512 230.31 257.512Z" stroke="#263238" stroke-miterlimit="10" stroke-linecap="round"/>
<path d="M244.608 257.512C245.527 257.512 246.272 256.779 246.272 255.874C246.272 254.97 245.527 254.236 244.608 254.236C243.689 254.236 242.944 254.97 242.944 255.874C242.944 256.779 243.689 257.512 244.608 257.512Z" stroke="#263238" stroke-miterlimit="10" stroke-linecap="round"/>
<path d="M258.906 257.512C259.825 257.512 260.57 256.779 260.57 255.874C260.57 254.97 259.825 254.236 258.906 254.236C257.987 254.236 257.242 254.97 257.242 255.874C257.242 256.779 257.987 257.512 258.906 257.512Z" stroke="#263238" stroke-miterlimit="10" stroke-linecap="round"/>
<path d="M273.197 257.512C274.116 257.512 274.861 256.779 274.861 255.874C274.861 254.97 274.116 254.236 273.197 254.236C272.278 254.236 271.533 254.97 271.533 255.874C271.533 256.779 272.278 257.512 273.197 257.512Z" stroke="#263238" stroke-miterlimit="10" stroke-linecap="round"/>
<path d="M287.495 257.512C288.414 257.512 289.159 256.779 289.159 255.874C289.159 254.97 288.414 254.236 287.495 254.236C286.576 254.236 285.831 254.97 285.831 255.874C285.831 256.779 286.576 257.512 287.495 257.512Z" stroke="#263238" stroke-miterlimit="10" stroke-linecap="round"/>
<path d="M230.31 268.418C231.229 268.418 231.974 267.684 231.974 266.78C231.974 265.875 231.229 265.142 230.31 265.142C229.391 265.142 228.646 265.875 228.646 266.78C228.646 267.684 229.391 268.418 230.31 268.418Z" stroke="#263238" stroke-miterlimit="10" stroke-linecap="round"/>
<path d="M244.608 268.418C245.527 268.418 246.272 267.684 246.272 266.78C246.272 265.875 245.527 265.142 244.608 265.142C243.689 265.142 242.944 265.875 242.944 266.78C242.944 267.684 243.689 268.418 244.608 268.418Z" stroke="#263238" stroke-miterlimit="10" stroke-linecap="round"/>
<path d="M258.906 268.418C259.825 268.418 260.57 267.684 260.57 266.78C260.57 265.875 259.825 265.142 258.906 265.142C257.987 265.142 257.242 265.875 257.242 266.78C257.242 267.684 257.987 268.418 258.906 268.418Z" stroke="#263238" stroke-miterlimit="10" stroke-linecap="round"/>
<path d="M273.197 268.418C274.116 268.418 274.861 267.684 274.861 266.78C274.861 265.875 274.116 265.142 273.197 265.142C272.278 265.142 271.533 265.875 271.533 266.78C271.533 267.684 272.278 268.418 273.197 268.418Z" stroke="#263238" stroke-miterlimit="10" stroke-linecap="round"/>
<path d="M287.495 268.418C288.414 268.418 289.159 267.684 289.159 266.78C289.159 265.875 288.414 265.142 287.495 265.142C286.576 265.142 285.831 265.875 285.831 266.78C285.831 267.684 286.576 268.418 287.495 268.418Z" stroke="#263238" stroke-miterlimit="10" stroke-linecap="round"/>
<path d="M230.31 279.317C231.229 279.317 231.974 278.583 231.974 277.679C231.974 276.774 231.229 276.041 230.31 276.041C229.391 276.041 228.646 276.774 228.646 277.679C228.646 278.583 229.391 279.317 230.31 279.317Z" stroke="#263238" stroke-miterlimit="10" stroke-linecap="round"/>
<path d="M244.608 279.317C245.527 279.317 246.272 278.583 246.272 277.679C246.272 276.774 245.527 276.041 244.608 276.041C243.689 276.041 242.944 276.774 242.944 277.679C242.944 278.583 243.689 279.317 244.608 279.317Z" stroke="#263238" stroke-miterlimit="10" stroke-linecap="round"/>
<path d="M258.906 279.317C259.825 279.317 260.57 278.583 260.57 277.679C260.57 276.774 259.825 276.041 258.906 276.041C257.987 276.041 257.242 276.774 257.242 277.679C257.242 278.583 257.987 279.317 258.906 279.317Z" stroke="#263238" stroke-miterlimit="10" stroke-linecap="round"/>
<path d="M273.197 279.317C274.116 279.317 274.861 278.583 274.861 277.679C274.861 276.774 274.116 276.041 273.197 276.041C272.278 276.041 271.533 276.774 271.533 277.679C271.533 278.583 272.278 279.317 273.197 279.317Z" stroke="#263238" stroke-miterlimit="10" stroke-linecap="round"/>
<path d="M287.495 279.317C288.414 279.317 289.159 278.583 289.159 277.679C289.159 276.774 288.414 276.041 287.495 276.041C286.576 276.041 285.831 276.774 285.831 277.679C285.831 278.583 286.576 279.317 287.495 279.317Z" stroke="#263238" stroke-miterlimit="10" stroke-linecap="round"/>
<path d="M230.31 290.222C231.229 290.222 231.974 289.489 231.974 288.584C231.974 287.679 231.229 286.946 230.31 286.946C229.391 286.946 228.646 287.679 228.646 288.584C228.646 289.489 229.391 290.222 230.31 290.222Z" stroke="#263238" stroke-miterlimit="10" stroke-linecap="round"/>
<path d="M244.608 290.222C245.527 290.222 246.272 289.489 246.272 288.584C246.272 287.679 245.527 286.946 244.608 286.946C243.689 286.946 242.944 287.679 242.944 288.584C242.944 289.489 243.689 290.222 244.608 290.222Z" stroke="#263238" stroke-miterlimit="10" stroke-linecap="round"/>
<path d="M258.906 290.222C259.825 290.222 260.57 289.489 260.57 288.584C260.57 287.679 259.825 286.946 258.906 286.946C257.987 286.946 257.242 287.679 257.242 288.584C257.242 289.489 257.987 290.222 258.906 290.222Z" stroke="#263238" stroke-miterlimit="10" stroke-linecap="round"/>
<path d="M273.197 290.222C274.116 290.222 274.861 289.489 274.861 288.584C274.861 287.679 274.116 286.946 273.197 286.946C272.278 286.946 271.533 287.679 271.533 288.584C271.533 289.489 272.278 290.222 273.197 290.222Z" stroke="#263238" stroke-miterlimit="10" stroke-linecap="round"/>
<path d="M287.495 290.222C288.414 290.222 289.159 289.489 289.159 288.584C289.159 287.679 288.414 286.946 287.495 286.946C286.576 286.946 285.831 287.679 285.831 288.584C285.831 289.489 286.576 290.222 287.495 290.222Z" stroke="#263238" stroke-miterlimit="10" stroke-linecap="round"/>
<path d="M158.726 235.708C159.645 235.708 160.39 234.975 160.39 234.07C160.39 233.166 159.645 232.432 158.726 232.432C157.807 232.432 157.062 233.166 157.062 234.07C157.062 234.975 157.807 235.708 158.726 235.708Z" stroke="#263238" stroke-miterlimit="10" stroke-linecap="round"/>
<path d="M173.024 235.708C173.943 235.708 174.688 234.975 174.688 234.07C174.688 233.166 173.943 232.432 173.024 232.432C172.105 232.432 171.36 233.166 171.36 234.07C171.36 234.975 172.105 235.708 173.024 235.708Z" stroke="#263238" stroke-miterlimit="10" stroke-linecap="round"/>
<path d="M187.315 235.708C188.234 235.708 188.979 234.975 188.979 234.07C188.979 233.166 188.234 232.432 187.315 232.432C186.396 232.432 185.651 233.166 185.651 234.07C185.651 234.975 186.396 235.708 187.315 235.708Z" stroke="#263238" stroke-miterlimit="10" stroke-linecap="round"/>
<path d="M201.613 235.708C202.532 235.708 203.277 234.975 203.277 234.07C203.277 233.166 202.532 232.432 201.613 232.432C200.694 232.432 199.949 233.166 199.949 234.07C199.949 234.975 200.694 235.708 201.613 235.708Z" stroke="#263238" stroke-miterlimit="10" stroke-linecap="round"/>
<path d="M215.911 235.708C216.83 235.708 217.575 234.975 217.575 234.07C217.575 233.166 216.83 232.432 215.911 232.432C214.992 232.432 214.247 233.166 214.247 234.07C214.247 234.975 214.992 235.708 215.911 235.708Z" stroke="#263238" stroke-miterlimit="10" stroke-linecap="round"/>
<path d="M158.726 246.613C159.645 246.613 160.39 245.88 160.39 244.975C160.39 244.071 159.645 243.337 158.726 243.337C157.807 243.337 157.062 244.071 157.062 244.975C157.062 245.88 157.807 246.613 158.726 246.613Z" stroke="#263238" stroke-miterlimit="10" stroke-linecap="round"/>
<path d="M173.024 246.613C173.943 246.613 174.688 245.88 174.688 244.975C174.688 244.071 173.943 243.337 173.024 243.337C172.105 243.337 171.36 244.071 171.36 244.975C171.36 245.88 172.105 246.613 173.024 246.613Z" stroke="#263238" stroke-miterlimit="10" stroke-linecap="round"/>
<path d="M187.315 246.613C188.234 246.613 188.979 245.88 188.979 244.975C188.979 244.071 188.234 243.337 187.315 243.337C186.396 243.337 185.651 244.071 185.651 244.975C185.651 245.88 186.396 246.613 187.315 246.613Z" stroke="#263238" stroke-miterlimit="10" stroke-linecap="round"/>
<path d="M201.613 246.613C202.532 246.613 203.277 245.88 203.277 244.975C203.277 244.071 202.532 243.337 201.613 243.337C200.694 243.337 199.949 244.071 199.949 244.975C199.949 245.88 200.694 246.613 201.613 246.613Z" stroke="#263238" stroke-miterlimit="10" stroke-linecap="round"/>
<path d="M215.911 246.613C216.83 246.613 217.575 245.88 217.575 244.975C217.575 244.071 216.83 243.337 215.911 243.337C214.992 243.337 214.247 244.071 214.247 244.975C214.247 245.88 214.992 246.613 215.911 246.613Z" stroke="#263238" stroke-miterlimit="10" stroke-linecap="round"/>
<path d="M158.726 257.512C159.645 257.512 160.39 256.779 160.39 255.874C160.39 254.97 159.645 254.236 158.726 254.236C157.807 254.236 157.062 254.97 157.062 255.874C157.062 256.779 157.807 257.512 158.726 257.512Z" stroke="#263238" stroke-miterlimit="10" stroke-linecap="round"/>
<path d="M173.024 257.512C173.943 257.512 174.688 256.779 174.688 255.874C174.688 254.97 173.943 254.236 173.024 254.236C172.105 254.236 171.36 254.97 171.36 255.874C171.36 256.779 172.105 257.512 173.024 257.512Z" stroke="#263238" stroke-miterlimit="10" stroke-linecap="round"/>
<path d="M187.315 257.512C188.234 257.512 188.979 256.779 188.979 255.874C188.979 254.97 188.234 254.236 187.315 254.236C186.396 254.236 185.651 254.97 185.651 255.874C185.651 256.779 186.396 257.512 187.315 257.512Z" stroke="#263238" stroke-miterlimit="10" stroke-linecap="round"/>
<path d="M201.613 257.512C202.532 257.512 203.277 256.779 203.277 255.874C203.277 254.97 202.532 254.236 201.613 254.236C200.694 254.236 199.949 254.97 199.949 255.874C199.949 256.779 200.694 257.512 201.613 257.512Z" stroke="#263238" stroke-miterlimit="10" stroke-linecap="round"/>
<path d="M215.911 257.512C216.83 257.512 217.575 256.779 217.575 255.874C217.575 254.97 216.83 254.236 215.911 254.236C214.992 254.236 214.247 254.97 214.247 255.874C214.247 256.779 214.992 257.512 215.911 257.512Z" stroke="#263238" stroke-miterlimit="10" stroke-linecap="round"/>
<path d="M158.726 268.418C159.645 268.418 160.39 267.684 160.39 266.78C160.39 265.875 159.645 265.142 158.726 265.142C157.807 265.142 157.062 265.875 157.062 266.78C157.062 267.684 157.807 268.418 158.726 268.418Z" stroke="#263238" stroke-miterlimit="10" stroke-linecap="round"/>
<path d="M173.024 268.418C173.943 268.418 174.688 267.684 174.688 266.78C174.688 265.875 173.943 265.142 173.024 265.142C172.105 265.142 171.36 265.875 171.36 266.78C171.36 267.684 172.105 268.418 173.024 268.418Z" stroke="#263238" stroke-miterlimit="10" stroke-linecap="round"/>
<path d="M187.315 268.418C188.234 268.418 188.979 267.684 188.979 266.78C188.979 265.875 188.234 265.142 187.315 265.142C186.396 265.142 185.651 265.875 185.651 266.78C185.651 267.684 186.396 268.418 187.315 268.418Z" stroke="#263238" stroke-miterlimit="10" stroke-linecap="round"/>
<path d="M201.613 268.418C202.532 268.418 203.277 267.684 203.277 266.78C203.277 265.875 202.532 265.142 201.613 265.142C200.694 265.142 199.949 265.875 199.949 266.78C199.949 267.684 200.694 268.418 201.613 268.418Z" stroke="#263238" stroke-miterlimit="10" stroke-linecap="round"/>
<path d="M215.911 268.418C216.83 268.418 217.575 267.684 217.575 266.78C217.575 265.875 216.83 265.142 215.911 265.142C214.992 265.142 214.247 265.875 214.247 266.78C214.247 267.684 214.992 268.418 215.911 268.418Z" stroke="#263238" stroke-miterlimit="10" stroke-linecap="round"/>
<path d="M158.726 279.317C159.645 279.317 160.39 278.583 160.39 277.679C160.39 276.774 159.645 276.041 158.726 276.041C157.807 276.041 157.062 276.774 157.062 277.679C157.062 278.583 157.807 279.317 158.726 279.317Z" stroke="#263238" stroke-miterlimit="10" stroke-linecap="round"/>
<path d="M173.024 279.317C173.943 279.317 174.688 278.583 174.688 277.679C174.688 276.774 173.943 276.041 173.024 276.041C172.105 276.041 171.36 276.774 171.36 277.679C171.36 278.583 172.105 279.317 173.024 279.317Z" stroke="#263238" stroke-miterlimit="10" stroke-linecap="round"/>
<path d="M187.315 279.317C188.234 279.317 188.979 278.583 188.979 277.679C188.979 276.774 188.234 276.041 187.315 276.041C186.396 276.041 185.651 276.774 185.651 277.679C185.651 278.583 186.396 279.317 187.315 279.317Z" stroke="#263238" stroke-miterlimit="10" stroke-linecap="round"/>
<path d="M201.613 279.317C202.532 279.317 203.277 278.583 203.277 277.679C203.277 276.774 202.532 276.041 201.613 276.041C200.694 276.041 199.949 276.774 199.949 277.679C199.949 278.583 200.694 279.317 201.613 279.317Z" stroke="#263238" stroke-miterlimit="10" stroke-linecap="round"/>
<path d="M215.911 279.317C216.83 279.317 217.575 278.583 217.575 277.679C217.575 276.774 216.83 276.041 215.911 276.041C214.992 276.041 214.247 276.774 214.247 277.679C214.247 278.583 214.992 279.317 215.911 279.317Z" stroke="#263238" stroke-miterlimit="10" stroke-linecap="round"/>
<path d="M158.726 290.222C159.645 290.222 160.39 289.489 160.39 288.584C160.39 287.679 159.645 286.946 158.726 286.946C157.807 286.946 157.062 287.679 157.062 288.584C157.062 289.489 157.807 290.222 158.726 290.222Z" stroke="#263238" stroke-miterlimit="10" stroke-linecap="round"/>
<path d="M173.024 290.222C173.943 290.222 174.688 289.489 174.688 288.584C174.688 287.679 173.943 286.946 173.024 286.946C172.105 286.946 171.36 287.679 171.36 288.584C171.36 289.489 172.105 290.222 173.024 290.222Z" stroke="#263238" stroke-miterlimit="10" stroke-linecap="round"/>
<path d="M187.315 290.222C188.234 290.222 188.979 289.489 188.979 288.584C188.979 287.679 188.234 286.946 187.315 286.946C186.396 286.946 185.651 287.679 185.651 288.584C185.651 289.489 186.396 290.222 187.315 290.222Z" stroke="#263238" stroke-miterlimit="10" stroke-linecap="round"/>
<path d="M201.613 290.222C202.532 290.222 203.277 289.489 203.277 288.584C203.277 287.679 202.532 286.946 201.613 286.946C200.694 286.946 199.949 287.679 199.949 288.584C199.949 289.489 200.694 290.222 201.613 290.222Z" stroke="#263238" stroke-miterlimit="10" stroke-linecap="round"/>
<path d="M215.911 290.222C216.83 290.222 217.575 289.489 217.575 288.584C217.575 287.679 216.83 286.946 215.911 286.946C214.992 286.946 214.247 287.679 214.247 288.584C214.247 289.489 214.992 290.222 215.911 290.222Z" stroke="#263238" stroke-miterlimit="10" stroke-linecap="round"/>
<path d="M87.1425 235.708C88.0615 235.708 88.8065 234.975 88.8065 234.07C88.8065 233.166 88.0615 232.432 87.1425 232.432C86.2235 232.432 85.4785 233.166 85.4785 234.07C85.4785 234.975 86.2235 235.708 87.1425 235.708Z" stroke="#263238" stroke-miterlimit="10" stroke-linecap="round"/>
<path d="M101.434 235.708C102.353 235.708 103.098 234.975 103.098 234.07C103.098 233.166 102.353 232.432 101.434 232.432C100.515 232.432 99.7698 233.166 99.7698 234.07C99.7698 234.975 100.515 235.708 101.434 235.708Z" stroke="#263238" stroke-miterlimit="10" stroke-linecap="round"/>
<path d="M115.731 235.708C116.65 235.708 117.395 234.975 117.395 234.07C117.395 233.166 116.65 232.432 115.731 232.432C114.812 232.432 114.067 233.166 114.067 234.07C114.067 234.975 114.812 235.708 115.731 235.708Z" stroke="#263238" stroke-miterlimit="10" stroke-linecap="round"/>
<path d="M130.029 235.708C130.948 235.708 131.693 234.975 131.693 234.07C131.693 233.166 130.948 232.432 130.029 232.432C129.11 232.432 128.365 233.166 128.365 234.07C128.365 234.975 129.11 235.708 130.029 235.708Z" stroke="#263238" stroke-miterlimit="10" stroke-linecap="round"/>
<path d="M144.32 235.708C145.239 235.708 145.984 234.975 145.984 234.07C145.984 233.166 145.239 232.432 144.32 232.432C143.401 232.432 142.656 233.166 142.656 234.07C142.656 234.975 143.401 235.708 144.32 235.708Z" stroke="#263238" stroke-miterlimit="10" stroke-linecap="round"/>
<path d="M87.1425 246.613C88.0615 246.613 88.8065 245.88 88.8065 244.975C88.8065 244.071 88.0615 243.337 87.1425 243.337C86.2235 243.337 85.4785 244.071 85.4785 244.975C85.4785 245.88 86.2235 246.613 87.1425 246.613Z" stroke="#263238" stroke-miterlimit="10" stroke-linecap="round"/>
<path d="M101.434 246.613C102.353 246.613 103.098 245.88 103.098 244.975C103.098 244.071 102.353 243.337 101.434 243.337C100.515 243.337 99.7698 244.071 99.7698 244.975C99.7698 245.88 100.515 246.613 101.434 246.613Z" stroke="#263238" stroke-miterlimit="10" stroke-linecap="round"/>
<path d="M115.731 246.613C116.65 246.613 117.395 245.88 117.395 244.975C117.395 244.071 116.65 243.337 115.731 243.337C114.812 243.337 114.067 244.071 114.067 244.975C114.067 245.88 114.812 246.613 115.731 246.613Z" stroke="#263238" stroke-miterlimit="10" stroke-linecap="round"/>
<path d="M130.029 246.613C130.948 246.613 131.693 245.88 131.693 244.975C131.693 244.071 130.948 243.337 130.029 243.337C129.11 243.337 128.365 244.071 128.365 244.975C128.365 245.88 129.11 246.613 130.029 246.613Z" stroke="#263238" stroke-miterlimit="10" stroke-linecap="round"/>
<path d="M144.32 246.613C145.239 246.613 145.984 245.88 145.984 244.975C145.984 244.071 145.239 243.337 144.32 243.337C143.401 243.337 142.656 244.071 142.656 244.975C142.656 245.88 143.401 246.613 144.32 246.613Z" stroke="#263238" stroke-miterlimit="10" stroke-linecap="round"/>
<path d="M87.1425 257.512C88.0615 257.512 88.8065 256.779 88.8065 255.874C88.8065 254.97 88.0615 254.236 87.1425 254.236C86.2235 254.236 85.4785 254.97 85.4785 255.874C85.4785 256.779 86.2235 257.512 87.1425 257.512Z" stroke="#263238" stroke-miterlimit="10" stroke-linecap="round"/>
<path d="M101.434 257.512C102.353 257.512 103.098 256.779 103.098 255.874C103.098 254.97 102.353 254.236 101.434 254.236C100.515 254.236 99.7698 254.97 99.7698 255.874C99.7698 256.779 100.515 257.512 101.434 257.512Z" stroke="#263238" stroke-miterlimit="10" stroke-linecap="round"/>
<path d="M115.731 257.512C116.65 257.512 117.395 256.779 117.395 255.874C117.395 254.97 116.65 254.236 115.731 254.236C114.812 254.236 114.067 254.97 114.067 255.874C114.067 256.779 114.812 257.512 115.731 257.512Z" stroke="#263238" stroke-miterlimit="10" stroke-linecap="round"/>
<path d="M130.029 257.512C130.948 257.512 131.693 256.779 131.693 255.874C131.693 254.97 130.948 254.236 130.029 254.236C129.11 254.236 128.365 254.97 128.365 255.874C128.365 256.779 129.11 257.512 130.029 257.512Z" stroke="#263238" stroke-miterlimit="10" stroke-linecap="round"/>
<path d="M144.32 257.512C145.239 257.512 145.984 256.779 145.984 255.874C145.984 254.97 145.239 254.236 144.32 254.236C143.401 254.236 142.656 254.97 142.656 255.874C142.656 256.779 143.401 257.512 144.32 257.512Z" stroke="#263238" stroke-miterlimit="10" stroke-linecap="round"/>
<path d="M87.1425 268.418C88.0615 268.418 88.8065 267.684 88.8065 266.78C88.8065 265.875 88.0615 265.142 87.1425 265.142C86.2235 265.142 85.4785 265.875 85.4785 266.78C85.4785 267.684 86.2235 268.418 87.1425 268.418Z" stroke="#263238" stroke-miterlimit="10" stroke-linecap="round"/>
<path d="M101.434 268.418C102.353 268.418 103.098 267.684 103.098 266.78C103.098 265.875 102.353 265.142 101.434 265.142C100.515 265.142 99.7698 265.875 99.7698 266.78C99.7698 267.684 100.515 268.418 101.434 268.418Z" stroke="#263238" stroke-miterlimit="10" stroke-linecap="round"/>
<path d="M115.731 268.418C116.65 268.418 117.395 267.684 117.395 266.78C117.395 265.875 116.65 265.142 115.731 265.142C114.812 265.142 114.067 265.875 114.067 266.78C114.067 267.684 114.812 268.418 115.731 268.418Z" stroke="#263238" stroke-miterlimit="10" stroke-linecap="round"/>
<path d="M130.029 268.418C130.948 268.418 131.693 267.684 131.693 266.78C131.693 265.875 130.948 265.142 130.029 265.142C129.11 265.142 128.365 265.875 128.365 266.78C128.365 267.684 129.11 268.418 130.029 268.418Z" stroke="#263238" stroke-miterlimit="10" stroke-linecap="round"/>
<path d="M144.32 268.418C145.239 268.418 145.984 267.684 145.984 266.78C145.984 265.875 145.239 265.142 144.32 265.142C143.401 265.142 142.656 265.875 142.656 266.78C142.656 267.684 143.401 268.418 144.32 268.418Z" stroke="#263238" stroke-miterlimit="10" stroke-linecap="round"/>
<path d="M87.1425 279.317C88.0615 279.317 88.8065 278.583 88.8065 277.679C88.8065 276.774 88.0615 276.041 87.1425 276.041C86.2235 276.041 85.4785 276.774 85.4785 277.679C85.4785 278.583 86.2235 279.317 87.1425 279.317Z" stroke="#263238" stroke-miterlimit="10" stroke-linecap="round"/>
<path d="M101.434 279.317C102.353 279.317 103.098 278.583 103.098 277.679C103.098 276.774 102.353 276.041 101.434 276.041C100.515 276.041 99.7698 276.774 99.7698 277.679C99.7698 278.583 100.515 279.317 101.434 279.317Z" stroke="#263238" stroke-miterlimit="10" stroke-linecap="round"/>
<path d="M115.731 279.317C116.65 279.317 117.395 278.583 117.395 277.679C117.395 276.774 116.65 276.041 115.731 276.041C114.812 276.041 114.067 276.774 114.067 277.679C114.067 278.583 114.812 279.317 115.731 279.317Z" stroke="#263238" stroke-miterlimit="10" stroke-linecap="round"/>
<path d="M130.029 279.317C130.948 279.317 131.693 278.583 131.693 277.679C131.693 276.774 130.948 276.041 130.029 276.041C129.11 276.041 128.365 276.774 128.365 277.679C128.365 278.583 129.11 279.317 130.029 279.317Z" stroke="#263238" stroke-miterlimit="10" stroke-linecap="round"/>
<path d="M144.32 279.317C145.239 279.317 145.984 278.583 145.984 277.679C145.984 276.774 145.239 276.041 144.32 276.041C143.401 276.041 142.656 276.774 142.656 277.679C142.656 278.583 143.401 279.317 144.32 279.317Z" stroke="#263238" stroke-miterlimit="10" stroke-linecap="round"/>
<path d="M87.1425 290.222C88.0615 290.222 88.8065 289.489 88.8065 288.584C88.8065 287.679 88.0615 286.946 87.1425 286.946C86.2235 286.946 85.4785 287.679 85.4785 288.584C85.4785 289.489 86.2235 290.222 87.1425 290.222Z" stroke="#263238" stroke-miterlimit="10" stroke-linecap="round"/>
<path d="M101.434 290.222C102.353 290.222 103.098 289.489 103.098 288.584C103.098 287.679 102.353 286.946 101.434 286.946C100.515 286.946 99.7698 287.679 99.7698 288.584C99.7698 289.489 100.515 290.222 101.434 290.222Z" stroke="#263238" stroke-miterlimit="10" stroke-linecap="round"/>
<path d="M115.731 290.222C116.65 290.222 117.395 289.489 117.395 288.584C117.395 287.679 116.65 286.946 115.731 286.946C114.812 286.946 114.067 287.679 114.067 288.584C114.067 289.489 114.812 290.222 115.731 290.222Z" stroke="#263238" stroke-miterlimit="10" stroke-linecap="round"/>
<path d="M130.029 290.222C130.948 290.222 131.693 289.489 131.693 288.584C131.693 287.679 130.948 286.946 130.029 286.946C129.11 286.946 128.365 287.679 128.365 288.584C128.365 289.489 129.11 290.222 130.029 290.222Z" stroke="#263238" stroke-miterlimit="10" stroke-linecap="round"/>
<path d="M144.32 290.222C145.239 290.222 145.984 289.489 145.984 288.584C145.984 287.679 145.239 286.946 144.32 286.946C143.401 286.946 142.656 287.679 142.656 288.584C142.656 289.489 143.401 290.222 144.32 290.222Z" stroke="#263238" stroke-miterlimit="10" stroke-linecap="round"/>
<path d="M270.886 222.125L269.696 187.305C267.073 186.593 264.402 186.067 261.702 185.73C259.531 185.602 257.352 185.644 255.187 185.856L250.24 189.485L246.912 222.125H270.886Z" fill="#263238" stroke="#263238" stroke-miterlimit="10" stroke-linecap="round"/>
<path d="M294.227 222.125C292.947 216.865 287.904 196.718 287.155 194.935C286.298 192.875 266.182 185.277 266.182 185.277L269.107 222.125H294.227Z" fill="#188BA6" stroke="#263238" stroke-miterlimit="10" stroke-linecap="round"/>
<path d="M267.149 197.486C267.149 197.486 267.437 195.647 269.037 196.371C270.637 197.096 273.318 200.781 273.933 199.439C274.547 198.097 271.36 192.78 270.24 190.26C269.12 187.74 270.803 186.965 269.939 186.121C269.075 185.277 266.182 185.302 266.182 185.302L267.149 197.486Z" fill="#188BA6" stroke="#263238" stroke-miterlimit="10" stroke-linecap="round"/>
<path d="M253.587 184.281C253.587 184.281 253.216 195.413 255.059 198.198C256.902 200.983 262.809 202.677 265.024 197.234C266.398 193.63 267.147 189.824 267.238 185.976C267.238 185.976 253.44 183.551 253.587 184.281Z" fill="white" stroke="#263238" stroke-miterlimit="10" stroke-linecap="round"/>
<path d="M251.04 222.125L254.08 186.48C254.08 186.48 247.072 189.265 241.043 190.959C235.014 192.654 231.699 195.193 231.085 196.403C230.47 197.612 224.563 212.625 223.091 214.805C221.619 216.985 221.369 218.194 220.384 219.158C219.129 220.22 217.82 221.216 216.461 222.144L251.04 222.125Z" fill="#188BA6" stroke="#263238" stroke-miterlimit="10" stroke-linecap="round"/>
<path d="M236.122 221.955C236.877 216.72 237.952 209.985 238.714 204.731" stroke="#263238" stroke-miterlimit="10" stroke-linecap="round"/>
<path d="M253.709 185.371C253.709 185.371 250.637 187.891 250.266 189.485C249.894 191.079 249.53 194.689 248.051 196.264C246.573 197.839 244.851 199.534 245.965 199.414C247.247 199.193 248.416 198.551 249.28 197.593C250.387 196.503 253.216 196.503 253.216 196.503L254.08 186.48L253.709 185.371Z" fill="#188BA6" stroke="#263238" stroke-miterlimit="10" stroke-linecap="round"/>
<path d="M252.883 155.799C252.883 155.799 249.427 160.209 249.625 162.817C249.824 165.425 250.649 177.849 251.865 180.653C253.081 183.456 253.497 187.066 256.755 188.471C260.013 189.876 266.323 189.472 267.545 186.864C268.768 184.256 270.393 176.847 270.598 175.039C270.803 173.231 271.821 164.43 271.821 164.43C271.821 164.43 274.265 163.031 274.265 162.225C274.265 161.419 269.785 158.621 269.785 158.621C269.785 158.621 271.616 156.416 270.598 155.012C269.581 153.607 260.422 154.01 260.422 154.01C260.422 154.01 261.843 152.006 258.585 152.006C255.328 152.006 252.883 155.799 252.883 155.799Z" fill="white" stroke="#263238" stroke-miterlimit="10" stroke-linecap="round"/>
<path d="M253.587 166.868C253.587 166.868 255.334 165.791 257.741 167.296" stroke="#263238" stroke-width="2" stroke-miterlimit="10" stroke-linecap="round"/>
<path d="M260.806 166.868C261.516 166.44 262.348 166.25 263.177 166.327C264.005 166.404 264.786 166.744 265.402 167.296" stroke="#263238" stroke-width="2" stroke-miterlimit="10" stroke-linecap="round"/>
<path d="M269.785 158.609C269.785 158.609 271.616 156.404 270.598 154.999C269.581 153.594 260.422 153.997 260.422 153.997C260.422 153.997 261.843 151.994 258.585 151.994C255.328 151.994 252.883 155.774 252.883 155.774C252.883 155.774 249.427 160.184 249.625 162.792C249.721 163.945 249.933 167.045 250.265 170.352C250.31 170.05 250.681 167.612 250.867 165.167C251.072 162.565 252.499 160.562 253.721 160.159C254.944 159.755 255.142 162.162 258.809 162.364C262.477 162.565 264.102 159.157 266.342 160.562C268.582 161.967 267.769 166.175 267.769 167.372C267.769 168.569 270.208 168.777 270.208 169.577C270.208 170.207 270.739 172.431 270.733 173.987C271.065 171.077 271.84 164.354 271.84 164.354C271.84 164.354 274.285 162.956 274.285 162.149C274.285 161.343 269.785 158.609 269.785 158.609Z" fill="#263238" stroke="#263238" stroke-miterlimit="10" stroke-linecap="round"/>
<path d="M270.598 175.039C270.509 175.36 270.509 175.31 270.598 175.039Z" stroke="#263238" stroke-miterlimit="10" stroke-linecap="round"/>
<path d="M256.326 170.358C256.326 171.026 256.025 171.568 255.654 171.568C255.283 171.568 254.976 171.026 254.976 170.358C254.976 169.69 255.277 169.149 255.654 169.149C256.032 169.149 256.326 169.69 256.326 170.358Z" fill="#263238"/>
<path d="M263.462 170.604C263.462 171.272 263.155 171.814 262.784 171.814C262.413 171.814 262.105 171.272 262.105 170.604C262.105 169.936 262.413 169.388 262.784 169.388C263.155 169.388 263.462 169.93 263.462 170.604Z" fill="#263238"/>
<path d="M250.387 169.993C250.387 169.993 248.422 168.178 248.173 170.963C247.923 173.748 250.733 175.562 250.733 175.562L250.387 169.993Z" stroke="#263238" stroke-miterlimit="10" stroke-linecap="round"/>
<path d="M271.046 170.358C271.046 170.358 273.606 168.783 273.606 171.083C273.606 173.382 270.406 177.137 270.406 177.137L271.046 170.358Z" stroke="#263238" stroke-miterlimit="10" stroke-linecap="round"/>
<path d="M258.259 169.149C258.124 170.171 257.91 171.182 257.619 172.173C257.248 173.263 254.669 174.352 256.39 175.203C257.637 175.704 259.007 175.829 260.326 175.562" stroke="#263238" stroke-miterlimit="10" stroke-linecap="round"/>
<path d="M265.517 178.107C263.302 176.293 259.61 175.203 256.909 176.293C254.208 177.383 252.358 181.251 252.358 181.251L252.16 181.44C253.165 184.105 253.766 187.211 256.736 188.49C259.994 189.888 266.304 189.491 267.526 186.883C268.128 185.43 268.618 183.935 268.992 182.41C268.149 180.754 266.966 179.289 265.517 178.107Z" fill="#263238" stroke="#263238" stroke-miterlimit="10" stroke-linecap="round"/>
<path d="M264.409 184.691C263.917 185.056 263.424 190.021 263.769 190.745C264.115 191.47 266.477 194.015 266.969 192.925C267.144 192.419 267.438 191.961 267.827 191.589L268.934 192.074C268.934 192.074 268.691 195.224 271.149 196.434L273.606 197.644C273.606 197.644 279.878 213.501 282.707 217.621C283.8 219.305 285.137 220.822 286.675 222.125H294.643C295.923 220.235 295.469 217.022 292.915 213.986C289.35 209.752 281.478 201.638 279.142 198.733C277.72 196.976 276.436 195.114 275.302 193.164L274.937 192.679C274.937 192.679 273.088 186.631 272.23 183.481C271.373 180.331 270.509 179.607 268.909 179.248C267.309 178.888 263.993 177.673 263.993 179.122C263.993 180.571 267.558 181.182 268.051 181.421C268.544 181.66 269.401 184.81 269.401 184.81C269.401 184.81 264.902 184.332 264.409 184.691Z" fill="white" stroke="#263238" stroke-miterlimit="10" stroke-linecap="round"/>
<path d="M169.6 46.62C169.6 46.62 168.634 34.8012 173.44 29.61C178.976 23.5809 190.547 18.6291 199.718 29.3643C208.89 40.0995 206.406 58.8924 206.656 67.1643C206.822 72.7398 209.382 77.9058 218.816 79.6131" stroke="#FF4F26" stroke-width="2" stroke-miterlimit="10" stroke-linecap="round"/>
<path d="M149.389 113.646C158.406 113.646 165.715 105.167 165.715 94.7079C165.715 84.2488 158.406 75.7701 149.389 75.7701C140.372 75.7701 133.062 84.2488 133.062 94.7079C133.062 105.167 140.372 113.646 149.389 113.646Z" fill="#FF4F26" stroke="#FF4F26" stroke-miterlimit="10" stroke-linecap="round"/>
<path d="M173.005 54.8163H166.298V64.0017H173.005V54.8163Z" fill="#696969" stroke="#263238" stroke-miterlimit="10" stroke-linecap="round"/>
<path d="M173.005 54.8163H166.298L168.646 45.6309H170.656L173.005 54.8163Z" fill="#FF4F26" stroke="#FF4F26" stroke-miterlimit="10" stroke-linecap="round"/>
<path d="M178.253 60.8391H161.05V85.5225H178.253V60.8391Z" fill="#FF4F26" stroke="#FF4F26" stroke-miterlimit="10" stroke-linecap="round"/>
<path d="M175.674 109.916H163.635L161.05 85.2327H178.253L175.674 109.916Z" fill="white" stroke="#FF4F26" stroke-miterlimit="10" stroke-linecap="round"/>
<path d="M181.754 71.7507H158.72L152.755 78.8634" stroke="#FF4F26" stroke-width="5" stroke-linecap="round" stroke-linejoin="round"/>
<path d="M185.83 71.7444C185.83 71.1759 185.659 70.6202 185.338 70.1477C185.017 69.6751 184.561 69.3069 184.027 69.0897C183.494 68.8724 182.907 68.8159 182.34 68.9272C181.774 69.0386 181.254 69.3128 180.846 69.7152C180.438 70.1176 180.161 70.6301 180.049 71.1878C179.937 71.7455 179.996 72.3233 180.218 72.8481C180.44 73.3729 180.815 73.8212 181.295 74.1361C181.776 74.451 182.341 74.6184 182.918 74.6172C183.301 74.6172 183.681 74.5428 184.034 74.3984C184.388 74.2539 184.709 74.0422 184.98 73.7754C185.25 73.5085 185.465 73.1918 185.611 72.8433C185.757 72.4948 185.831 72.1213 185.83 71.7444Z" fill="#263238"/>
<path d="M248.602 85.995L286.125 94.1346" stroke="#FF4F26" stroke-width="5" stroke-linecap="round" stroke-linejoin="round"/>
<path d="M217.939 79.3422L248.602 85.995" stroke="#FF4F26" stroke-width="9" stroke-linecap="round" stroke-linejoin="round"/>
<path d="M182.918 71.7444L217.939 79.3422" stroke="#FF4F26" stroke-width="5" stroke-linecap="round" stroke-linejoin="round"/>
<path d="M229.274 81.7929H238.016V101.115C238.016 102.154 237.597 103.151 236.85 103.886C236.104 104.621 235.091 105.034 234.035 105.034H233.254C232.199 105.034 231.186 104.621 230.44 103.886C229.693 103.151 229.274 102.154 229.274 101.115V81.7929Z" fill="#FF4F26"/>
<path d="M233.459 100.05V294.777" stroke="#FF4F26" stroke-width="6" stroke-linejoin="round"/>
<path d="M106.528 81.0621C107.168 81.0621 116.96 82.7379 120.147 75.8268C123.334 68.9157 112.704 69.7536 112.064 63.6741C111.424 57.5946 120.787 55.7172 116.109 49.2219C111.43 42.7266 99.936 46.0719 96.3136 48.5919C92.6912 51.1119 89.7216 48.384 84.6144 45.4419C79.5072 42.4998 65.0368 52.5609 65.0368 52.5609C59.4007 52.523 53.8681 54.0515 49.0752 56.9709C41.3952 61.7904 42.6752 69.9615 41.6256 73.1052C40.576 76.2489 24.3904 74.3652 20.5568 80.0352C16.7232 85.7052 21.8368 91.3752 21.408 95.3253C20.9792 99.2754 10.7712 99.7353 11.4048 108.524C12.0384 117.312 23.9616 121.124 21.8368 124.652C19.712 128.18 16.512 131.582 20.1344 136.382C23.7568 141.183 34.816 144.976 43.1168 143.942C51.4176 142.909 61.8432 128.86 67.5904 128.86C73.3376 128.86 88.6528 135.16 94.6112 129.912C100.57 124.664 97.3824 114.83 93.9712 110.219C90.56 105.607 90.1312 91.1547 94.1824 86.1273C98.2336 81.0999 106.528 81.0621 106.528 81.0621Z" fill="#263238" stroke="#263238" stroke-miterlimit="10" stroke-linecap="round"/>
<path d="M41.0624 205.676C41.0624 214.899 38.5024 231.506 36.5824 237.957C34.6624 244.409 35.1808 262.395 34.944 273.237C34.7584 281.957 35.328 291.407 35.584 294.783H132.115C131.475 291.766 130.33 285.466 128.435 273.237C125.389 253.638 118.362 224.816 117.421 221.823C116.48 218.831 109.44 199.912 109.222 183.33C109.048 173.944 109.362 164.555 110.163 155.201C110.163 155.201 134.522 164.424 143.187 165.117C151.853 165.81 158.413 165.35 161.229 160.272C164.045 155.194 161.229 148.976 153.728 145.517C146.227 142.059 126.79 134.681 119.296 129.837C111.802 124.992 110.394 121.54 102.195 120.387C93.9968 119.234 86.9696 119.921 78.5152 119.001C70.0608 118.081 64.6912 118.081 64.6912 118.081C55.9252 122.046 46.6277 124.755 37.0816 126.126C28.8576 127.317 23.0016 138.096 24.6656 149.871C26.3296 161.645 41.0624 196.453 41.0624 205.676Z" fill="#263238" stroke="#263238" stroke-miterlimit="10" stroke-linecap="round"/>
<path d="M143.187 165.091C151.859 165.784 158.413 165.325 161.229 160.247C164.045 155.169 161.229 148.951 153.728 145.492C146.227 142.033 126.79 134.656 119.296 129.811C111.802 124.967 110.394 121.514 102.195 120.361C93.9968 119.209 86.9696 119.895 78.5152 118.975C70.0608 118.056 64.6912 118.056 64.6912 118.056C55.9266 122.029 46.629 124.747 37.0816 126.126C28.8576 127.317 23.0016 138.096 24.6656 149.871C26.3296 161.645 41.0624 196.453 41.0624 205.676C41.0624 214.899 38.5024 231.506 36.5824 237.957C35.9205 240.781 35.5368 243.661 35.4368 246.557C47.1232 252.013 76.2176 260.707 122.573 243.35C120.134 232.369 117.901 223.417 117.395 221.817C116.48 218.818 109.44 199.912 109.222 183.33C109.048 173.944 109.362 164.555 110.163 155.201C110.163 155.201 134.522 164.43 143.187 165.091Z" fill="#0C4756" stroke="#263238" stroke-miterlimit="10" stroke-linecap="round"/>
<path d="M122.598 243.35C121.99 240.622 121.395 238.02 120.838 235.626C113.946 238.43 103.27 241.548 87.0464 243.816C58.9312 247.766 42.6176 242.619 36.192 239.778C35.8242 242.019 35.5806 244.277 35.4624 246.544C47.1488 252 76.2432 260.707 122.598 243.35Z" fill="white" stroke="#263238" stroke-miterlimit="10" stroke-linecap="round"/>
<path d="M110.163 155.175L111.814 144.459L116.429 157.128L110.163 155.175Z" fill="#263238" stroke="#263238" stroke-miterlimit="10" stroke-linecap="round"/>
<path d="M30.6431 166.433C30.6431 166.433 43.1103 197.461 53.3695 198.563C63.6287 199.666 55.5711 157.053 53.7599 153.09C52.2343 149.987 50.5247 146.974 48.6399 144.068" stroke="#263238" stroke-miterlimit="10" stroke-linecap="round"/>
<path d="M59.9103 196.68L57.0879 232.13C57.0879 232.13 60.7743 232.76 67.2831 233.39C71.3382 233.766 75.4257 233.622 79.4431 232.961L79.8719 230.397L77.0559 193.454L59.9103 196.68Z" fill="#263238" stroke="#263238" stroke-miterlimit="10" stroke-linecap="round"/>
<path d="M70.3424 127.26C70.3424 127.26 81.3504 156.309 81.3504 173.603C81.3504 190.896 81.1135 231.248 81.1135 231.248C81.1135 231.248 73.8559 232.401 67.7631 231.481C61.6703 230.561 57.9264 230.095 57.9264 230.095C57.9264 230.095 63.3151 186.537 59.0975 157.5C54.8799 128.463 53.0048 122.686 53.0048 122.686C52.6491 120.974 52.8996 119.193 53.7146 117.64C54.5296 116.087 55.8601 114.855 57.4848 114.15C63.3152 111.365 70.3424 127.26 70.3424 127.26Z" fill="#188BA6" stroke="#263238" stroke-miterlimit="10" stroke-linecap="round"/>
<path d="M70.3425 127.26C70.3425 127.26 69.5233 125.408 68.2177 123.083C65.5489 121.25 63.2001 119.763 62.5793 119.706C60.9921 119.561 57.3953 119.561 56.8193 119.561L52.8641 120.96C52.8434 121.528 52.8907 122.097 53.0049 122.655C53.0049 122.655 53.4529 124.022 54.3873 128.734C60.7873 131.689 68.8001 135.173 73.5873 136.571C71.7505 131.002 70.3425 127.26 70.3425 127.26Z" fill="#263238" stroke="#263238" stroke-miterlimit="10" stroke-linecap="round"/>
<path d="M97.0047 168.487C97.0047 168.487 96.3647 184.508 96.1407 198.601C95.9167 212.694 97.4207 230.637 97.4207 230.637L115.648 224.444V217.394L106.099 166.78L97.0047 168.487Z" fill="#263238" stroke="#263238" stroke-miterlimit="10" stroke-linecap="round"/>
<path d="M85.3311 129.585C85.3311 129.585 97.4911 156.561 97.4911 177.773C97.4911 198.985 99.3663 228.961 99.3663 228.961L119.04 221.584C119.04 221.584 114.355 172.929 106.387 154.256C98.4191 135.582 91.3983 124.047 91.3983 124.047L85.3311 129.585Z" fill="#188BA6" stroke="#263238" stroke-miterlimit="10" stroke-linecap="round"/>
<path d="M86.7393 112.291C86.7393 112.291 91.8913 119.221 92.8257 121.514C93.7601 123.808 93.5297 125.433 91.8913 127.506C90.2529 129.578 85.7985 136.729 82.0545 137.422C78.3105 138.115 67.6545 132.546 62.2657 127.934C56.8769 123.322 55.5841 115.517 57.4593 110.924C59.3345 106.331 62.5793 100.315 65.4209 100.088C68.2625 99.8613 86.7393 112.291 86.7393 112.291Z" fill="#188BA6" stroke="#263238" stroke-miterlimit="10" stroke-linecap="round"/>
<path d="M82.9888 123.587C85.3623 124.165 87.7952 124.473 90.24 124.507Z" fill="white"/>
<path d="M82.9888 123.587C85.3623 124.165 87.7952 124.473 90.24 124.507" stroke="#263238" stroke-miterlimit="10" stroke-linecap="round"/>
<path d="M90.4831 110.445C88.378 112.349 86.643 114.614 85.3631 117.13C83.2575 121.281 83.0207 123.587 83.0207 123.587C83.0207 123.587 76.6207 122.006 72.2495 118.975C68.4647 116.455 65.7132 112.693 64.4863 108.36C64.4863 108.36 65.8879 97.7571 70.5727 94.0653C75.2575 90.3735 90.4831 110.445 90.4831 110.445Z" fill="white" stroke="#263238" stroke-miterlimit="10" stroke-linecap="round"/>
<path d="M85.5615 116.701C86.8253 114.353 88.4901 112.237 90.4831 110.445C90.4831 110.445 75.2575 90.3861 70.5727 94.0653C69.7843 94.7147 69.1022 95.4796 68.5503 96.3333C69.6703 100.063 73.8431 110.949 85.5615 116.701Z" fill="#263238"/>
<path d="M152.794 163.939C157.242 163.939 161.926 162.553 162.867 156.788C163.808 151.024 159.584 138.115 149.517 129.352C139.45 120.588 121.638 108.599 119.296 104.908C116.954 101.216 112.736 93.87 112.038 89.6931C111.341 85.5162 106.65 79.317 106.65 79.317C106.65 79.317 105.011 97.7634 103.84 100.296C102.669 102.829 105.478 103.755 108.992 106.527C112.506 109.299 119.04 124.047 124.218 132.577C129.395 141.107 139.443 155.887 143.187 158.174" fill="white"/>
<path d="M152.794 163.939C157.242 163.939 161.926 162.553 162.867 156.788C163.808 151.024 159.584 138.115 149.517 129.352C139.45 120.588 121.638 108.599 119.296 104.908C116.954 101.216 112.736 93.87 112.038 89.6931C111.341 85.5162 106.65 79.317 106.65 79.317C106.65 79.317 105.011 97.7634 103.84 100.296C102.669 102.829 105.478 103.755 108.992 106.527C112.506 109.299 119.04 124.047 124.218 132.577C129.395 141.107 139.443 155.887 143.187 158.174" stroke="#263238" stroke-miterlimit="10" stroke-linecap="round"/>
<path d="M145.709 126.176C135.501 117.905 121.389 108.171 119.296 104.908C116.954 101.222 112.736 93.8448 112.038 89.6931C111.341 85.5414 106.65 79.317 106.65 79.317C106.65 79.317 105.011 97.7634 103.84 100.296C102.669 102.829 105.478 103.755 108.992 106.527C112.506 109.299 119.04 124.047 124.218 132.577C125.382 134.511 126.778 136.76 128.339 139.11C129.21 138.764 130.163 138.361 131.245 137.882C136.461 135.563 142.643 129.44 145.709 126.176Z" fill="white" stroke="#263238" stroke-miterlimit="10" stroke-linecap="round"/>
<path d="M94.3615 65.6712C94.3615 65.6712 104.07 71.3412 105.881 75.2283C107.693 79.1154 108.915 91.6587 106.79 99.1242C104.665 106.59 101.939 114.055 97.9903 113.759C94.0415 113.463 81.3503 109.752 77.6639 107.188C74.1119 104.706 69.1711 99.1242 68.5631 96.138C67.9551 93.1518 70.9887 88.3701 74.3231 86.5809C77.6575 84.7917 81.2991 82.6938 81.9071 79.4115C82.5151 76.1292 83.1231 73.4391 86.4575 73.4391C89.7919 73.4391 94.6623 72.8406 94.3615 65.6712Z" fill="white" stroke="#263238" stroke-miterlimit="10" stroke-linecap="round"/>
<path d="M96.1088 83.9286C96.1088 83.9286 92.8256 85.5414 89.5488 84.6216" stroke="#263238" stroke-miterlimit="10" stroke-linecap="round"/>
<path d="M97.5103 76.7781C97.5103 76.7781 92.3583 74.9322 88.8447 79.0839" stroke="#263238" stroke-width="2" stroke-miterlimit="10" stroke-linecap="round"/>
<path d="M102.899 77.238C102.899 77.238 104.538 74.9322 105.946 76.7781" stroke="#263238" stroke-width="2" stroke-miterlimit="10" stroke-linecap="round"/>
<path d="M102.195 92.4588C102.195 92.4588 105.242 91.9989 106.675 89.9388C108.109 87.8787 104.115 85.3272 102.694 82.7946C101.274 80.262 102.925 77.2569 102.925 77.2569" stroke="#263238" stroke-miterlimit="10" stroke-linecap="round"/>
<path d="M107.117 83.2356C106.071 83.6194 104.953 83.7763 103.84 83.6955" stroke="#263238" stroke-miterlimit="10" stroke-linecap="round"/>
<path d="M102.432 97.0704C102.432 97.0704 93.5295 99.5904 93.5295 100.989C93.5295 102.388 98.2143 103.988 99.6223 103.068C101.03 102.148 100.09 99.3762 102.432 97.0704Z" stroke="#263238" stroke-miterlimit="10" stroke-linecap="round"/>
<path d="M64.9152 52.5924C62.5669 52.1755 60.1509 52.3269 57.8752 53.0334C56.1344 59.8941 54.0352 74.0754 59.8784 91.5138L66.2016 89.4915C60.2112 71.5239 63.5072 57.2229 64.9152 52.5924Z" fill="white" stroke="#FF4F26" stroke-miterlimit="10" stroke-linecap="round"/>
<path d="M69.5719 101.629C75.3905 98.6016 77.503 91.2971 74.2903 85.314C71.0776 79.331 63.7563 76.9351 57.9376 79.9627C52.119 82.9902 50.0065 90.2947 53.2192 96.2777C56.4319 102.261 63.7532 104.657 69.5719 101.629Z" fill="white" stroke="#FF4F26" stroke-miterlimit="10" stroke-linecap="round"/>
<path d="M67.918 98.5553C72.0804 96.3896 73.5908 91.1626 71.2915 86.8807C68.9923 82.5988 63.7541 80.8833 59.5916 83.0491C55.4292 85.2149 53.9189 90.4418 56.2181 94.7237C58.5174 99.0057 63.7556 100.721 67.918 98.5553Z" stroke="#FF4F26" stroke-miterlimit="10" stroke-linecap="round"/>
<path d="M59.0975 112.978C59.0975 112.978 60.5055 116.437 61.9071 118.975C63.3087 121.514 62.3743 124.507 62.3743 124.507C62.3743 124.507 62.3743 125.2 63.7823 131.657C65.7023 140.402 66.4063 149.53 67.2959 158.413C68.3647 169.054 70.8223 191.772 59.0975 198.292C49.4975 203.622 43.4687 189.391 43.6607 182.605C43.9362 176.446 45.2333 170.372 47.5007 164.625C50.5471 156.788 52.9983 131.865 52.7679 129.585C52.5375 127.304 47.8527 115.29 45.9775 111.138C44.1023 106.987 42.9375 104.681 44.5759 101.915C46.2143 99.1494 52.5375 92.4651 52.5375 92.4651C52.5375 92.4651 57.2223 86.0076 57.2223 92.6982C56.5261 94.4612 55.6692 96.1586 54.6623 97.7697L51.3791 102.608C51.3791 102.608 56.7679 99.8424 58.1759 97.0767C59.5839 94.311 61.4399 92.2257 62.1439 93.87C62.8479 95.5143 62.1439 97.5555 60.7359 100.554C59.3279 103.553 56.3199 108.36 56.3199 108.36L59.0975 112.978Z" fill="white" stroke="#263238" stroke-miterlimit="10" stroke-linecap="round"/>
<path d="M51.8335 93.1518L45.9775 102.602" stroke="#263238" stroke-miterlimit="10" stroke-linecap="round"/>
<path d="M68.1727 169.344C58.3679 170.377 51.5327 167.41 47.4687 164.732C45.2111 170.445 43.9141 176.482 43.6287 182.606C43.4367 189.391 49.4975 203.622 59.0655 198.293C67.5967 193.568 68.6463 180.325 68.1727 169.344Z" stroke="#263238" stroke-miterlimit="10" stroke-linecap="round"/>
</svg>
