<svg width="18" height="18" viewBox="0 0 18 18" fill="none" xmlns="http://www.w3.org/2000/svg">
<path fill-rule="evenodd" clip-rule="evenodd" d="M8.97351 0.974976H9.02669C10.4061 0.974972 11.4771 0.97497 12.3323 1.05248C13.2002 1.13114 13.8973 1.29293 14.5126 1.6482C15.2765 2.08923 15.9108 2.72358 16.3519 3.48748C16.7071 4.10281 16.8689 4.79983 16.9476 5.66773C17.0251 6.52294 17.0251 7.59399 17.0251 8.97343V9.02652C17.0251 10.406 17.0251 11.477 16.9476 12.3322C16.8689 13.2001 16.7071 13.8971 16.3519 14.5125C15.9108 15.2764 15.2765 15.9107 14.5126 16.3518C13.8973 16.707 13.2002 16.8688 12.3323 16.9475C11.4771 17.025 10.4061 17.025 9.02664 17.025H8.97355C7.59411 17.025 6.52306 17.025 5.66785 16.9475C4.79995 16.8688 4.10293 16.707 3.4876 16.3518C2.7237 15.9107 2.08936 15.2764 1.64832 14.5125C1.29306 13.8971 1.13126 13.2001 1.0526 12.3322C0.975092 11.477 0.975094 10.406 0.975098 9.02657V8.97338C0.975094 7.59396 0.975092 6.52293 1.0526 5.66773C1.13126 4.79983 1.29306 4.10281 1.64832 3.48748C2.08936 2.72358 2.7237 2.08923 3.4876 1.6482C4.10293 1.29293 4.79995 1.13114 5.66785 1.05248C6.52305 0.97497 7.59408 0.974972 8.97351 0.974976ZM5.76263 2.09819C4.96755 2.17025 4.44149 2.3099 4.0126 2.55752C3.40832 2.9064 2.90653 3.4082 2.55765 4.01248C2.31003 4.44137 2.17038 4.96743 2.09832 5.76251C2.0256 6.5648 2.0251 7.58839 2.0251 8.99998C2.0251 10.4116 2.0256 11.4351 2.09832 12.2374C2.17038 13.0325 2.31003 13.5586 2.55765 13.9875C2.90653 14.5918 3.40832 15.0935 4.0126 15.4424C4.44149 15.69 4.96755 15.8297 5.76263 15.9018C6.56492 15.9745 7.58851 15.975 9.0001 15.975C10.4117 15.975 11.4353 15.9745 12.2376 15.9018C13.0326 15.8297 13.5587 15.69 13.9876 15.4424C14.5919 15.0935 15.0937 14.5918 15.4425 13.9875C15.6902 13.5586 15.8298 13.0325 15.9019 12.2374C15.9746 11.4351 15.9751 10.4116 15.9751 8.99998C15.9751 7.58839 15.9746 6.5648 15.9019 5.76251C15.8298 4.96743 15.6902 4.44137 15.4425 4.01248C15.0937 3.4082 14.5919 2.9064 13.9876 2.55752C13.5587 2.3099 13.0326 2.17025 12.2376 2.09819C11.4353 2.02548 10.4117 2.02498 9.0001 2.02498C7.58851 2.02498 6.56492 2.02548 5.76263 2.09819Z" fill="white"/>
<path d="M9.5876 5.49583C9.5876 5.82029 9.32456 6.08333 9.0001 6.08333C8.67563 6.08333 8.4126 5.82029 8.4126 5.49583C8.4126 5.17136 8.67563 4.90833 9.0001 4.90833C9.32456 4.90833 9.5876 5.17136 9.5876 5.49583Z" fill="white"/>
<path fill-rule="evenodd" clip-rule="evenodd" d="M9.00015 7.22498C9.2901 7.22498 9.52515 7.46003 9.52515 7.74998V11.9166C9.52515 12.2066 9.2901 12.4416 9.00015 12.4416C8.7102 12.4416 8.47515 12.2066 8.47515 11.9166V7.74998C8.47515 7.46003 8.7102 7.22498 9.00015 7.22498Z" fill="white"/>
</svg>
