<svg width="24" height="24" viewBox="0 0 24 24" fill="none" xmlns="http://www.w3.org/2000/svg">
<path d="M6.18 22.75C6.08 22.75 5.97 22.74 5.88 22.73L3.71 22.43C2.67 22.29 1.73 21.36 1.57 20.3L1.27 18.11C1.17 17.41 1.47 16.5 1.97 15.99L6.36 11.6C5.65 8.76005 6.47 5.76005 8.56 3.69005C11.8 0.460045 17.07 0.450045 20.32 3.69005C21.89 5.26005 22.75 7.35005 22.75 9.57005C22.75 11.79 21.89 13.88 20.32 15.45C18.22 17.53 15.23 18.35 12.41 17.63L8.01 22.02C7.59 22.46 6.84 22.75 6.18 22.75ZM14.43 2.76005C12.68 2.76005 10.94 3.42005 9.61 4.75005C7.81 6.54005 7.16 9.16005 7.91 11.6C7.99 11.87 7.92 12.15 7.72 12.35L3.02 17.05C2.85 17.22 2.71 17.66 2.74 17.89L3.04 20.08C3.1 20.46 3.51 20.89 3.89 20.94L6.07 21.24C6.31 21.28 6.75 21.14 6.92 20.97L11.64 16.26C11.84 16.06 12.13 16 12.39 16.08C14.8 16.84 17.43 16.19 19.23 14.39C20.51 13.11 21.22 11.39 21.22 9.57005C21.22 7.74005 20.51 6.03005 19.23 4.75005C17.93 3.43005 16.18 2.76005 14.43 2.76005Z" fill="#737373"/>
<path d="M9.19 20.5401C9 20.5401 8.81 20.4701 8.66 20.3201L6.36 18.0201C6.07 17.7301 6.07 17.2501 6.36 16.9601C6.65 16.6701 7.13 16.6701 7.42 16.9601L9.72 19.2601C10.01 19.5501 10.01 20.0301 9.72 20.3201C9.57 20.4701 9.38 20.5401 9.19 20.5401Z" fill="#737373"/>
<path d="M14.5 11.75C13.26 11.75 12.25 10.74 12.25 9.5C12.25 8.26 13.26 7.25 14.5 7.25C15.74 7.25 16.75 8.26 16.75 9.5C16.75 10.74 15.74 11.75 14.5 11.75ZM14.5 8.75C14.09 8.75 13.75 9.09 13.75 9.5C13.75 9.91 14.09 10.25 14.5 10.25C14.91 10.25 15.25 9.91 15.25 9.5C15.25 9.09 14.91 8.75 14.5 8.75Z" fill="#737373"/>
</svg>
