<svg width="20" height="20" viewBox="0 0 20 20" fill="none" xmlns="http://www.w3.org/2000/svg">
<path d="M1 18.748C0.999462 18.7812 1.00561 18.8143 1.01808 18.8451C1.03056 18.8759 1.0491 18.9039 1.07261 18.9274C1.09612 18.9509 1.12411 18.9695 1.15493 18.9819C1.18575 18.9944 1.21876 19.0005 1.252 19H18.748C18.7812 19.0005 18.8143 18.9944 18.8451 18.9819C18.8759 18.9695 18.9039 18.9509 18.9274 18.9274C18.9509 18.9039 18.9694 18.8759 18.9819 18.8451C18.9944 18.8143 19.0005 18.7812 19 18.748V17.502C18.9994 17.0219 18.8563 16.5528 18.589 16.1541C18.3216 15.7553 17.9419 15.4449 17.498 15.262C17.7612 15.0654 17.9558 14.7909 18.0542 14.4775C18.1526 14.1641 18.1498 13.8276 18.0462 13.5159C17.9426 13.2041 17.7435 12.9329 17.4771 12.7407C17.2107 12.5485 16.8905 12.445 16.562 12.445C16.2335 12.445 15.9133 12.5485 15.6469 12.7407C15.3805 12.9329 15.1814 13.2041 15.0778 13.5159C14.9742 13.8276 14.9714 14.1641 15.0698 14.4775C15.1682 14.7909 15.3628 15.0654 15.626 15.262C15.0806 15.4895 14.6364 15.9075 14.376 16.438C14.1146 15.908 13.6697 15.4908 13.124 15.264C13.3872 15.0674 13.5818 14.7929 13.6802 14.4795C13.7786 14.1661 13.7758 13.8296 13.6722 13.5179C13.5686 13.2061 13.3695 12.9349 13.1031 12.7427C12.8367 12.5505 12.5165 12.447 12.188 12.447C11.8595 12.447 11.5393 12.5505 11.2729 12.7427C11.0065 12.9349 10.8074 13.2061 10.7038 13.5179C10.6002 13.8296 10.5974 14.1661 10.6958 14.4795C10.7942 14.7929 10.9888 15.0674 11.252 15.264C10.7065 15.4902 10.2616 15.9066 10 16.436C9.73862 15.906 9.29374 15.4888 8.748 15.262C8.99888 15.0718 9.18641 14.8102 9.28601 14.5115C9.3856 14.2128 9.39261 13.891 9.30611 13.5883C9.21962 13.2855 9.04366 13.016 8.8013 12.815C8.55895 12.614 8.26151 12.491 7.948 12.462V11.068H17.386C17.4523 11.068 17.5159 11.0417 17.5628 10.9948C17.6097 10.9479 17.636 10.8843 17.636 10.818V9.70001C17.636 9.6337 17.6097 9.57012 17.5628 9.52323C17.5159 9.47635 17.4523 9.45001 17.386 9.45001H16.958C16.9589 9.43736 16.9589 9.42466 16.958 9.41201V1.25201C16.9591 1.18657 16.9342 1.12336 16.8889 1.07616C16.8436 1.02896 16.7814 1.00158 16.716 1.00001H5.83C5.79693 0.999737 5.76413 1.00609 5.73355 1.01868C5.70296 1.03127 5.6752 1.04986 5.65191 1.07334C5.62861 1.09682 5.61025 1.12472 5.5979 1.15541C5.58555 1.18609 5.57947 1.21894 5.58 1.25201V3.05201C5.23568 3.0851 4.90819 3.2167 4.63671 3.43106C4.36523 3.64542 4.16127 3.93347 4.04923 4.26073C3.93719 4.58799 3.92182 4.9406 4.00495 5.27636C4.08809 5.61213 4.26621 5.91683 4.518 6.15401H4.424C4.15095 6.15453 3.88067 6.20887 3.62863 6.31391C3.37658 6.41895 3.14771 6.57263 2.9551 6.76617C2.76248 6.95972 2.6099 7.18933 2.50607 7.44187C2.40225 7.69442 2.34921 7.96495 2.35 8.23801V12.89C2.18722 13.0468 2.06055 13.2372 1.97881 13.4479C1.89707 13.6587 1.86222 13.8847 1.87668 14.1102C1.89115 14.3358 1.95458 14.5555 2.06257 14.7541C2.17057 14.9526 2.32052 15.1253 2.502 15.26C2.05794 15.4432 1.6782 15.754 1.41083 16.1531C1.14347 16.5522 1.00049 17.0216 1 17.502V18.748ZM16.56 12.948C16.7704 12.948 16.9762 13.0104 17.1511 13.1273C17.3261 13.2442 17.4625 13.4104 17.543 13.6048C17.6235 13.7993 17.6446 14.0132 17.6036 14.2196C17.5625 14.426 17.4612 14.6156 17.3124 14.7644C17.1636 14.9132 16.974 15.0145 16.7676 15.0556C16.5612 15.0966 16.3472 15.0755 16.1528 14.995C15.9584 14.9145 15.7922 14.7781 15.6753 14.6031C15.5584 14.4282 15.496 14.2224 15.496 14.012C15.496 13.7293 15.6083 13.4581 15.8082 13.2582C16.0081 13.0583 16.2793 12.946 16.562 12.946L16.56 12.948ZM16.56 15.576C17.0712 15.5765 17.5613 15.7798 17.9227 16.1413C18.2842 16.5027 18.4875 16.9928 18.488 17.504V18.504H14.624V17.504C14.6248 17.2494 14.6758 16.9975 14.774 16.7627C14.8723 16.5278 15.0159 16.3147 15.1967 16.1354C15.3775 15.9561 15.5918 15.8143 15.8274 15.7179C16.0631 15.6216 16.3154 15.5727 16.57 15.574L16.56 15.576ZM12.188 12.946C12.3984 12.946 12.6042 13.0084 12.7791 13.1253C12.9541 13.2422 13.0905 13.4084 13.171 13.6028C13.2515 13.7973 13.2726 14.0112 13.2316 14.2176C13.1905 14.424 13.0892 14.6136 12.9404 14.7624C12.7916 14.9112 12.602 15.0125 12.3956 15.0536C12.1892 15.0946 11.9752 15.0735 11.7808 14.993C11.5864 14.9125 11.4202 14.7761 11.3033 14.6011C11.1864 14.4262 11.124 14.2204 11.124 14.01C11.1245 13.728 11.2368 13.4577 11.4362 13.2582C11.6356 13.0588 11.906 12.9465 12.188 12.946ZM12.188 15.574C12.6992 15.5745 13.1893 15.7778 13.5507 16.1393C13.9122 16.5007 14.1155 16.9908 14.116 17.502V18.502H10.25V17.502C10.251 17.2473 10.3024 16.9952 10.401 16.7603C10.4996 16.5255 10.6437 16.3124 10.8248 16.1333C11.006 15.9541 11.2207 15.8125 11.4567 15.7166C11.6927 15.6206 11.9453 15.5722 12.2 15.574H12.188ZM9.75 17.502V18.502H5.876V17.502C5.89217 16.9991 6.10332 16.5221 6.46482 16.172C6.82631 15.822 7.30979 15.6263 7.813 15.6263C8.31621 15.6263 8.79969 15.822 9.16119 16.172C9.52268 16.5221 9.73384 16.9991 9.75 17.502ZM8.876 14.01C8.876 14.2204 8.8136 14.4262 8.69669 14.6011C8.57977 14.7761 8.4136 14.9125 8.21918 14.993C8.02476 15.0735 7.81082 15.0946 7.60443 15.0536C7.39803 15.0125 7.20844 14.9112 7.05964 14.7624C6.91084 14.6136 6.8095 14.424 6.76845 14.2176C6.72739 14.0112 6.74846 13.7973 6.82899 13.6028C6.90953 13.4084 7.0459 13.2422 7.22088 13.1253C7.39585 13.0084 7.60156 12.946 7.812 12.946C8.09419 12.946 8.36482 13.0581 8.56436 13.2576C8.7639 13.4572 8.876 13.7278 8.876 14.01ZM17.136 10.568H7.958V9.95001H17.136V10.568ZM16.466 1.50201V9.41201C16.4651 9.42466 16.4651 9.43736 16.466 9.45001H7.958V8.20001H9.578C9.61648 8.20048 9.65454 8.19206 9.68923 8.17541C9.72392 8.15876 9.7543 8.13432 9.778 8.10401L11.302 6.13201C11.3883 6.02347 11.4517 5.89858 11.4885 5.76488C11.5253 5.63118 11.5346 5.49142 11.516 5.35401C11.4971 5.21655 11.4503 5.08441 11.3784 4.96574C11.3065 4.84707 11.2111 4.74438 11.098 4.66401C10.8772 4.51275 10.6067 4.45207 10.3425 4.4945C10.0782 4.53693 9.84035 4.67923 9.678 4.89201L8.666 6.15601H7C7.24222 5.92682 7.416 5.63484 7.50198 5.31266C7.58796 4.99047 7.58275 4.65073 7.48693 4.33133C7.39111 4.01193 7.20845 3.72543 6.95932 3.50377C6.71019 3.28212 6.40438 3.13402 6.076 3.07601V1.50201H16.466ZM4.466 4.85601C4.466 4.59771 4.5426 4.3452 4.6861 4.13043C4.82961 3.91566 5.03358 3.74827 5.27222 3.64942C5.51086 3.55057 5.77345 3.52471 6.02679 3.5751C6.28013 3.6255 6.51284 3.74988 6.69548 3.93253C6.87813 4.11517 7.00251 4.34788 7.05291 4.60122C7.1033 4.85456 7.07744 5.11715 6.97859 5.35579C6.87974 5.59443 6.71235 5.7984 6.49758 5.94191C6.28281 6.08541 6.0303 6.16201 5.772 6.16201C5.59966 6.16333 5.42875 6.13052 5.26915 6.06548C5.10954 6.00044 4.96438 5.90445 4.84205 5.78304C4.71971 5.66164 4.62262 5.51722 4.55636 5.35811C4.49011 5.19901 4.456 5.02836 4.456 4.85601H4.466ZM2.866 8.23801C2.86653 7.82053 3.03247 7.42028 3.32748 7.1249C3.62249 6.82951 4.02253 6.66307 4.44 6.66201H8.786C8.82438 6.66318 8.8625 6.65528 8.89725 6.63895C8.93201 6.62261 8.96241 6.59831 8.986 6.56801L10.072 5.21001C10.1549 5.10108 10.2755 5.02699 10.4101 5.00221C10.5447 4.97743 10.6837 5.00374 10.8 5.07601C10.858 5.11742 10.907 5.17027 10.9438 5.23132C10.9806 5.29236 11.0045 5.3603 11.0141 5.43095C11.0236 5.50159 11.0186 5.57345 10.9994 5.64208C10.9801 5.71071 10.9469 5.77467 10.902 5.83001L9.452 7.70601H7.708C7.6417 7.70601 7.57811 7.73235 7.53123 7.77923C7.48434 7.82612 7.458 7.8897 7.458 7.95601V12.488C7.16765 12.5547 6.90246 12.7031 6.69379 12.9158C6.48512 13.1284 6.3417 13.3963 6.28049 13.6879C6.21927 13.9794 6.24283 14.2824 6.34836 14.561C6.45389 14.8396 6.63699 15.0822 6.876 15.26C6.33057 15.4875 5.88636 15.9055 5.626 16.436C5.36442 15.9054 4.91869 15.4881 4.372 15.262C4.56018 15.1223 4.71445 14.942 4.82336 14.7344C4.93227 14.5269 4.99302 14.2975 5.00109 14.0632C5.00916 13.829 4.96435 13.596 4.86998 13.3814C4.77561 13.1669 4.63412 12.9764 4.456 12.824V8.40001C4.456 8.3337 4.42966 8.27012 4.38278 8.22323C4.33589 8.17635 4.27231 8.15001 4.206 8.15001C4.1397 8.15001 4.07611 8.17635 4.02923 8.22323C3.98234 8.27012 3.956 8.3337 3.956 8.40001V12.536C3.78981 12.4764 3.61457 12.4459 3.438 12.446C3.23634 12.4462 3.03663 12.4856 2.85 12.562L2.866 8.23801ZM3.454 12.946C3.66444 12.946 3.87015 13.0084 4.04513 13.1253C4.2201 13.2422 4.35648 13.4084 4.43701 13.6028C4.51754 13.7973 4.53861 14.0112 4.49756 14.2176C4.4565 14.424 4.35517 14.6136 4.20636 14.7624C4.05756 14.9112 3.86797 15.0125 3.66158 15.0536C3.45518 15.0946 3.24125 15.0735 3.04683 14.993C2.85241 14.9125 2.68623 14.7761 2.56932 14.6011C2.4524 14.4262 2.39 14.2204 2.39 14.01C2.39049 13.7307 2.50055 13.4628 2.69654 13.2638C2.89252 13.0648 3.15876 12.9507 3.438 12.946H3.454ZM1.502 17.502C1.51817 16.9991 1.72932 16.5221 2.09082 16.172C2.45231 15.822 2.93579 15.6263 3.439 15.6263C3.94221 15.6263 4.42569 15.822 4.78719 16.172C5.14868 16.5221 5.35984 16.9991 5.376 17.502V18.502H1.502V17.502Z" fill="#A3A3A3"/>
</svg>
