<svg width="24" height="24" viewBox="0 0 24 24" fill="none" xmlns="http://www.w3.org/2000/svg">
<path fill-rule="evenodd" clip-rule="evenodd" d="M12.0288 2.00005C7.41977 1.98439 3.6551 5.65135 3.50463 10.2414L3.5 10.5263C3.57661 12.7761 4.34207 14.9207 5.69028 16.6876L6.00692 17.1008C7.2938 18.7371 8.82311 20.1733 10.5403 21.3571L10.9537 21.6354L11.014 21.6828C11.6026 22.1057 12.3973 22.1057 12.9858 21.6828L13.036 21.6415C14.3986 20.7579 15.655 19.7196 16.7805 18.5473C19.0686 16.1252 20.4477 13.4112 20.4998 10.655L20.4999 10.5526C20.5155 5.93192 16.8598 2.15567 12.284 2.00469L12.0288 2.00005ZM12.0237 3.51747C15.8022 3.53038 18.87 6.54942 18.9839 10.3091L18.9871 10.6406C18.9434 12.9514 17.7334 15.3324 15.6866 17.4991C14.6429 18.5862 13.4727 19.5526 12.2036 20.3745L12.119 20.438C12.0506 20.4974 11.9492 20.4974 11.8809 20.438L11.7987 20.376C9.90797 19.1416 8.24857 17.583 6.89636 15.7717C5.80718 14.3442 5.16175 12.6374 5.03184 10.8569L5.01275 10.4999C5.02559 6.71221 8.03532 3.63498 11.7835 3.52071L12.0237 3.51747ZM11.9999 7.40129C10.2115 7.40129 8.76176 8.85554 8.76176 10.6495C8.76176 12.4434 10.2115 13.8976 11.9999 13.8976C13.7883 13.8976 15.2381 12.4434 15.2381 10.6495C15.2381 8.85554 13.7883 7.40129 11.9999 7.40129ZM11.9999 8.91871C12.9528 8.91871 13.7253 9.69359 13.7253 10.6495C13.7253 11.6053 12.9528 12.3802 11.9999 12.3802C11.047 12.3802 10.2745 11.6053 10.2745 10.6495C10.2745 9.69359 11.047 8.91871 11.9999 8.91871Z" fill="#737373"/>
</svg>
