<svg xmlns:mydata="http://www.w3.org/2000/svg" mydata:contrastcolor="ffffff" mydata:template="SingleColorHex1" mydata:presentation="2.5" mydata:layouttype="undefined" mydata:specialfontid="undefined" mydata:id1="062" mydata:id2="155" mydata:companyname="Flutter Triad" mydata:companytagline="" version="1.1" xmlns="http://www.w3.org/2000/svg" xmlns:xlink="http://www.w3.org/1999/xlink" viewBox="0 0 550 470" width="550"  height="470" ><g fill="#222223" fill-rule="none" stroke="none" stroke-width="1" stroke-linecap="butt" stroke-linejoin="miter" stroke-miterlimit="10" stroke-dasharray="" stroke-dashoffset="0" font-family="none" text-anchor="none" style="mix-blend-mode: normal"><g data-paper-data="{&quot;isGlobalGroup&quot;:true,&quot;bounds&quot;:{&quot;x&quot;:65,&quot;y&quot;:128.98410735614416,&quot;width&quot;:420,&quot;height&quot;:212.03178528771164}}" fill="#222223"><g data-paper-data="{&quot;isPrimaryText&quot;:true}" fill-rule="nonzero" fill="#222223"><path d="M70.45914,304.1888v11.92159h16.37743v4.95749h-16.37743v19.03323h-5.45914v-40.8403h24.72845v4.92798z" data-paper-data="{&quot;glyphName&quot;:&quot;F&quot;,&quot;glyphIndex&quot;:0,&quot;firstGlyphOfWord&quot;:true,&quot;word&quot;:1}" fill="#222223"></path><path d="M97.69585,340.10112v-40.8403h5.45914v35.88281h18.47256v4.95749z" data-paper-data="{&quot;glyphName&quot;:&quot;L&quot;,&quot;glyphIndex&quot;:1,&quot;word&quot;:1}" fill="#222223"></path><path d="M157.83496,323.04498c0,4.46568 -0.50165,7.98707 -1.50495,10.56418c-1.0033,2.57711 -2.58203,4.45584 -4.73618,5.6362c-2.15415,1.18036 -5.16897,1.77053 -9.04447,1.77053c-3.85583,0 -6.89524,-0.60001 -9.11825,-1.80004c-2.223,-1.20003 -3.83124,-3.09843 -4.8247,-5.69522c-0.99347,-2.59678 -1.4902,-6.08867 -1.4902,-10.47566v-23.78416h5.45914v23.19399c0,3.58041 0.3246,6.33949 0.97379,8.27724c0.6492,1.93775 1.67709,3.32959 3.08368,4.17551c1.40659,0.84592 3.34926,1.26888 5.82801,1.26888c2.49842,0 4.45584,-0.41804 5.87227,-1.25413c1.41643,-0.83609 2.44432,-2.1689 3.08368,-3.99845c0.63936,-1.82955 0.95904,-4.61322 0.95904,-8.35102v-23.31202h5.45914z" data-paper-data="{&quot;glyphName&quot;:&quot;U&quot;,&quot;glyphIndex&quot;:2,&quot;word&quot;:1}" fill="#222223"></path><path d="M183.38966,304.1888v35.91232h-5.42964v-35.91232h-13.54458v-4.92798h32.51879v4.92798z" data-paper-data="{&quot;glyphName&quot;:&quot;T&quot;,&quot;glyphIndex&quot;:3,&quot;word&quot;:1}" fill="#222223"></path><path d="M218.32818,304.1888v35.91232h-5.42964v-35.91232h-13.54458v-4.92798h32.51879v4.92798z" data-paper-data="{&quot;glyphName&quot;:&quot;T&quot;,&quot;glyphIndex&quot;:4,&quot;word&quot;:1}" fill="#222223"></path><path d="M238.45324,340.10112v-40.8403h24.96452v4.92798h-19.50537v11.92159h16.67252v4.95749h-16.67252v14.07574h19.50537v4.95749z" data-paper-data="{&quot;glyphName&quot;:&quot;E&quot;,&quot;glyphIndex&quot;:5,&quot;word&quot;:1}" fill="#222223"></path><path d="M295.46441,340.10112l-10.41664,-16.67252h-7.11164v16.67252h-5.45914v-40.8403h12.68882c5.07553,0 8.71496,0.93445 10.91829,2.80334c2.20333,1.8689 3.305,4.76077 3.305,8.67561c0,3.34434 -0.67379,5.9903 -2.02136,7.93789c-1.34757,1.94759 -3.53615,3.24598 -6.56573,3.89517l11.06583,17.52828zM293.7529,311.1529c0,-2.69515 -0.68362,-4.54929 -2.05087,-5.56243c-1.36725,-1.01314 -3.56566,-1.51971 -6.59524,-1.51971h-7.17066v14.51837h6.81655c2.28202,0 4.07714,-0.24099 5.38537,-0.72297c1.30823,-0.48198 2.23776,-1.24921 2.78859,-2.30169c0.55083,-1.05248 0.82625,-2.52301 0.82625,-4.41158z" data-paper-data="{&quot;glyphName&quot;:&quot;R&quot;,&quot;glyphIndex&quot;:6,&quot;lastGlyphOfWord&quot;:true,&quot;word&quot;:1}" fill="#222223"></path><path d="M340.11136,304.1888v35.91232h-5.42964v-35.91232h-13.54458v-4.92798h32.51879v4.92798z" data-paper-data="{&quot;glyphName&quot;:&quot;T&quot;,&quot;glyphIndex&quot;:7,&quot;firstGlyphOfWord&quot;:true,&quot;word&quot;:2}" fill="#222223"></path><path d="M383.22385,340.10112l-10.41664,-16.67252h-7.11164v16.67252h-5.45914v-40.8403h12.68882c5.07553,0 8.71496,0.93445 10.91829,2.80334c2.20333,1.8689 3.305,4.76077 3.305,8.67561c0,3.34434 -0.67379,5.9903 -2.02136,7.93789c-1.34757,1.94759 -3.53615,3.24598 -6.56573,3.89517l11.06583,17.52828zM381.51233,311.1529c0,-2.69515 -0.68362,-4.54929 -2.05087,-5.56243c-1.36725,-1.01314 -3.56566,-1.51971 -6.59524,-1.51971h-7.17066v14.51837h6.81655c2.28202,0 4.07714,-0.24099 5.38537,-0.72297c1.30823,-0.48198 2.23776,-1.24921 2.78859,-2.30169c0.55083,-1.05248 0.82625,-2.52301 0.82625,-4.41158z" data-paper-data="{&quot;glyphName&quot;:&quot;R&quot;,&quot;glyphIndex&quot;:8,&quot;word&quot;:2}" fill="#222223"></path><path d="M411.08024,340.10112h-16.70203v-4.72142h5.6362v-31.48598h-5.6362v-4.6329h16.70203v4.6329h-5.6362v31.48598h5.6362z" data-paper-data="{&quot;glyphName&quot;:&quot;I&quot;,&quot;glyphIndex&quot;:9,&quot;word&quot;:2}" fill="#222223"></path><path d="M415.5951,340.10112l13.19047,-40.8403h6.99361l13.07244,40.8403h-5.69522l-11.00682,-35.5287l-11.03632,35.5287z" data-paper-data="{&quot;glyphName&quot;:&quot;Λ&quot;,&quot;glyphIndex&quot;:10,&quot;word&quot;:2}" fill="#222223"></path><path d="M485,319.68097c0,4.99684 -0.64428,8.9707 -1.93283,11.92159c-1.28855,2.95089 -3.27549,5.10504 -5.9608,6.46245c-2.68531,1.35741 -6.46736,2.03611 -11.34617,2.03611h-10.38713v-40.8403h10.26909c4.76077,0 8.51823,0.68362 11.2724,2.05087c2.75416,1.36725 4.79028,3.53615 6.10834,6.50671c1.31806,2.97056 1.9771,6.92475 1.9771,11.86257zM479.24577,319.62195c0,-3.89517 -0.4328,-6.94442 -1.29839,-9.14776c-0.86559,-2.20333 -2.29186,-3.80173 -4.27879,-4.79519c-1.98693,-0.99347 -4.76077,-1.4902 -8.32151,-1.4902h-4.54437v30.95482h4.54437c3.58041,0 6.34933,-0.49673 8.30675,-1.4902c1.95742,-0.99347 3.37877,-2.58695 4.26403,-4.78044c0.88527,-2.19349 1.3279,-5.27717 1.3279,-9.25104z" data-paper-data="{&quot;glyphName&quot;:&quot;D&quot;,&quot;glyphIndex&quot;:11,&quot;lastGlyphOfWord&quot;:true,&quot;word&quot;:2}" fill="#222223"></path></g><g data-paper-data="{&quot;fillRule&quot;:&quot;evenodd&quot;,&quot;fillRuleOriginal&quot;:&quot;evenodd&quot;,&quot;isIcon&quot;:true,&quot;iconStyle&quot;:&quot;standalone&quot;,&quot;selectedEffects&quot;:{&quot;container&quot;:&quot;&quot;,&quot;transformation&quot;:&quot;&quot;,&quot;pattern&quot;:&quot;&quot;},&quot;bounds&quot;:{&quot;x&quot;:203.68980538185906,&quot;y&quot;:128.98410735614416,&quot;width&quot;:142.62038923628188,&quot;height&quot;:142.62038923628185},&quot;iconType&quot;:&quot;icon&quot;,&quot;rawIconId&quot;:&quot;2869688&quot;,&quot;isDetailed&quot;:false,&quot;suitableAsStandaloneIcon&quot;:true}" fill-rule="evenodd" fill="#222223"><path d="M275,271.6045c-39.33562,0 -71.31019,-31.97457 -71.31019,-71.31019c0,-39.33562 31.97457,-71.31019 71.31019,-71.31019c39.33562,0 71.31019,31.97457 71.31019,71.31019c0,39.33562 -31.97457,71.31019 -71.31019,71.31019zM275,131.85952c-37.7254,0 -68.43478,30.70939 -68.43478,68.43478c0,37.7254 30.70939,68.43478 68.43478,68.43478c37.7254,0 68.43478,-30.70939 68.43478,-68.43478c0,-37.7254 -30.70939,-68.43478 -68.43478,-68.43478zM318.3612,169.35488l-0.01495,0.02726c0.89713,-0.80109 2.0749,-1.29244 3.35043,-1.29244c2.7604,0 5.06072,2.30033 5.06072,5.06072c0,2.24167 -1.51707,4.17993 -3.56551,4.8292v44.51435c2.04844,0.64927 3.56551,2.58753 3.56551,4.8292c0,2.7604 -2.30033,5.06072 -5.06072,5.06072c-1.27323,0 -2.4487,-0.48939 -3.34583,-1.28749l-38.39697,22.46317c0.06993,0.33125 0.10685,0.67285 0.10685,1.0225c0,2.87541 -2.30033,5.06072 -5.06072,5.06072c-2.7604,0 -5.06072,-2.30033 -5.06072,-5.06072c0,-0.38761 0.04543,-0.76716 0.13123,-1.13176l-38.08666,-22.56163l0.04589,-0.16827c-0.93048,1.01778 -2.26387,1.66348 -3.72642,1.66348c-2.7604,0 -5.06072,-2.30033 -5.06072,-5.06072c0,-2.28342 1.57412,-4.25204 3.68053,-4.86416v-44.67445c-2.10641,-0.61212 -3.68053,-2.58074 -3.68053,-4.86416c0,-2.7604 2.30033,-5.06072 5.06072,-5.06072c1.41643,0 2.71174,0.60567 3.63728,1.56836l38.17212,-22.23831c-0.11306,-0.41544 -0.17345,-0.85077 -0.17345,-1.29819c0,-2.7604 2.30033,-5.06072 5.06072,-5.06072c2.7604,0 5.06072,2.30033 5.06072,5.06072c0,0.4473 -0.06039,0.88252 -0.17333,1.29785zM316.80963,174.44815l-19.31103,11.09817l-21.00338,-12.21636v-22.60924c0.73737,-0.23371 1.40584,-0.63443 1.95953,-1.15626l-0.00426,0.00759l38.33268,22.38001c-0.09661,0.38508 -0.14722,0.78659 -0.14722,1.19835c0,0.4473 0.06096,0.88252 0.17368,1.29773zM273.61981,150.75569c-0.70126,-0.20381 -1.34362,-0.55795 -1.88846,-1.02399l-38.49037,22.09213c0.08051,0.35391 0.12307,0.72104 0.12307,1.09657c0,0.36678 -0.0406,0.72552 -0.11755,1.07172l19.33967,11.45667l21.03363,-12.18864zM251.8817,188.33259l1.48854,-2.40454l21.62977,12.75601l21.87647,-12.72404l1.33258,2.44307l-21.82886,12.69632v25.8787h-2.7604v-25.8787l-22.54322,-13.22689v26.33876l22.54322,13.11188v22.39485c-0.7675,0.22313 -1.46428,0.62569 -2.04005,1.15937l-38.39778,-22.22497c0.11858,-0.42476 0.18207,-0.87068 0.18207,-1.32924c0,-2.24167 -1.51707,-4.17993 -3.56551,-4.8292v-44.74439c0.78729,-0.24947 1.49602,-0.68941 2.0703,-1.26369zM276.49521,227.25622v22.4963c0.77049,0.24499 1.46577,0.67054 2.03349,1.22723l38.28092,-22.35839c-0.11271,-0.41544 -0.17368,-0.85077 -0.17368,-1.29819c0,-2.28342 1.57457,-4.25204 3.68053,-4.86416v-44.44442c-0.73725,-0.21427 -1.4101,-0.59498 -1.97253,-1.09714l0.01725,0.02852l-19.43778,11.10725v26.15808z" data-paper-data="{&quot;isPathIcon&quot;:true}" fill="#222223"></path></g></g></g></svg>