<svg width="43" height="43" viewBox="0 0 43 43" fill="none" xmlns="http://www.w3.org/2000/svg">
<path fill-rule="evenodd" clip-rule="evenodd" d="M40.0281 35.8415C40.0113 35.828 39.9947 35.8164 39.9787 35.8051C39.9628 35.794 39.9474 35.7832 39.9328 35.7713C41.1257 34.9744 41.645 33.5181 41.2143 32.1774C40.7837 30.8368 39.5033 29.9234 38.0545 29.9234C36.6057 29.9234 35.3253 30.8368 34.8947 32.1774C34.4641 33.5181 34.9834 34.9744 36.1762 35.7713C36.1663 35.7784 36.1564 35.7852 36.1467 35.7918C36.1238 35.8075 36.1016 35.8227 36.0809 35.8415C35.2609 36.5003 34.6832 37.7745 34.3552 39.6299L31.8762 29.6608H38.4178C38.5332 29.6606 38.6433 29.6139 38.7218 29.5319C38.8003 29.4499 38.84 29.3399 38.8316 29.2284C38.6075 26.2984 37.9468 24.3727 36.8675 23.506C36.8492 23.4914 36.8313 23.4786 36.8139 23.4663C36.7995 23.4562 36.7855 23.4463 36.7721 23.4358C37.965 22.6389 38.4843 21.1826 38.0537 19.842C37.6231 18.5013 36.3427 17.588 34.8939 17.588C33.445 17.588 32.1646 18.5013 31.734 19.842C31.3034 21.1826 31.8227 22.6389 33.0156 23.4358C33.0071 23.4419 32.9986 23.4477 32.9901 23.4536C32.9663 23.47 32.9428 23.4863 32.9203 23.506C32.1346 24.1371 31.574 25.3355 31.2384 27.0671L29.547 20.2581C29.5024 20.0772 29.3356 19.9496 29.1437 19.9495H25.5245C25.4034 18.6189 25.1898 17.5 24.8857 16.6H35.9865C36.2156 16.6 36.4013 16.42 36.4013 16.1981V1.40194C36.4013 1.17996 36.2156 1 35.9865 1H7.00682C6.77776 1 6.59207 1.17996 6.59207 1.40194V16.2017C6.59207 16.4237 6.77776 16.6037 7.00682 16.6037H18.1029C17.7988 17.5037 17.5852 18.6226 17.4641 19.9532H13.8563C13.6644 19.9533 13.4976 20.0809 13.453 20.2618L11.7607 27.0708C11.426 25.3392 10.8654 24.1408 10.0797 23.5097C10.0615 23.4951 10.0435 23.4823 10.0261 23.47C10.0118 23.4598 9.99779 23.45 9.9844 23.4395C11.1767 22.6426 11.6955 21.1869 11.265 19.8468C10.8344 18.5066 9.55443 17.5937 8.10613 17.5937C6.65783 17.5937 5.37789 18.5066 4.94731 19.8468C4.51672 21.1869 5.0356 22.6426 6.22786 23.4395C6.21935 23.4456 6.21084 23.4514 6.20236 23.4573C6.17855 23.4737 6.15502 23.49 6.13252 23.5097C5.04655 24.3764 4.38582 26.303 4.16177 29.2321C4.15329 29.3436 4.19306 29.4536 4.27154 29.5356C4.35001 29.6176 4.46014 29.6643 4.57556 29.6645H11.1171L8.63815 39.6336C8.31017 37.7745 7.73238 36.5003 6.91243 35.8452C6.89565 35.8317 6.87911 35.8201 6.86306 35.8089L6.86302 35.8088L6.86299 35.8088C6.84714 35.7977 6.83176 35.7869 6.81708 35.775C8.00996 34.9781 8.52926 33.5218 8.09865 32.1811C7.66804 30.8405 6.38765 29.9271 4.93882 29.9271C3.48998 29.9271 2.20959 30.8405 1.77898 32.1811C1.34837 33.5218 1.86767 34.9781 3.06055 35.775C3.04934 35.7833 3.03813 35.791 3.02701 35.7987L3.02692 35.7988C3.00589 35.8133 2.98514 35.8277 2.9652 35.8452C1.88591 36.7119 1.22518 38.6375 1.00112 41.5685C0.992641 41.68 1.03243 41.7898 1.11094 41.8717C1.18945 41.9535 1.29959 42 1.41492 42H8.47034C8.49064 41.9974 8.51072 41.9934 8.53041 41.988C8.53994 41.988 8.549 41.991 8.55806 41.994C8.56712 41.997 8.57617 42 8.58571 42H34.4143C34.4247 42 34.4346 41.997 34.4445 41.9939C34.4527 41.9914 34.4609 41.9888 34.4696 41.988C34.4786 41.9905 34.4877 41.9927 34.4968 41.9945C34.5077 41.9968 34.5186 41.9986 34.5297 42H41.5851C41.7004 42 41.8106 41.9535 41.8891 41.8717C41.9676 41.7898 42.0074 41.68 41.9989 41.5685C41.7681 38.6338 41.1074 36.7082 40.0281 35.8415ZM32.4066 20.8014C32.4066 19.4746 33.5165 18.399 34.8856 18.399C36.2547 18.399 37.3645 19.4746 37.3645 20.8014C37.3645 22.1282 36.2547 23.2038 34.8856 23.2038C33.5165 23.2038 32.4066 22.1282 32.4066 20.8014ZM35.8259 23.8774C35.2146 24.0536 34.5637 24.0536 33.9524 23.8774C33.6273 23.9329 32.2305 24.43 31.8091 28.8615H37.9616C37.5421 24.4679 36.1644 23.9329 35.8259 23.8774ZM5.62351 20.8014C5.62351 19.4746 6.73337 18.399 8.10244 18.399C9.47152 18.399 10.5814 19.4746 10.5814 20.8014C10.5814 22.1282 9.47152 23.2038 8.10244 23.2038C6.73337 23.2038 5.62351 22.1282 5.62351 20.8014ZM9.04375 23.8774C8.43248 24.0536 7.78153 24.0536 7.17025 23.8774C6.84513 23.9329 5.44835 24.43 5.02693 28.8615H11.1795C10.7599 24.4697 9.38127 23.9329 9.04375 23.8774ZM35.5717 33.1342C35.5717 31.8074 36.6816 30.7318 38.0507 30.7318C39.4197 30.7318 40.5296 31.8074 40.5296 33.1342C40.5296 34.461 39.4197 35.5366 38.0507 35.5366C36.6816 35.5366 35.5717 34.461 35.5717 33.1342ZM7.42126 1.80479V15.7998H18.4277C18.7157 15.1983 19.058 14.7344 19.4584 14.4138C19.4851 14.3917 19.5114 14.3739 19.5379 14.356L19.5379 14.3559C19.5501 14.3477 19.5624 14.3394 19.5747 14.3306C18.3381 13.5144 17.7951 12.0121 18.2357 10.6264C18.6764 9.24073 19.9978 8.29537 21.494 8.29537C22.9902 8.29537 24.3116 9.24073 24.7522 10.6264C25.1929 12.0121 24.6499 13.5144 23.4132 14.3306L23.4241 14.3382L23.4501 14.356L23.4501 14.356C23.4766 14.3739 23.5028 14.3917 23.5296 14.4138C23.93 14.7353 24.2742 15.1992 24.5602 15.7998H35.5667V1.80479H7.42126ZM20.8473 14.0192C20.7965 13.9891 20.7396 13.9698 20.6805 13.9629H20.6443C19.4561 13.5608 18.7406 12.3867 18.951 11.1843C19.1614 9.98182 20.2363 9.1019 21.4947 9.1019C22.7532 9.1019 23.828 9.98182 24.0384 11.1843C24.2488 12.3867 23.5333 13.5608 22.3452 13.9629H22.309C22.251 13.9697 22.1953 13.9889 22.1459 14.0192C21.9334 14.0738 21.7146 14.1017 21.4947 14.1024C21.2761 14.1018 21.0585 14.0738 20.8473 14.0192ZM19.0853 16.3487L19.0786 16.3662C18.7507 17.135 18.4551 18.2697 18.2959 19.9532H24.6934C24.5352 18.2808 24.2444 17.1489 23.9202 16.3801C23.9125 16.3645 23.9059 16.3484 23.9002 16.3321C23.3338 15.02 22.6779 14.8037 22.4614 14.7696C22.1477 14.8602 21.8221 14.9065 21.4947 14.9072C21.1675 14.907 20.8422 14.8606 20.5288 14.7696C20.3143 14.8065 19.6574 15.0274 19.0853 16.3487ZM2.45842 33.1342C2.45842 31.8074 3.56828 30.7318 4.93736 30.7318C6.30643 30.7318 7.41629 31.8074 7.41629 33.1342C7.41629 34.461 6.30643 35.5366 4.93736 35.5366C4.2799 35.5366 3.64938 35.2835 3.18449 34.8329C2.7196 34.3824 2.45842 33.7713 2.45842 33.1342ZM4.00416 36.2092C3.67904 36.2647 2.28226 36.7618 1.86084 41.1915L8.01336 41.1905C7.59004 36.7424 6.18181 36.2637 5.86527 36.2092C5.25812 36.3848 4.61131 36.3848 4.00416 36.2092ZM9.10691 41.1914L14.183 20.7589H28.8049L33.881 41.1924L9.10691 41.1914ZM37.1185 36.2092C36.7934 36.2647 35.3966 36.7627 34.9751 41.1915H41.1277C40.7043 36.7396 39.2942 36.2647 38.9796 36.2101C38.6784 36.2967 38.366 36.3409 38.0519 36.3414C37.7358 36.3406 37.4215 36.2961 37.1185 36.2092Z" fill="#FFC727" fill-opacity="0.52"/>
<path d="M39.9787 35.8051L39.6915 36.2144L39.6915 36.2144L39.9787 35.8051ZM40.0281 35.8415L40.3412 35.4516L40.3412 35.4516L40.0281 35.8415ZM39.9328 35.7713L39.655 35.3555L39.0915 35.732L39.6175 36.1593L39.9328 35.7713ZM41.2143 32.1774L40.7383 32.3303L40.7383 32.3303L41.2143 32.1774ZM34.8947 32.1774L34.4186 32.0245L34.4186 32.0245L34.8947 32.1774ZM36.1762 35.7713L36.4684 36.1771L37.0534 35.7559L36.454 35.3555L36.1762 35.7713ZM36.1467 35.7918L36.4291 36.2044L36.4292 36.2044L36.1467 35.7918ZM36.0809 35.8415L36.3941 36.2313L36.4057 36.2219L36.4167 36.2119L36.0809 35.8415ZM34.3552 39.6299L33.87 39.7506L34.8475 39.717L34.3552 39.6299ZM31.8762 29.6608V29.1608H31.2367L31.391 29.7815L31.8762 29.6608ZM38.4178 29.6608L38.4178 30.1608L38.4187 30.1608L38.4178 29.6608ZM38.7218 29.5319L39.083 29.8776L39.0831 29.8776L38.7218 29.5319ZM38.8316 29.2284L39.3301 29.1905L39.3301 29.1903L38.8316 29.2284ZM36.8675 23.506L37.1806 23.1162L37.1805 23.1162L36.8675 23.506ZM36.8139 23.4663L37.1028 23.0583L37.1028 23.0583L36.8139 23.4663ZM36.7721 23.4358L36.4944 23.02L35.9195 23.4041L36.4643 23.8298L36.7721 23.4358ZM38.0537 19.842L37.5777 19.9949L37.5777 19.9949L38.0537 19.842ZM31.734 19.842L32.2101 19.9949L32.2101 19.9949L31.734 19.842ZM33.0156 23.4358L33.3058 23.843L33.8958 23.4225L33.2934 23.02L33.0156 23.4358ZM32.9901 23.4536L32.7061 23.0421L32.7061 23.0421L32.9901 23.4536ZM32.9203 23.506L33.2334 23.8958L33.2419 23.8889L33.2502 23.8817L32.9203 23.506ZM31.2384 27.0671L30.7531 27.1877L31.7293 27.1623L31.2384 27.0671ZM29.547 20.2581L29.0615 20.3777L29.0617 20.3787L29.547 20.2581ZM29.1437 19.9495L29.1438 19.4495H29.1437V19.9495ZM25.5245 19.9495L25.0265 19.9948L25.0679 20.4495H25.5245V19.9495ZM24.8857 16.6V16.1H24.1889L24.412 16.7601L24.8857 16.6ZM18.1029 16.6037L18.5766 16.7638L18.7997 16.1037H18.1029V16.6037ZM17.4641 19.9532V20.4532H17.9207L17.962 19.9985L17.4641 19.9532ZM13.8563 19.9532L13.8563 19.4532L13.8562 19.4532L13.8563 19.9532ZM13.453 20.2618L13.9382 20.3824L13.9385 20.3814L13.453 20.2618ZM11.7607 27.0708L11.2697 27.1657L12.2459 27.1914L11.7607 27.0708ZM10.0797 23.5097L10.3929 23.1199L10.3928 23.1198L10.0797 23.5097ZM10.0261 23.47L9.73721 23.8781L9.73724 23.8781L10.0261 23.47ZM9.9844 23.4395L9.70656 23.0238L9.13195 23.4078L9.67649 23.8334L9.9844 23.4395ZM6.22786 23.4395L6.51803 23.8467L7.10794 23.4263L6.5057 23.0238L6.22786 23.4395ZM6.20236 23.4573L6.48635 23.8688L6.48635 23.8688L6.20236 23.4573ZM6.13252 23.5097L6.44441 23.9005L6.45362 23.8932L6.46246 23.8854L6.13252 23.5097ZM4.16177 29.2321L3.66322 29.1939L3.6632 29.1942L4.16177 29.2321ZM4.57556 29.6645L4.57464 30.1645H4.57556V29.6645ZM11.1171 29.6645L11.6023 29.7852L11.7566 29.1645H11.1171V29.6645ZM8.63815 39.6336L8.14575 39.7205L9.12337 39.7543L8.63815 39.6336ZM6.91243 35.8452L6.59937 36.2351L6.60033 36.2358L6.91243 35.8452ZM6.86306 35.8089L7.15018 35.3995L7.13789 35.3909L7.1251 35.383L6.86306 35.8089ZM6.86302 35.8088L6.55067 36.1993L6.57473 36.2185L6.60097 36.2347L6.86302 35.8088ZM6.86299 35.8088L7.17534 35.4184L7.16303 35.4085L7.15013 35.3995L6.86299 35.8088ZM6.81708 35.775L6.53933 35.3592L5.97595 35.7356L6.5017 36.163L6.81708 35.775ZM8.09865 32.1811L7.6226 32.334L7.6226 32.334L8.09865 32.1811ZM1.77898 32.1811L2.25503 32.334L2.25503 32.334L1.77898 32.1811ZM3.06055 35.775L3.35825 36.1767L3.9289 35.7538L3.3383 35.3592L3.06055 35.775ZM3.02701 35.7987L3.2935 36.2218L3.30272 36.216L3.31168 36.2098L3.02701 35.7987ZM3.02692 35.7988L2.76042 35.3757L2.75131 35.3815L2.74245 35.3876L3.02692 35.7988ZM2.9652 35.8452L3.27827 36.235L3.28685 36.2282L3.29512 36.2209L2.9652 35.8452ZM1.00112 41.5685L0.502579 41.5304L0.502567 41.5305L1.00112 41.5685ZM1.11094 41.8717L1.47182 41.5256L1.47182 41.5256L1.11094 41.8717ZM1.41492 42L1.41492 41.5L1.41472 41.5L1.41492 42ZM8.47034 42V42.5H8.50198L8.53336 42.496L8.47034 42ZM8.53041 41.988V41.488H8.46285L8.39771 41.5059L8.53041 41.988ZM8.55806 41.994L8.40057 42.4685L8.40075 42.4686L8.55806 41.994ZM34.4445 41.9939L34.2971 41.5161L34.297 41.5161L34.4445 41.9939ZM34.4696 41.988L34.6023 41.5059L34.5133 41.4814L34.4215 41.4903L34.4696 41.988ZM34.4968 41.9945L34.5978 41.5048L34.5978 41.5048L34.4968 41.9945ZM34.5297 42L34.4666 42.496L34.498 42.5H34.5297V42ZM41.5851 42L41.5853 41.5H41.5851V42ZM41.8891 41.8717L41.5282 41.5256L41.5282 41.5256L41.8891 41.8717ZM41.9989 41.5685L42.4974 41.5305L42.4973 41.5293L41.9989 41.5685ZM33.9524 23.8774L34.0908 23.397L33.981 23.3653L33.8683 23.3846L33.9524 23.8774ZM35.8259 23.8774L35.9067 23.384L35.7956 23.3658L35.6874 23.397L35.8259 23.8774ZM31.8091 28.8615L31.3113 28.8142L31.2593 29.3615H31.8091V28.8615ZM37.9616 28.8615V29.3615H38.5116L38.4593 28.814L37.9616 28.8615ZM7.17025 23.8774L7.30871 23.397L7.19888 23.3653L7.0862 23.3846L7.17025 23.8774ZM9.04375 23.8774L9.1248 23.3841L9.01359 23.3658L8.9053 23.397L9.04375 23.8774ZM5.02693 28.8615L4.52917 28.8142L4.47713 29.3615H5.02693V28.8615ZM11.1795 28.8615V29.3615H11.7295L11.6772 28.814L11.1795 28.8615ZM7.42126 15.7998H6.92126V16.2998H7.42126V15.7998ZM7.42126 1.80479V1.30479H6.92126V1.80479H7.42126ZM18.4277 15.7998V16.2998H18.7427L18.8787 16.0157L18.4277 15.7998ZM19.4584 14.4138L19.7709 14.8041L19.7771 14.799L19.4584 14.4138ZM19.5379 14.356L19.8182 14.77L19.8195 14.7691L19.5379 14.356ZM19.5379 14.3559L19.2576 13.9419L19.2563 13.9428L19.5379 14.3559ZM19.5747 14.3306L19.8639 14.7385L20.46 14.3158L19.8502 13.9133L19.5747 14.3306ZM24.7522 10.6264L25.2287 10.4749L25.2287 10.4749L24.7522 10.6264ZM23.4132 14.3306L23.1378 13.9133L22.5242 14.3183L23.1264 14.7401L23.4132 14.3306ZM23.4241 14.3382L23.1372 14.7478L23.1423 14.7512L23.4241 14.3382ZM23.4501 14.356L23.1683 14.769L23.1728 14.772L23.4501 14.356ZM23.4501 14.356L23.7305 13.9419L23.7275 13.94L23.4501 14.356ZM23.5296 14.4138L23.2108 14.7991L23.2165 14.8036L23.5296 14.4138ZM24.5602 15.7998L24.1088 16.0148L24.2445 16.2998H24.5602V15.7998ZM35.5667 15.7998V16.2998H36.0667V15.7998H35.5667ZM35.5667 1.80479H36.0667V1.30479H35.5667V1.80479ZM20.6805 13.9629L20.7389 13.4663L20.7098 13.4629H20.6805V13.9629ZM20.8473 14.0192L20.5919 14.4491L20.6532 14.4855L20.7223 14.5033L20.8473 14.0192ZM20.6443 13.9629L20.484 14.4365L20.5619 14.4629H20.6443V13.9629ZM18.951 11.1843L18.4585 11.0981L18.4585 11.0981L18.951 11.1843ZM24.0384 11.1843L24.5309 11.0981L24.5309 11.0981L24.0384 11.1843ZM22.3452 13.9629V14.4629H22.4275L22.5054 14.4365L22.3452 13.9629ZM22.309 13.9629V13.4629H22.2797L22.2507 13.4663L22.309 13.9629ZM22.1459 14.0192L22.2702 14.5035L22.3433 14.4848L22.4076 14.4453L22.1459 14.0192ZM21.4947 14.1024L21.4933 14.6024L21.4962 14.6024L21.4947 14.1024ZM19.0786 16.3662L19.5385 16.5624L19.5425 16.5533L19.546 16.544L19.0786 16.3662ZM19.0853 16.3487L18.6265 16.15L18.622 16.1604L18.618 16.171L19.0853 16.3487ZM18.2959 19.9532L17.7981 19.9062L17.7464 20.4532H18.2959V19.9532ZM24.6934 19.9532V20.4532H25.243L25.1912 19.9061L24.6934 19.9532ZM23.9202 16.3801L24.3809 16.1858L24.3754 16.1728L24.3692 16.1601L23.9202 16.3801ZM23.9002 16.3321L24.3726 16.1683L24.3665 16.1508L24.3592 16.1339L23.9002 16.3321ZM22.4614 14.7696L22.5395 14.2757L22.4296 14.2583L22.3227 14.2892L22.4614 14.7696ZM21.4947 14.9072L21.4943 15.4072L21.4957 15.4072L21.4947 14.9072ZM20.5288 14.7696L20.6684 14.2894L20.5576 14.2572L20.4439 14.2768L20.5288 14.7696ZM3.18449 34.8329L3.53245 34.4739L3.53245 34.4739L3.18449 34.8329ZM1.86084 41.1915L1.36309 41.1441L1.31101 41.6916L1.86092 41.6915L1.86084 41.1915ZM4.00416 36.2092L4.14304 35.7289L4.03302 35.6971L3.92012 35.7163L4.00416 36.2092ZM8.01336 41.1905L8.01344 41.6905L8.5632 41.6905L8.51111 41.1432L8.01336 41.1905ZM5.86527 36.2092L5.95013 35.7165L5.83684 35.697L5.7264 35.7289L5.86527 36.2092ZM14.183 20.7589V20.2589H13.792L13.6978 20.6384L14.183 20.7589ZM9.10691 41.1914L8.62166 41.0709L8.4675 41.6914L9.10689 41.6914L9.10691 41.1914ZM28.8049 20.7589L29.2901 20.6384L29.1959 20.2589H28.8049V20.7589ZM33.881 41.1924L33.881 41.6924L34.5204 41.6924L34.3662 41.0718L33.881 41.1924ZM34.9751 41.1915L34.4774 41.1441L34.4253 41.6915H34.9751V41.1915ZM37.1185 36.2092L37.2563 35.7286L37.1468 35.6972L37.0344 35.7163L37.1185 36.2092ZM41.1277 41.1915V41.6915H41.6775L41.6254 41.1441L41.1277 41.1915ZM38.9796 36.2101L39.0649 35.7175L38.9518 35.6979L38.8414 35.7296L38.9796 36.2101ZM38.0519 36.3414L38.0507 36.8414L38.0526 36.8414L38.0519 36.3414ZM39.6915 36.2144C39.7001 36.2204 39.7048 36.2237 39.709 36.2268C39.7128 36.2296 39.7145 36.2309 39.7151 36.2314L40.3412 35.4516C40.3099 35.4265 40.2804 35.406 40.2658 35.3958L39.6915 36.2144ZM39.6175 36.1593C39.6481 36.1842 39.6781 36.205 39.6915 36.2144L40.2659 35.3958C40.2573 35.3898 40.2531 35.3868 40.2496 35.3843C40.2465 35.3821 40.2465 35.3819 40.2481 35.3832L39.6175 36.1593ZM40.7383 32.3303C41.0988 33.4529 40.6672 34.6794 39.655 35.3555L40.2105 36.187C41.5842 35.2694 42.1911 33.5833 41.6904 32.0245L40.7383 32.3303ZM38.0545 30.4234C39.2947 30.4234 40.3767 31.2046 40.7383 32.3303L41.6904 32.0245C41.1907 30.4689 39.7119 29.4234 38.0545 29.4234V30.4234ZM35.3707 32.3303C35.7323 31.2046 36.8143 30.4234 38.0545 30.4234V29.4234C36.3971 29.4234 34.9183 30.4689 34.4186 32.0245L35.3707 32.3303ZM36.454 35.3555C35.4419 34.6794 35.0102 33.4529 35.3707 32.3303L34.4186 32.0245C33.918 33.5833 34.5249 35.2694 35.8985 36.187L36.454 35.3555ZM36.4292 36.2044C36.4382 36.1982 36.4529 36.1882 36.4684 36.1771L35.8841 35.3655C35.8797 35.3686 35.8747 35.3721 35.8643 35.3793L36.4292 36.2044ZM36.4167 36.2119C36.4111 36.217 36.4078 36.2193 36.4096 36.218C36.4105 36.2173 36.4123 36.216 36.4157 36.2137C36.4192 36.2112 36.4231 36.2086 36.4291 36.2044L35.8643 35.3792C35.8455 35.3921 35.7951 35.4257 35.7451 35.4711L36.4167 36.2119ZM34.8475 39.717C35.1696 37.8949 35.7196 36.7732 36.3941 36.2313L35.7677 35.4517C34.8023 36.2274 34.1967 37.6542 33.8628 39.5429L34.8475 39.717ZM31.391 29.7815L33.87 39.7506L34.8404 39.5093L32.3615 29.5402L31.391 29.7815ZM38.4178 29.1608H31.8762V30.1608H38.4178V29.1608ZM38.3605 29.1862C38.3779 29.168 38.3987 29.1609 38.4169 29.1608L38.4187 30.1608C38.6676 30.1604 38.9087 30.0598 39.083 29.8776L38.3605 29.1862ZM38.333 29.2662C38.3305 29.2339 38.3425 29.205 38.3605 29.1862L39.0831 29.8776C39.258 29.6947 39.3495 29.446 39.3301 29.1905L38.333 29.2662ZM36.5544 23.8959C36.9936 24.2485 37.3864 24.85 37.6973 25.7558C38.007 26.6581 38.2229 27.8267 38.333 29.2665L39.3301 29.1903C39.2162 27.7001 38.9897 26.4408 38.6432 25.4312C38.2978 24.4249 37.8207 23.6302 37.1806 23.1162L36.5544 23.8959ZM36.525 23.8744C36.5341 23.8809 36.5397 23.8849 36.5449 23.8887C36.5498 23.8922 36.5526 23.8944 36.5544 23.8959L37.1805 23.1162C37.1488 23.0906 37.1188 23.0696 37.1028 23.0583L36.525 23.8744ZM36.4643 23.8298C36.4886 23.8487 36.5123 23.8655 36.525 23.8744L37.1028 23.0583C37.0867 23.0468 37.0825 23.0438 37.08 23.0418L36.4643 23.8298ZM37.5777 19.9949C37.9382 21.1174 37.5065 22.3439 36.4944 23.02L37.0499 23.8515C38.4235 22.9339 39.0304 21.2478 38.5297 19.6891L37.5777 19.9949ZM34.8939 18.088C36.1341 18.088 37.2161 18.8691 37.5777 19.9949L38.5297 19.6891C38.0301 18.1335 36.5513 17.088 34.8939 17.088V18.088ZM32.2101 19.9949C32.5717 18.8691 33.6536 18.088 34.8939 18.088V17.088C33.2364 17.088 31.7576 18.1335 31.258 19.6891L32.2101 19.9949ZM33.2934 23.02C32.2812 22.3439 31.8495 21.1174 32.2101 19.9949L31.258 19.6891C30.7573 21.2478 31.3642 22.9339 32.7378 23.8515L33.2934 23.02ZM33.2741 23.8651C33.2821 23.8596 33.2937 23.8516 33.3058 23.843L32.7254 23.0286C32.7205 23.0321 32.715 23.0359 32.7061 23.0421L33.2741 23.8651ZM33.2502 23.8817C33.2476 23.884 33.2472 23.8841 33.2509 23.8813C33.2528 23.8799 33.2555 23.878 33.2594 23.8753C33.2635 23.8724 33.2679 23.8694 33.2741 23.8651L32.7061 23.0421C32.6855 23.0563 32.6381 23.0883 32.5903 23.1303L33.2502 23.8817ZM31.7293 27.1623C32.0581 25.4656 32.5887 24.4137 33.2334 23.8958L32.6071 23.1162C31.6806 23.8605 31.0899 25.2055 30.7475 26.972L31.7293 27.1623ZM29.0617 20.3787L30.7531 27.1877L31.7236 26.9466L30.0323 20.1376L29.0617 20.3787ZM29.1436 20.4495C29.1154 20.4495 29.0743 20.4296 29.0615 20.3777L30.0325 20.1386C29.9306 19.7248 29.5559 19.4496 29.1438 19.4495L29.1436 20.4495ZM25.5245 20.4495H29.1437V19.4495H25.5245V20.4495ZM24.412 16.7601C24.6996 17.6113 24.9077 18.689 25.0265 19.9948L26.0224 19.9042C25.8991 18.5489 25.6799 17.3886 25.3593 16.4399L24.412 16.7601ZM35.9865 16.1H24.8857V17.1H35.9865V16.1ZM35.9013 16.1981C35.9013 16.1292 35.9543 16.1 35.9865 16.1V17.1C36.4768 17.1 36.9013 16.7108 36.9013 16.1981H35.9013ZM35.9013 1.40194V16.1981H36.9013V1.40194H35.9013ZM35.9865 1.5C35.9543 1.5 35.9013 1.47076 35.9013 1.40194H36.9013C36.9013 0.889151 36.4768 0.5 35.9865 0.5V1.5ZM7.00682 1.5H35.9865V0.5H7.00682V1.5ZM7.09207 1.40194C7.09207 1.47076 7.03901 1.5 7.00682 1.5V0.5C6.51651 0.5 6.09207 0.889153 6.09207 1.40194H7.09207ZM7.09207 16.2017V1.40194H6.09207V16.2017H7.09207ZM7.00682 16.1037C7.03901 16.1037 7.09207 16.1329 7.09207 16.2017H6.09207C6.09207 16.7145 6.51651 17.1037 7.00682 17.1037V16.1037ZM18.1029 16.1037H7.00682V17.1037H18.1029V16.1037ZM17.962 19.9985C18.0809 18.6927 18.2889 17.615 18.5766 16.7638L17.6292 16.4436C17.3086 17.3923 17.0895 18.5526 16.9662 19.9079L17.962 19.9985ZM13.8563 20.4532H17.4641V19.4532H13.8563V20.4532ZM13.9385 20.3814C13.9257 20.4333 13.8846 20.4532 13.8564 20.4532L13.8562 19.4532C13.4441 19.4533 13.0694 19.7285 12.9675 20.1423L13.9385 20.3814ZM12.2459 27.1914L13.9382 20.3824L12.9678 20.1412L11.2754 26.9502L12.2459 27.1914ZM9.76661 23.8995C10.4113 24.4174 10.9419 25.4692 11.2697 27.1657L12.2516 26.976C11.9101 25.2093 11.3195 23.8642 10.3929 23.1199L9.76661 23.8995ZM9.73724 23.8781C9.74638 23.8846 9.75201 23.8886 9.75722 23.8924C9.76203 23.8959 9.76489 23.8981 9.76669 23.8996L10.3928 23.1198C10.361 23.0943 10.3311 23.0733 10.3151 23.0619L9.73724 23.8781ZM9.67649 23.8334C9.70079 23.8524 9.72456 23.8691 9.73721 23.8781L10.3151 23.062C10.299 23.0506 10.2948 23.0475 10.2923 23.0455L9.67649 23.8334ZM10.7889 19.9997C11.1494 21.1217 10.7181 22.3477 9.70656 23.0238L10.2622 23.8552C11.6352 22.9376 12.2416 21.252 11.741 19.6938L10.7889 19.9997ZM8.10613 18.0937C9.34584 18.0937 10.4274 18.8745 10.7889 19.9997L11.741 19.6938C11.2414 18.1388 9.76301 17.0937 8.10613 17.0937V18.0937ZM5.42334 19.9997C5.78487 18.8745 6.86642 18.0937 8.10613 18.0937V17.0937C6.44925 17.0937 4.97091 18.1388 4.47127 19.6938L5.42334 19.9997ZM6.5057 23.0238C5.49414 22.3477 5.06283 21.1217 5.42334 19.9997L4.47127 19.6938C3.97061 21.252 4.57705 22.9376 5.95003 23.8552L6.5057 23.0238ZM6.48635 23.8688C6.49437 23.8633 6.50595 23.8553 6.51803 23.8467L5.9377 23.0323C5.93275 23.0358 5.92731 23.0396 5.91837 23.0458L6.48635 23.8688ZM6.46246 23.8854C6.45988 23.8877 6.45941 23.8878 6.46319 23.885C6.4651 23.8836 6.46774 23.8817 6.47166 23.879C6.47576 23.8761 6.48014 23.8731 6.48635 23.8688L5.91837 23.0458C5.89781 23.0599 5.85041 23.092 5.80257 23.134L6.46246 23.8854ZM4.66031 29.2702C4.77041 27.8308 4.98633 26.6624 5.29673 25.7602C5.60828 24.8546 6.0025 24.2532 6.44441 23.9005L5.82062 23.1189C5.17657 23.6329 4.69745 24.4282 4.35112 25.4348C4.00365 26.4448 3.77717 27.7043 3.66322 29.1939L4.66031 29.2702ZM4.63279 29.1899C4.65081 29.2087 4.66279 29.2376 4.66033 29.2699L3.6632 29.1942C3.6438 29.4497 3.73531 29.6984 3.91028 29.8813L4.63279 29.1899ZM4.57647 29.1645C4.5946 29.1646 4.6154 29.1717 4.63279 29.1899L3.91028 29.8813C4.08463 30.0635 4.32569 30.1641 4.57464 30.1645L4.57647 29.1645ZM11.1171 29.1645H4.57556V30.1645H11.1171V29.1645ZM9.12337 39.7543L11.6023 29.7852L10.6319 29.5439L8.15292 39.513L9.12337 39.7543ZM6.60033 36.2358C7.27355 36.7737 7.82355 37.8942 8.14575 39.7205L9.13054 39.5468C8.79678 37.6549 8.19121 36.2269 7.22453 35.4546L6.60033 36.2358ZM6.57593 36.2182C6.58444 36.2242 6.58913 36.2275 6.59335 36.2305C6.59714 36.2333 6.59883 36.2346 6.59937 36.2351L7.22548 35.4553C7.19421 35.4302 7.16481 35.4098 7.15018 35.3995L6.57593 36.2182ZM6.60097 36.2347L6.60101 36.2347L7.1251 35.383L7.12507 35.383L6.60097 36.2347ZM6.55064 36.1992L6.55067 36.1993L7.17537 35.4184L7.17534 35.4184L6.55064 36.1992ZM6.5017 36.163C6.5324 36.1879 6.5624 36.2087 6.57585 36.2181L7.15013 35.3995C7.1416 35.3935 7.13743 35.3906 7.13395 35.388C7.13091 35.3858 7.13087 35.3857 7.13247 35.387L6.5017 36.163ZM7.6226 32.334C7.98315 33.4566 7.55146 34.683 6.53933 35.3592L7.09484 36.1907C8.46846 35.2731 9.07536 33.587 8.5747 32.0282L7.6226 32.334ZM4.93882 30.4271C6.17905 30.4271 7.26103 31.2083 7.6226 32.334L8.5747 32.0282C8.07505 30.4726 6.59625 29.4271 4.93882 29.4271V30.4271ZM2.25503 32.334C2.6166 31.2083 3.69858 30.4271 4.93882 30.4271V29.4271C3.28138 29.4271 1.80258 30.4726 1.30294 32.0282L2.25503 32.334ZM3.3383 35.3592C2.32617 34.683 1.89448 33.4566 2.25503 32.334L1.30294 32.0282C0.802268 33.587 1.40918 35.2731 2.78279 36.1907L3.3383 35.3592ZM3.31168 36.2098C3.32151 36.203 3.33947 36.1906 3.35825 36.1767L2.76284 35.3733C2.75921 35.3759 2.75476 35.3791 2.74234 35.3877L3.31168 36.2098ZM3.29341 36.2218L3.2935 36.2218L2.76051 35.3757L2.76042 35.3757L3.29341 36.2218ZM3.29512 36.2209C3.29144 36.2241 3.28978 36.2252 3.29226 36.2234C3.29351 36.2225 3.2955 36.221 3.29875 36.2188C3.30217 36.2164 3.30587 36.2138 3.31138 36.21L2.74245 35.3876C2.72459 35.3999 2.68028 35.43 2.63528 35.4695L3.29512 36.2209ZM1.49967 41.6066C1.60977 40.1663 1.8257 38.9975 2.13538 38.095C2.44625 37.1891 2.83912 36.5877 3.27827 36.235L2.65213 35.4553C2.01199 35.9694 1.53486 36.7641 1.18952 37.7705C0.843005 38.7802 0.616532 40.0397 0.502579 41.5304L1.49967 41.6066ZM1.47182 41.5256C1.49006 41.5446 1.50217 41.5738 1.49968 41.6064L0.502567 41.5305C0.483113 41.7861 0.574804 42.035 0.750055 42.2177L1.47182 41.5256ZM1.41472 41.5C1.43314 41.5 1.45423 41.5073 1.47182 41.5256L0.750055 42.2177C0.924671 42.3998 1.16604 42.5001 1.41511 42.5L1.41472 41.5ZM8.47034 41.5H1.41492V42.5H8.47034V41.5ZM8.39771 41.5059C8.40097 41.505 8.40418 41.5044 8.40733 41.504L8.53336 42.496C8.5771 42.4905 8.62046 42.4818 8.6631 42.4701L8.39771 41.5059ZM8.71554 41.5194C8.71424 41.519 8.69081 41.511 8.66361 41.5043C8.63382 41.497 8.58743 41.488 8.53041 41.488V42.488C8.48292 42.488 8.44583 42.4805 8.42522 42.4754C8.4072 42.471 8.39282 42.466 8.40057 42.4685L8.71554 41.5194ZM8.58571 41.5C8.63319 41.5 8.67028 41.5075 8.69085 41.5125C8.70883 41.5169 8.72319 41.522 8.71536 41.5194L8.40075 42.4686C8.40198 42.469 8.42541 42.4771 8.45256 42.4837C8.48231 42.491 8.52869 42.5 8.58571 42.5V41.5ZM34.4143 41.5H8.58571V42.5H34.4143V41.5ZM34.297 41.5161C34.289 41.5186 34.302 41.5144 34.3183 41.5106C34.3372 41.5063 34.3711 41.5 34.4143 41.5V42.5C34.468 42.5 34.5119 42.4922 34.5408 42.4856C34.5672 42.4795 34.5901 42.4722 34.592 42.4717L34.297 41.5161ZM34.4215 41.4903C34.3538 41.4968 34.2972 41.5161 34.2971 41.5161L34.5918 42.4717C34.598 42.4698 34.59 42.4724 34.5798 42.475C34.5681 42.4779 34.5462 42.4829 34.5177 42.4857L34.4215 41.4903ZM34.5978 41.5048C34.5993 41.5052 34.6008 41.5055 34.6023 41.5059L34.3369 42.4701C34.3564 42.4754 34.3761 42.4802 34.3958 42.4842L34.5978 41.5048ZM34.5927 41.504C34.5944 41.5042 34.5961 41.5045 34.5978 41.5048L34.3958 42.4842C34.4193 42.4891 34.4429 42.493 34.4666 42.496L34.5927 41.504ZM41.5851 41.5H34.5297V42.5H41.5851V41.5ZM41.5282 41.5256C41.5458 41.5073 41.5669 41.5 41.5853 41.5L41.5849 42.5C41.834 42.5001 42.0753 42.3998 42.2499 42.2177L41.5282 41.5256ZM41.5003 41.6064C41.4978 41.5738 41.5099 41.5446 41.5282 41.5256L42.2499 42.2177C42.4252 42.035 42.5169 41.7861 42.4974 41.5305L41.5003 41.6064ZM39.7151 36.2314C40.1542 36.584 40.5471 37.1855 40.8589 38.0921C41.1694 38.9953 41.387 40.1652 41.5004 41.6077L42.4973 41.5293C42.38 40.0371 42.1518 38.7769 41.8045 37.7669C41.4584 36.7604 40.9813 35.9657 40.3412 35.4516L39.7151 36.2314ZM34.8856 17.899C33.2552 17.899 31.9066 19.1838 31.9066 20.8014H32.9066C32.9066 19.7654 33.7777 18.899 34.8856 18.899V17.899ZM37.8645 20.8014C37.8645 19.1838 36.5159 17.899 34.8856 17.899V18.899C35.9934 18.899 36.8645 19.7654 36.8645 20.8014H37.8645ZM34.8856 23.7038C36.5159 23.7038 37.8645 22.419 37.8645 20.8014H36.8645C36.8645 21.8374 35.9934 22.7038 34.8856 22.7038V23.7038ZM31.9066 20.8014C31.9066 22.419 33.2552 23.7038 34.8856 23.7038V22.7038C33.7777 22.7038 32.9066 21.8374 32.9066 20.8014H31.9066ZM33.8139 24.3579C34.5157 24.5601 35.2626 24.5601 35.9643 24.3579L35.6874 23.397C35.1666 23.5471 34.6116 23.5471 34.0908 23.397L33.8139 24.3579ZM32.3068 28.9089C32.5136 26.7346 32.9548 25.5913 33.3368 24.9997C33.7075 24.4258 34.0194 24.3732 34.0364 24.3703L33.8683 23.3846C33.5603 23.4371 33.0112 23.6608 32.4968 24.4572C31.9939 25.2359 31.526 26.5569 31.3113 28.8142L32.3068 28.9089ZM37.9616 28.3615H31.8091V29.3615H37.9616V28.3615ZM35.7451 24.3709C35.7588 24.3731 36.0703 24.428 36.4416 25.0112C36.822 25.6087 37.258 26.7536 37.4638 28.9091L38.4593 28.814C38.0347 24.3669 36.6036 23.4982 35.9067 23.384L35.7451 24.3709ZM8.10244 17.899C6.47212 17.899 5.12351 19.1838 5.12351 20.8014H6.12351C6.12351 19.7654 6.99462 18.899 8.10244 18.899V17.899ZM11.0814 20.8014C11.0814 19.1838 9.73277 17.899 8.10244 17.899V18.899C9.21027 18.899 10.0814 19.7654 10.0814 20.8014H11.0814ZM8.10244 23.7038C9.73277 23.7038 11.0814 22.419 11.0814 20.8014H10.0814C10.0814 21.8374 9.21027 22.7038 8.10244 22.7038V23.7038ZM5.12351 20.8014C5.12351 22.419 6.47212 23.7038 8.10244 23.7038V22.7038C6.99462 22.7038 6.12351 21.8374 6.12351 20.8014H5.12351ZM7.03179 24.3579C7.73353 24.5601 8.48047 24.5601 9.18221 24.3579L8.9053 23.397C8.38449 23.5471 7.82952 23.5471 7.30871 23.397L7.03179 24.3579ZM5.52468 28.9089C5.73144 26.7346 6.17262 25.5913 6.55472 24.9997C6.9254 24.4258 7.23723 24.3732 7.2543 24.3703L7.0862 23.3846C6.77815 23.4371 6.22903 23.6608 5.71469 24.4572C5.21176 25.2359 4.74383 26.5569 4.52917 28.8142L5.52468 28.9089ZM11.1795 28.3615H5.02693V29.3615H11.1795V28.3615ZM8.96271 24.3708C8.97581 24.373 9.28746 24.4281 9.65906 25.0118C10.0396 25.6097 10.4759 26.7546 10.6817 28.9091L11.6772 28.814C11.2526 24.3686 9.82051 23.4983 9.1248 23.3841L8.96271 24.3708ZM38.0507 30.2318C36.4203 30.2318 35.0717 31.5165 35.0717 33.1342H36.0717C36.0717 32.0982 36.9428 31.2318 38.0507 31.2318V30.2318ZM41.0296 33.1342C41.0296 31.5166 39.681 30.2318 38.0507 30.2318V31.2318C39.1585 31.2318 40.0296 32.0982 40.0296 33.1342H41.0296ZM38.0507 36.0366C39.681 36.0366 41.0296 34.7518 41.0296 33.1342H40.0296C40.0296 34.1702 39.1585 35.0366 38.0507 35.0366V36.0366ZM35.0717 33.1342C35.0717 34.7518 36.4203 36.0366 38.0507 36.0366V35.0366C36.9428 35.0366 36.0717 34.1702 36.0717 33.1342H35.0717ZM7.92126 15.7998V1.80479H6.92126V15.7998H7.92126ZM18.4277 15.2998H7.42126V16.2998H18.4277V15.2998ZM19.1459 14.0235C18.6706 14.404 18.2868 14.9361 17.9767 15.5839L18.8787 16.0157C19.1445 15.4604 19.4453 15.0648 19.7709 14.8041L19.1459 14.0235ZM19.2576 13.9419C19.2331 13.9585 19.1876 13.9889 19.1397 14.0285L19.7771 14.799C19.7792 14.7973 19.7826 14.7946 19.789 14.79C19.7962 14.7849 19.8041 14.7795 19.8182 14.77L19.2576 13.9419ZM19.2563 13.9428L19.2562 13.9428L19.8195 14.7691L19.8196 14.769L19.2563 13.9428ZM19.2855 13.9227C19.2783 13.9279 19.2705 13.9332 19.2576 13.9419L19.8182 14.77C19.8298 14.7621 19.8465 14.7509 19.8639 14.7385L19.2855 13.9227ZM17.7592 10.4749C17.249 12.0795 17.8809 13.8117 19.2993 14.7479L19.8502 13.9133C18.7953 13.217 18.3411 11.9448 18.7122 10.778L17.7592 10.4749ZM21.494 7.79537C19.7887 7.79537 18.2685 8.87352 17.7592 10.4749L18.7122 10.778C19.0843 9.60794 20.2069 8.79537 21.494 8.79537V7.79537ZM25.2287 10.4749C24.7195 8.87352 23.1993 7.79537 21.494 7.79537V8.79537C22.7811 8.79537 23.9037 9.60794 24.2758 10.778L25.2287 10.4749ZM23.6887 14.7479C25.1071 13.8117 25.739 12.0795 25.2287 10.4749L24.2758 10.778C24.6468 11.9448 24.1927 13.217 23.1378 13.9133L23.6887 14.7479ZM23.711 13.9287L23.7001 13.9211L23.1264 14.7401L23.1372 14.7477L23.711 13.9287ZM23.7319 13.9429L23.7059 13.9252L23.1423 14.7512L23.1683 14.769L23.7319 13.9429ZM23.7275 13.94L23.7275 13.9399L23.1728 14.772L23.1728 14.772L23.7275 13.94ZM23.8483 14.0285C23.8004 13.9889 23.7549 13.9585 23.7305 13.9419L23.1698 14.77C23.1839 14.7795 23.1918 14.7849 23.1989 14.79C23.2053 14.7946 23.2088 14.7973 23.2108 14.799L23.8483 14.0285ZM25.0117 15.5848C24.7027 14.9361 24.3168 14.4047 23.8426 14.0239L23.2165 14.8036C23.5432 15.066 23.8457 15.4623 24.1088 16.0148L25.0117 15.5848ZM35.5667 15.2998H24.5602V16.2998H35.5667V15.2998ZM35.0667 1.80479V15.7998H36.0667V1.80479H35.0667ZM7.42126 2.30479H35.5667V1.30479H7.42126V2.30479ZM20.6221 14.4595C20.6122 14.4583 20.6019 14.455 20.5919 14.4491L21.1028 13.5894C20.9912 13.5231 20.8671 13.4814 20.7389 13.4663L20.6221 14.4595ZM20.6443 14.4629H20.6805V13.4629H20.6443V14.4629ZM18.4585 11.0981C18.2039 12.5536 19.0719 13.9587 20.484 14.4365L20.8045 13.4893C19.8403 13.163 19.2774 12.2199 19.4435 11.2704L18.4585 11.0981ZM21.4947 8.6019C20.0046 8.6019 18.7127 9.6455 18.4585 11.0981L19.4435 11.2704C19.6102 10.3181 20.4679 9.6019 21.4947 9.6019V8.6019ZM24.5309 11.0981C24.2768 9.6455 22.9849 8.6019 21.4947 8.6019V9.6019C22.5215 9.6019 23.3793 10.3181 23.5459 11.2704L24.5309 11.0981ZM22.5054 14.4365C23.9175 13.9587 24.7856 12.5536 24.5309 11.0981L23.5459 11.2704C23.712 12.2199 23.1491 13.163 22.1849 13.4893L22.5054 14.4365ZM22.309 14.4629H22.3452V13.4629H22.309V14.4629ZM22.4076 14.4453C22.3945 14.4533 22.3807 14.4579 22.3672 14.4595L22.2507 13.4663C22.1212 13.4815 21.996 13.5245 21.8843 13.5932L22.4076 14.4453ZM21.4962 14.6024C21.7574 14.6016 22.0175 14.5684 22.2702 14.5035L22.0216 13.5349C21.8493 13.5792 21.6717 13.6019 21.4932 13.6024L21.4962 14.6024ZM20.7223 14.5033C20.9739 14.5684 21.233 14.6016 21.4933 14.6024L21.4962 13.6024C21.3192 13.6019 21.1432 13.5793 20.9724 13.5351L20.7223 14.5033ZM19.546 16.544L19.5527 16.5264L18.618 16.171L18.6113 16.1885L19.546 16.544ZM18.7937 20.0003C18.9497 18.3506 19.2367 17.2699 19.5385 16.5624L18.6187 16.17C18.2646 17.0001 17.9605 18.1888 17.7981 19.9062L18.7937 20.0003ZM24.6934 19.4532H18.2959V20.4532H24.6934V19.4532ZM23.4595 16.5744C23.758 17.2824 24.0405 18.3609 24.1957 20.0003L25.1912 19.9061C25.0298 18.2006 24.7307 17.0154 24.3809 16.1858L23.4595 16.5744ZM23.4278 16.4959C23.4401 16.5315 23.4546 16.5663 23.4712 16.6001L24.3692 16.1601C24.3704 16.1626 24.3716 16.1654 24.3726 16.1683L23.4278 16.4959ZM22.3834 15.2634C22.3988 15.2659 22.9289 15.3435 23.4411 16.5302L24.3592 16.1339C23.7388 14.6964 22.9569 14.3416 22.5395 14.2757L22.3834 15.2634ZM21.4957 15.4072C21.8696 15.4064 22.2415 15.3535 22.6002 15.2499L22.3227 14.2892C22.0538 14.3668 21.7745 14.4066 21.4936 14.4072L21.4957 15.4072ZM20.3893 15.2497C20.748 15.3539 21.1202 15.407 21.4943 15.4072L21.495 14.4072C21.2149 14.407 20.9364 14.3673 20.6684 14.2894L20.3893 15.2497ZM19.5442 16.5473C20.0624 15.3504 20.5957 15.2654 20.6137 15.2623L20.4439 14.2768C20.0329 14.3476 19.2524 14.7043 18.6265 16.15L19.5442 16.5473ZM4.93736 30.2318C3.30703 30.2318 1.95842 31.5165 1.95842 33.1342H2.95842C2.95842 32.0982 3.82953 31.2318 4.93736 31.2318V30.2318ZM7.91629 33.1342C7.91629 31.5165 6.56768 30.2318 4.93736 30.2318V31.2318C6.04519 31.2318 6.91629 32.0982 6.91629 33.1342H7.91629ZM4.93736 36.0366C6.56768 36.0366 7.91629 34.7518 7.91629 33.1342H6.91629C6.91629 34.1702 6.04519 35.0366 4.93736 35.0366V36.0366ZM2.83652 35.192C3.39629 35.7345 4.15227 36.0366 4.93736 36.0366V35.0366C4.40754 35.0366 3.90246 34.8325 3.53245 34.4739L2.83652 35.192ZM1.95842 33.1342C1.95842 33.9091 2.27621 34.649 2.83652 35.192L3.53245 34.4739C3.16298 34.1158 2.95842 33.6336 2.95842 33.1342H1.95842ZM2.35859 41.2388C2.56535 39.0655 3.00651 37.9227 3.38859 37.3313C3.75926 36.7576 4.07109 36.705 4.08821 36.7021L3.92012 35.7163C3.61211 35.7689 3.063 35.9925 2.54864 36.7887C2.04568 37.5671 1.57775 38.8877 1.36309 41.1441L2.35859 41.2388ZM8.01329 40.6905L1.86076 40.6915L1.86092 41.6915L8.01344 41.6905L8.01329 40.6905ZM5.78041 36.702C5.79747 36.7049 6.10939 36.7557 6.48031 37.3252C6.86353 37.9135 7.30792 39.0555 7.51561 41.2379L8.51111 41.1432C8.29548 38.8774 7.82409 37.556 7.31824 36.7794C6.80007 35.9838 6.24962 35.7681 5.95013 35.7165L5.78041 36.702ZM3.86529 36.6896C4.56316 36.8913 5.30627 36.8913 6.00415 36.6896L5.7264 35.7289C5.20997 35.8782 4.65946 35.8782 4.14304 35.7289L3.86529 36.6896ZM13.6978 20.6384L8.62166 41.0709L9.59216 41.312L14.6683 20.8795L13.6978 20.6384ZM28.8049 20.2589H14.183V21.2589H28.8049V20.2589ZM34.3662 41.0718L29.2901 20.6384L28.3196 20.8794L33.3957 41.3129L34.3662 41.0718ZM9.10689 41.6914L33.881 41.6924L33.881 40.6924L9.10693 40.6914L9.10689 41.6914ZM35.4729 41.2388C35.6797 39.066 36.1208 37.9232 36.5029 37.3317C36.8737 36.7577 37.1856 36.705 37.2025 36.7021L37.0344 35.7163C36.7262 35.7689 36.1772 35.9929 35.6629 36.789C35.16 37.5676 34.6921 38.8882 34.4774 41.1441L35.4729 41.2388ZM41.1277 40.6915H34.9751V41.6915H41.1277V40.6915ZM38.8942 36.7028C38.9114 36.7058 39.2233 36.7563 39.5941 37.3249C39.9774 37.9127 40.4222 39.0546 40.6299 41.2388L41.6254 41.1441C41.4098 38.8765 40.9379 37.555 40.4317 36.7787C39.9129 35.9832 39.3624 35.769 39.0649 35.7175L38.8942 36.7028ZM38.0526 36.8414C38.4131 36.8409 38.7718 36.7902 39.1178 36.6907L38.8414 35.7296C38.5851 35.8033 38.3189 35.841 38.0512 35.8414L38.0526 36.8414ZM36.9806 36.6899C37.3283 36.7895 37.6886 36.8405 38.0507 36.8414L38.053 35.8414C37.7831 35.8407 37.5148 35.8027 37.2563 35.7286L36.9806 36.6899Z" fill="#FFC727"/>
</svg>
