<svg width="24" height="24" viewBox="0 0 24 24" fill="none" xmlns="http://www.w3.org/2000/svg">
<path d="M12.46 22.75C12.29 22.75 12.12 22.75 11.95 22.74C6.34999 22.49 1.66999 17.98 1.27999 12.48C0.939994 7.75999 3.66999 3.34999 8.06999 1.49999C9.31999 0.979992 9.97999 1.37999 10.26 1.66999C10.54 1.94999 10.93 2.59999 10.41 3.78999C9.94999 4.84999 9.71999 5.97999 9.72999 7.13999C9.74999 11.57 13.43 15.33 17.92 15.51C18.57 15.54 19.21 15.49 19.83 15.38C21.15 15.14 21.7 15.67 21.91 16.01C22.12 16.35 22.36 17.08 21.56 18.16C19.44 21.06 16.07 22.75 12.46 22.75ZM2.76999 12.37C3.10999 17.13 7.16999 21.03 12.01 21.24C15.3 21.4 18.42 19.9 20.34 17.28C20.49 17.07 20.56 16.92 20.59 16.84C20.5 16.83 20.34 16.82 20.09 16.87C19.36 17 18.6 17.05 17.85 17.02C12.57 16.81 8.24999 12.38 8.21999 7.15999C8.21999 5.77999 8.48999 4.44999 9.03999 3.19999C9.13999 2.97999 9.15999 2.82999 9.16999 2.74999C9.07999 2.74999 8.91999 2.76999 8.65999 2.87999C4.84999 4.47999 2.48999 8.29999 2.76999 12.37Z" fill="#737373"/>
</svg>
