<svg width="43" height="43" viewBox="0 0 43 43" fill="none" xmlns="http://www.w3.org/2000/svg">
<path fill-rule="evenodd" clip-rule="evenodd" d="M28.5689 6.31485H14.431C14.0406 6.31485 13.7241 6.65478 13.7241 7.07411V11.6297C13.7241 12.049 14.0406 12.3889 14.431 12.3889H28.5689C28.9594 12.3889 29.2758 12.049 29.2758 11.6297V7.07411C29.2758 6.65478 28.9594 6.31485 28.5689 6.31485ZM15.1383 7.83329H20.7935V10.8703H15.1383V7.83329ZM22.2071 10.8703H27.8622V7.83329H22.2071V10.8703Z" fill="#FFC727"/>
<path d="M20.7935 7.83329H21.2935V7.33329H20.7935V7.83329ZM15.1383 7.83329V7.33329H14.6383V7.83329H15.1383ZM20.7935 10.8703V11.3703H21.2935V10.8703H20.7935ZM15.1383 10.8703H14.6383V11.3703H15.1383V10.8703ZM27.8622 10.8703V11.3703H28.3622V10.8703H27.8622ZM22.2071 10.8703H21.7071V11.3703H22.2071V10.8703ZM27.8622 7.83329H28.3622V7.33329H27.8622V7.83329ZM22.2071 7.83329V7.33329H21.7071V7.83329H22.2071ZM14.431 6.81485H28.5689V5.81485H14.431V6.81485ZM14.2241 7.07411C14.2241 6.89667 14.3498 6.81485 14.431 6.81485V5.81485C13.7314 5.81485 13.2241 6.41289 13.2241 7.07411H14.2241ZM14.2241 11.6297V7.07411H13.2241V11.6297H14.2241ZM14.431 11.8889C14.3498 11.8889 14.2241 11.8071 14.2241 11.6297H13.2241C13.2241 12.2909 13.7314 12.8889 14.431 12.8889V11.8889ZM28.5689 11.8889H14.431V12.8889H28.5689V11.8889ZM28.7758 11.6297C28.7758 11.8071 28.6502 11.8889 28.5689 11.8889V12.8889C29.2685 12.8889 29.7758 12.2909 29.7758 11.6297H28.7758ZM28.7758 7.07411V11.6297H29.7758V7.07411H28.7758ZM28.5689 6.81485C28.6502 6.81485 28.7758 6.89667 28.7758 7.07411H29.7758C29.7758 6.41289 29.2685 5.81485 28.5689 5.81485V6.81485ZM20.7935 7.33329H15.1383V8.33329H20.7935V7.33329ZM21.2935 10.8703V7.83329H20.2935V10.8703H21.2935ZM15.1383 11.3703H20.7935V10.3703H15.1383V11.3703ZM14.6383 7.83329V10.8703H15.6383V7.83329H14.6383ZM27.8622 10.3703H22.2071V11.3703H27.8622V10.3703ZM27.3622 7.83329V10.8703H28.3622V7.83329H27.3622ZM22.2071 8.33329H27.8622V7.33329H22.2071V8.33329ZM22.7071 10.8703V7.83329H21.7071V10.8703H22.7071Z" fill="#FFC727"/>
<path fill-rule="evenodd" clip-rule="evenodd" d="M28.5689 15.4259H14.431C14.0406 15.4259 13.7241 15.7658 13.7241 16.1852V20.7407C13.7241 21.16 14.0406 21.5 14.431 21.5H28.5689C28.9594 21.5 29.2758 21.16 29.2758 20.7407V16.1852C29.2758 15.7658 28.9594 15.4259 28.5689 15.4259ZM15.1383 16.9444H20.7935V19.9815H15.1383V16.9444ZM22.2071 19.9815H27.8622V16.9444H22.2071V19.9815Z" fill="#FFC727"/>
<path d="M20.7935 16.9444H21.2935V16.4444H20.7935V16.9444ZM15.1383 16.9444V16.4444H14.6383V16.9444H15.1383ZM20.7935 19.9815V20.4815H21.2935V19.9815H20.7935ZM15.1383 19.9815H14.6383V20.4815H15.1383V19.9815ZM27.8622 19.9815V20.4815H28.3622V19.9815H27.8622ZM22.2071 19.9815H21.7071V20.4815H22.2071V19.9815ZM27.8622 16.9444H28.3622V16.4444H27.8622V16.9444ZM22.2071 16.9444V16.4444H21.7071V16.9444H22.2071ZM14.431 15.9259H28.5689V14.9259H14.431V15.9259ZM14.2241 16.1852C14.2241 16.0077 14.3498 15.9259 14.431 15.9259V14.9259C13.7314 14.9259 13.2241 15.5239 13.2241 16.1852H14.2241ZM14.2241 20.7407V16.1852H13.2241V20.7407H14.2241ZM14.431 21C14.3498 21 14.2241 20.9182 14.2241 20.7407H13.2241C13.2241 21.4019 13.7314 22 14.431 22V21ZM28.5689 21H14.431V22H28.5689V21ZM28.7758 20.7407C28.7758 20.9182 28.6502 21 28.5689 21V22C29.2685 22 29.7758 21.4019 29.7758 20.7407H28.7758ZM28.7758 16.1852V20.7407H29.7758V16.1852H28.7758ZM28.5689 15.9259C28.6502 15.9259 28.7758 16.0077 28.7758 16.1852H29.7758C29.7758 15.5239 29.2685 14.9259 28.5689 14.9259V15.9259ZM20.7935 16.4444H15.1383V17.4444H20.7935V16.4444ZM21.2935 19.9815V16.9444H20.2935V19.9815H21.2935ZM15.1383 20.4815H20.7935V19.4815H15.1383V20.4815ZM14.6383 16.9444V19.9815H15.6383V16.9444H14.6383ZM27.8622 19.4815H22.2071V20.4815H27.8622V19.4815ZM27.3622 16.9444V19.9815H28.3622V16.9444H27.3622ZM22.2071 17.4444H27.8622V16.4444H22.2071V17.4444ZM22.7071 19.9815V16.9444H21.7071V19.9815H22.7071Z" fill="#FFC727"/>
<path d="M20.0868 32.5093C19.6964 32.5093 19.3799 32.8492 19.3799 33.2685V34.0278C19.3799 34.4471 19.6964 34.7871 20.0868 34.7871C20.4772 34.7871 20.7937 34.4471 20.7937 34.0278V33.2685C20.7937 32.8492 20.4772 32.5093 20.0868 32.5093Z" fill="#FFC727" stroke="#FFC727"/>
<path d="M22.9139 32.5093C22.5235 32.5093 22.207 32.8492 22.207 33.2685V34.0278C22.207 34.4471 22.5235 34.7871 22.9139 34.7871C23.3043 34.7871 23.6208 34.4471 23.6208 34.0278V33.2685C23.6208 32.8492 23.3043 32.5093 22.9139 32.5093Z" fill="#FFC727" stroke="#FFC727"/>
<path fill-rule="evenodd" clip-rule="evenodd" d="M41.2931 40.4815H37.0517V1.75926C37.0517 1.33993 36.7352 1 36.3448 1H6.65517C6.26476 1 5.94828 1.33993 5.94828 1.75926V40.4815H1.7069C1.31649 40.4815 1 40.8214 1 41.2407C1 41.6601 1.31649 42 1.7069 42H41.2931C41.6835 42 42 41.6601 42 41.2407C42 40.8214 41.6835 40.4815 41.2931 40.4815ZM15.1383 40.4815V26.8148H27.8625V40.4815H15.1383ZM29.2755 26.0556V40.4815H35.6375V2.51853H7.36166V40.4815H13.7237V26.0556C13.7237 25.6362 14.0402 25.2963 14.4306 25.2963H28.5686C28.959 25.2963 29.2755 25.6362 29.2755 26.0556Z" fill="#FFC727"/>
<path d="M37.0517 40.4815H36.5517V40.9815H37.0517V40.4815ZM5.94828 40.4815V40.9815H6.44828V40.4815H5.94828ZM15.1383 26.8148V26.3148H14.6383V26.8148H15.1383ZM15.1383 40.4815H14.6383V40.9815H15.1383V40.4815ZM27.8625 26.8148H28.3625V26.3148H27.8625V26.8148ZM27.8625 40.4815V40.9815H28.3625V40.4815H27.8625ZM29.2755 40.4815H28.7755V40.9815H29.2755V40.4815ZM35.6375 40.4815V40.9815H36.1375V40.4815H35.6375ZM35.6375 2.51853H36.1375V2.01853H35.6375V2.51853ZM7.36166 2.51853V2.01853H6.86166V2.51853H7.36166ZM7.36166 40.4815H6.86166V40.9815H7.36166V40.4815ZM13.7237 40.4815V40.9815H14.2237V40.4815H13.7237ZM37.0517 40.9815H41.2931V39.9815H37.0517V40.9815ZM36.5517 1.75926V40.4815H37.5517V1.75926H36.5517ZM36.3448 1.5C36.426 1.5 36.5517 1.58182 36.5517 1.75926H37.5517C37.5517 1.09804 37.0444 0.5 36.3448 0.5V1.5ZM6.65517 1.5H36.3448V0.5H6.65517V1.5ZM6.44828 1.75926C6.44828 1.58182 6.57396 1.5 6.65517 1.5V0.5C5.95557 0.5 5.44828 1.09804 5.44828 1.75926H6.44828ZM6.44828 40.4815V1.75926H5.44828V40.4815H6.44828ZM1.7069 40.9815H5.94828V39.9815H1.7069V40.9815ZM1.5 41.2407C1.5 41.0633 1.62568 40.9815 1.7069 40.9815V39.9815C1.0073 39.9815 0.5 40.5795 0.5 41.2407H1.5ZM1.7069 41.5C1.62568 41.5 1.5 41.4182 1.5 41.2407H0.5C0.5 41.902 1.00729 42.5 1.7069 42.5V41.5ZM41.2931 41.5H1.7069V42.5H41.2931V41.5ZM41.5 41.2407C41.5 41.4182 41.3743 41.5 41.2931 41.5V42.5C41.9927 42.5 42.5 41.902 42.5 41.2407H41.5ZM41.2931 40.9815C41.3743 40.9815 41.5 41.0633 41.5 41.2407H42.5C42.5 40.5795 41.9927 39.9815 41.2931 39.9815V40.9815ZM14.6383 26.8148V40.4815H15.6383V26.8148H14.6383ZM27.8625 26.3148H15.1383V27.3148H27.8625V26.3148ZM28.3625 40.4815V26.8148H27.3625V40.4815H28.3625ZM15.1383 40.9815H27.8625V39.9815H15.1383V40.9815ZM29.7755 40.4815V26.0556H28.7755V40.4815H29.7755ZM35.6375 39.9815H29.2755V40.9815H35.6375V39.9815ZM35.1375 2.51853V40.4815H36.1375V2.51853H35.1375ZM7.36166 3.01853H35.6375V2.01853H7.36166V3.01853ZM7.86166 40.4815V2.51853H6.86166V40.4815H7.86166ZM13.7237 39.9815H7.36166V40.9815H13.7237V39.9815ZM13.2237 26.0556V40.4815H14.2237V26.0556H13.2237ZM14.4306 24.7963C13.731 24.7963 13.2237 25.3943 13.2237 26.0556H14.2237C14.2237 25.8781 14.3494 25.7963 14.4306 25.7963V24.7963ZM28.5686 24.7963H14.4306V25.7963H28.5686V24.7963ZM29.7755 26.0556C29.7755 25.3943 29.2682 24.7963 28.5686 24.7963V25.7963C28.6498 25.7963 28.7755 25.8781 28.7755 26.0556H29.7755Z" fill="#FFC727"/>
</svg>
