<svg width="20" height="20" viewBox="0 0 20 20" fill="none" xmlns="http://www.w3.org/2000/svg">
<path d="M13.3333 18.3333C12.445 17.2961 11.2781 16.6667 10 16.6667C8.72192 16.6667 7.55503 17.2961 6.66667 18.3333" stroke="#A3A3A3" stroke-width="1.2" stroke-linecap="round"/>
<path d="M10 10.8333C8.94325 10.8333 7.8259 11.0161 6.95001 11.2607C6.29049 11.4448 5.75995 12.2846 5.84165 12.9663C5.87193 13.2189 6.08942 13.3333 6.3181 13.3333H13.6819C13.9106 13.3333 14.1281 13.2189 14.1583 12.9663C14.2401 12.2846 13.7095 11.4448 13.05 11.2607C12.1741 11.0161 11.0567 10.8333 10 10.8333Z" stroke="#A3A3A3" stroke-width="1.2" stroke-linecap="round"/>
<path d="M17.5 8.33334C16.5795 8.33334 15.8333 9.07951 15.8333 10V10.8333C15.8333 11.7538 15.0872 12.5 14.1667 12.5" stroke="#A3A3A3" stroke-width="1.2" stroke-linecap="round" stroke-linejoin="round"/>
<path d="M2.5 8.33334C3.42048 8.33334 4.16667 9.07951 4.16667 10V10.8333C4.16667 11.7538 4.91286 12.5 5.83333 12.5" stroke="#A3A3A3" stroke-width="1.2" stroke-linecap="round" stroke-linejoin="round"/>
<path d="M10 13.3333V18.3333" stroke="#A3A3A3" stroke-width="1.2" stroke-linecap="round" stroke-linejoin="round"/>
<path d="M10.6831 8.33332H9.31691C8.14842 8.33332 7.5642 8.33332 7.14156 7.98033C6.71893 7.62734 6.57723 7.02104 6.29384 5.80844C5.84826 3.90189 5.62548 2.94862 6.09332 2.30764C6.56117 1.66666 7.47974 1.66666 9.31691 1.66666H10.6831C12.5202 1.66666 13.4388 1.66666 13.9067 2.30764C14.3745 2.94862 14.1517 3.90189 13.7062 5.80844C13.4227 7.02104 13.2811 7.62734 12.8584 7.98033C12.4358 8.33332 11.8516 8.33332 10.6831 8.33332Z" stroke="#A3A3A3" stroke-width="1.2" stroke-linecap="round" stroke-linejoin="round"/>
<path d="M10 8.33334V10.8333" stroke="#A3A3A3" stroke-width="1.2" stroke-linecap="round" stroke-linejoin="round"/>
</svg>
