<svg width="18" height="18" viewBox="0 0 18 18" fill="none" xmlns="http://www.w3.org/2000/svg">
<path d="M6 9.14999H11.25" stroke="white" stroke-width="1.5" stroke-miterlimit="10" stroke-linecap="round" stroke-linejoin="round"/>
<path d="M6 12.15H9.285" stroke="white" stroke-width="1.5" stroke-miterlimit="10" stroke-linecap="round" stroke-linejoin="round"/>
<path d="M7.5 4.5H10.5C12 4.5 12 3.75 12 3C12 1.5 11.25 1.5 10.5 1.5H7.5C6.75 1.5 6 1.5 6 3C6 4.5 6.75 4.5 7.5 4.5Z" stroke="white" stroke-width="1.5" stroke-miterlimit="10" stroke-linecap="round" stroke-linejoin="round"/>
<path d="M12 3.01501C14.4975 3.15001 15.75 4.07251 15.75 7.50002V12C15.75 15 15 16.5 11.25 16.5H6.75C3 16.5 2.25 15 2.25 12V7.50002C2.25 4.08001 3.5025 3.15001 6 3.01501" stroke="white" stroke-width="1.5" stroke-miterlimit="10" stroke-linecap="round" stroke-linejoin="round"/>
</svg>
