<svg width="41" height="41" viewBox="0 0 41 41" fill="none" xmlns="http://www.w3.org/2000/svg">
<path d="M20.5001 31.2187C25.3092 31.2187 29.2217 27.3062 29.2217 22.4971V8.72174C29.2217 3.91248 25.3092 0 20.5001 0C15.6909 0 11.7783 3.91248 11.7783 8.72162V22.4969C11.7783 27.3062 15.6908 31.2187 20.5001 31.2187ZM14.3866 8.72162C14.3866 5.35164 17.1294 2.60832 20.4999 2.60832C23.8705 2.60832 26.6132 5.35164 26.6132 8.72162V22.4969C26.6132 25.8682 23.8705 28.6102 20.4999 28.6102C17.1294 28.6102 14.3866 25.8682 14.3866 22.4969V8.72162Z" fill="#FFC727"/>
<path d="M22.7508 35.6203C28.5662 35.6203 33.297 30.89 33.297 25.0747C33.297 24.3541 32.7128 23.7705 31.9929 23.7705C31.273 23.7705 30.6887 24.3541 30.6887 25.0747C30.6887 29.4509 27.1276 33.0118 22.7508 33.0118H18.2489C13.872 33.0118 10.311 29.4508 10.311 25.0747C10.311 24.3541 9.72673 23.7705 9.0068 23.7705C8.28686 23.7705 7.70264 24.3541 7.70264 25.0747C7.70264 30.89 12.4335 35.6203 18.2489 35.6203H19.1957V38.3917H13.0824C12.3625 38.3917 11.7783 38.9759 11.7783 39.6958C11.7783 40.4164 12.3625 41 13.0824 41H27.9174C28.6373 41 29.2215 40.4164 29.2215 39.6958C29.2215 38.9759 28.6373 38.3917 27.9174 38.3917H21.8041V35.6203H22.7508Z" fill="#FFC727"/>
</svg>
