<svg width="18" height="18" viewBox="0 0 18 18" fill="none" xmlns="http://www.w3.org/2000/svg">
<path fill-rule="evenodd" clip-rule="evenodd" d="M15.3672 7.4H5.57126C4.85289 7.4 4.26514 6.824 4.26514 6.12V2.28C4.26514 1.576 4.85289 1 5.57126 1H15.3672C16.0855 1 16.6733 1.576 16.6733 2.28V6.12C16.6733 6.824 16.0855 7.4 15.3672 7.4Z" stroke="#FFC727" stroke-width="1.4" stroke-linecap="round" stroke-linejoin="round"/>
<path fill-rule="evenodd" clip-rule="evenodd" d="M4.26531 4.84L2.0449 6.632C1.65306 6.952 1 6.632 1 6.12V2.28C1 1.704 1.65306 1.448 2.0449 1.768L4.26531 3.56V4.84Z" stroke="#FFC727" stroke-width="1.4" stroke-linecap="round" stroke-linejoin="round"/>
<path d="M13.4084 2.91998H11.4492" stroke="#FFC727" stroke-width="1.4" stroke-linecap="round" stroke-linejoin="round"/>
<path d="M8.18359 9.32H13.4081" stroke="#FFC727" stroke-width="1.4" stroke-linecap="round" stroke-linejoin="round"/>
<path d="M16.6737 17V12.52" stroke="#FFC727" stroke-width="1.4" stroke-linecap="round" stroke-linejoin="round"/>
<path d="M10.7959 9.96002V11.112C10.7959 11.944 11.3183 12.712 12.102 13.032L16.6734 15.016" stroke="#FFC727" stroke-width="1.4" stroke-linecap="round" stroke-linejoin="round"/>
</svg>
