<svg width="24" height="24" viewBox="0 0 24 24" fill="none" xmlns="http://www.w3.org/2000/svg">
<path fill-rule="evenodd" clip-rule="evenodd" d="M21.7046 4.59148C22.0162 3.18582 20.709 1.91742 19.2937 2.32702L3.63713 6.88275L3.48604 6.93298C2.01645 7.48605 1.79097 9.5328 3.16744 10.3802L9.64297 14.366L13.5387 20.8201L13.6263 20.9534C14.5395 22.2329 16.5618 21.9229 17.0228 20.372L21.668 4.73245L21.7046 4.59148ZM19.7846 3.75317C20.0734 3.72216 20.3202 4.00306 20.2303 4.30467L15.585 19.9447L15.5545 20.0214C15.4093 20.3069 14.9985 20.3359 14.823 20.045L11.135 13.936L16.3875 8.64969L16.4598 8.56533C16.6767 8.27099 16.6511 7.85441 16.3839 7.58904L16.2996 7.5167C16.0052 7.29982 15.5887 7.32541 15.3233 7.59257L10.078 12.872L3.95374 9.10278L3.88762 9.05312C3.64979 8.83646 3.72984 8.41775 4.05573 8.32316L19.7117 3.76759L19.7846 3.75317Z" fill="#737373"/>
</svg>
