<svg width="43" height="43" viewBox="0 0 43 43" fill="none" xmlns="http://www.w3.org/2000/svg">
<path fill-rule="evenodd" clip-rule="evenodd" d="M3.37427 19.067H1.46591C1.20966 19.067 1 18.827 1 18.5326C1 18.2382 1.20873 17.9992 1.46591 17.9992H11.4727H17.7401C18.5294 17.3262 19.1183 16.4078 19.4575 15.3582H15.9482C14.1498 15.3582 12.6869 13.6836 12.6869 11.6249V4.73328C12.6869 2.67464 14.1498 1 15.9482 1H27.0527C28.8511 1 30.3141 2.67464 30.3141 4.73328V11.626C30.3141 13.6846 28.8511 15.3593 27.0527 15.3593H23.5435C23.8836 16.4089 24.4716 17.3273 25.2617 18.0003H31.5301H41.5341C41.7903 18.0003 42 18.2392 42 18.5336C42 18.828 41.7903 19.067 41.5341 19.067H39.6239V41.4667C39.6239 41.76 39.4142 42 39.158 42C38.8998 42 38.692 41.76 38.692 41.4667V19.067H31.9932V23.6664C31.9932 23.9618 31.7835 24.1997 31.5273 24.1997H11.4708C11.2137 24.1997 11.0049 23.9618 11.0049 23.6664V19.067H4.30609V41.4667C4.30609 41.76 4.09736 42 3.84018 42C3.583 42 3.37427 41.76 3.37427 41.4667V19.067ZM13.6183 4.7333V11.626C13.6183 13.0959 14.6638 14.2926 15.9479 14.2916H27.0523C28.3373 14.2916 29.3819 13.0948 29.3819 11.6249V4.7333C29.3819 3.26345 28.3373 2.06667 27.0523 2.06667H15.9479C14.6638 2.06667 13.6183 3.26345 13.6183 4.7333ZM20.4354 15.3593H22.5637C22.8274 16.3459 23.2719 17.2483 23.8794 18.0003H19.1197C19.7272 17.2472 20.1717 16.3459 20.4354 15.3593ZM31.0642 23.1331V19.067H11.9387V23.1331H31.0642Z" fill="#FFC727" fill-opacity="0.52"/>
<path d="M3.37427 19.067H3.87427V18.567H3.37427V19.067ZM17.7401 17.9992V18.4992H17.9244L18.0646 18.3797L17.7401 17.9992ZM19.4575 15.3582L19.9332 15.512L20.1445 14.8582H19.4575V15.3582ZM23.5435 15.3593V14.8593H22.8559L23.0678 15.5134L23.5435 15.3593ZM25.2617 18.0003L24.9375 18.3809L25.0777 18.5003H25.2617V18.0003ZM39.6239 19.067V18.567H39.1239V19.067H39.6239ZM38.692 19.067H39.192V18.567H38.692V19.067ZM31.9932 19.067V18.567H31.4932V19.067H31.9932ZM11.0049 19.067H11.5049V18.567H11.0049V19.067ZM4.30609 19.067V18.567H3.80609V19.067H4.30609ZM15.9479 14.2916L15.9479 13.7916L15.9474 13.7916L15.9479 14.2916ZM22.5637 15.3593L23.0467 15.2302L22.9476 14.8593H22.5637V15.3593ZM20.4354 15.3593V14.8593H20.0515L19.9524 15.2302L20.4354 15.3593ZM23.8794 18.0003V18.5003H24.9262L24.2683 17.6861L23.8794 18.0003ZM19.1197 18.0003L18.7305 17.6863L18.0739 18.5003H19.1197V18.0003ZM31.0642 19.067H31.5642V18.567H31.0642V19.067ZM31.0642 23.1331V23.6331H31.5642V23.1331H31.0642ZM11.9387 19.067V18.567H11.4387V19.067H11.9387ZM11.9387 23.1331H11.4387V23.6331H11.9387V23.1331ZM1.46591 19.567H3.37427V18.567H1.46591V19.567ZM0.5 18.5326C0.5 19.0368 0.871592 19.567 1.46591 19.567V18.567C1.48118 18.567 1.49456 18.5708 1.50378 18.5753C1.51232 18.5794 1.51484 18.5829 1.51364 18.5815C1.51053 18.5779 1.5 18.5618 1.5 18.5326H0.5ZM1.46591 17.4992C0.871257 17.4992 0.5 18.0276 0.5 18.5326H1.5C1.5 18.5028 1.5106 18.4873 1.51306 18.4845C1.51398 18.4834 1.51121 18.487 1.5026 18.4912C1.49331 18.4957 1.48031 18.4992 1.46591 18.4992V17.4992ZM11.4727 17.4992H1.46591V18.4992H11.4727V17.4992ZM17.7401 17.4992H11.4727V18.4992H17.7401V17.4992ZM18.9817 15.2045C18.668 16.1752 18.1274 17.0118 17.4157 17.6188L18.0646 18.3797C18.9313 17.6405 19.5686 16.6404 19.9332 15.512L18.9817 15.2045ZM15.9482 15.8582H19.4575V14.8582H15.9482V15.8582ZM12.1869 11.6249C12.1869 13.8941 13.8123 15.8582 15.9482 15.8582V14.8582C14.4873 14.8582 13.1869 13.473 13.1869 11.6249H12.1869ZM12.1869 4.73328V11.6249H13.1869V4.73328H12.1869ZM15.9482 0.5C13.8123 0.5 12.1869 2.46411 12.1869 4.73328H13.1869C13.1869 2.88518 14.4873 1.5 15.9482 1.5V0.5ZM27.0527 0.5H15.9482V1.5H27.0527V0.5ZM30.8141 4.73328C30.8141 2.46411 29.1886 0.5 27.0527 0.5V1.5C28.5136 1.5 29.8141 2.88518 29.8141 4.73328H30.8141ZM30.8141 11.626V4.73328H29.8141V11.626H30.8141ZM27.0527 15.8593C29.1886 15.8593 30.8141 13.8952 30.8141 11.626H29.8141C29.8141 13.4741 28.5136 14.8593 27.0527 14.8593V15.8593ZM23.5435 15.8593H27.0527V14.8593H23.5435V15.8593ZM25.586 17.6197C24.8737 17.013 24.3339 16.1764 24.0191 15.2051L23.0678 15.5134C23.4333 16.6413 24.0695 17.6416 24.9375 18.3809L25.586 17.6197ZM31.5301 17.5003H25.2617V18.5003H31.5301V17.5003ZM41.5341 17.5003H31.5301V18.5003H41.5341V17.5003ZM42.5 18.5336C42.5 18.028 42.1272 17.5003 41.5341 17.5003V18.5003C41.5192 18.5003 41.506 18.4966 41.4969 18.4922C41.4884 18.488 41.4858 18.4846 41.4868 18.4858C41.4896 18.4889 41.5 18.5045 41.5 18.5336H42.5ZM41.5341 19.567C42.1272 19.567 42.5 19.0393 42.5 18.5336H41.5C41.5 18.5628 41.4896 18.5784 41.4868 18.5815C41.4858 18.5827 41.4884 18.5792 41.4969 18.5751C41.506 18.5707 41.5192 18.567 41.5341 18.567V19.567ZM39.6239 19.567H41.5341V18.567H39.6239V19.567ZM40.1239 41.4667V19.067H39.1239V41.4667H40.1239ZM39.158 42.5C39.7517 42.5 40.1239 41.9705 40.1239 41.4667H39.1239C39.1239 41.495 39.1136 41.5108 39.1105 41.5144C39.1092 41.5158 39.1117 41.5124 39.1202 41.5083C39.1293 41.5038 39.1427 41.5 39.158 41.5V42.5ZM38.192 41.4667C38.192 41.9692 38.5612 42.5 39.158 42.5V41.5C39.1722 41.5 39.1853 41.5036 39.1947 41.5081C39.2034 41.5124 39.2061 41.516 39.2052 41.5149C39.2026 41.5119 39.192 41.4962 39.192 41.4667H38.192ZM38.192 19.067V41.4667H39.192V19.067H38.192ZM31.9932 19.567H38.692V18.567H31.9932V19.567ZM32.4932 23.6664V19.067H31.4932V23.6664H32.4932ZM31.5273 24.6997C32.1198 24.6997 32.4932 24.1737 32.4932 23.6664H31.4932C31.4932 23.6964 31.4826 23.7117 31.4802 23.7144C31.4794 23.7154 31.4821 23.7119 31.4906 23.7077C31.4998 23.7033 31.5128 23.6997 31.5273 23.6997V24.6997ZM11.4708 24.6997H31.5273V23.6997H11.4708V24.6997ZM10.5049 23.6664C10.5049 24.1731 10.8768 24.6997 11.4708 24.6997V23.6997C11.4849 23.6997 11.4977 23.7032 11.507 23.7077C11.5156 23.7118 11.5185 23.7155 11.5178 23.7146C11.5157 23.7123 11.5049 23.697 11.5049 23.6664H10.5049ZM10.5049 19.067V23.6664H11.5049V19.067H10.5049ZM4.30609 19.567H11.0049V18.567H4.30609V19.567ZM4.80609 41.4667V19.067H3.80609V41.4667H4.80609ZM3.84018 42.5C4.43543 42.5 4.80609 41.9699 4.80609 41.4667H3.80609C3.80609 41.4956 3.79568 41.5113 3.7928 41.5146C3.79173 41.5159 3.79436 41.5124 3.80295 41.5082C3.81223 41.5037 3.82541 41.5 3.84018 41.5V42.5ZM2.87427 41.4667C2.87427 41.9699 3.24493 42.5 3.84018 42.5V41.5C3.85495 41.5 3.86814 41.5037 3.87742 41.5082C3.886 41.5124 3.88864 41.5159 3.88756 41.5146C3.88468 41.5113 3.87427 41.4956 3.87427 41.4667H2.87427ZM2.87427 19.067V41.4667H3.87427V19.067H2.87427ZM14.1183 11.626V4.7333H13.1183V11.626H14.1183ZM15.9474 13.7916C15.0013 13.7924 14.1183 12.8855 14.1183 11.626H13.1183C13.1183 13.3063 14.3263 14.7929 15.9483 14.7916L15.9474 13.7916ZM27.0523 13.7916H15.9479V14.7916H27.0523V13.7916ZM28.8819 11.6249C28.8819 12.8844 27.9997 13.7916 27.0523 13.7916V14.7916C28.6749 14.7916 29.8819 13.3052 29.8819 11.6249H28.8819ZM28.8819 4.7333V11.6249H29.8819V4.7333H28.8819ZM27.0523 2.56667C27.9997 2.56667 28.8819 3.47385 28.8819 4.7333H29.8819C29.8819 3.05305 28.6749 1.56667 27.0523 1.56667V2.56667ZM15.9479 2.56667H27.0523V1.56667H15.9479V2.56667ZM14.1183 4.7333C14.1183 3.47399 15.0013 2.56667 15.9479 2.56667V1.56667C14.3263 1.56667 13.1183 3.05291 13.1183 4.7333H14.1183ZM22.5637 14.8593H20.4354V15.8593H22.5637V14.8593ZM24.2683 17.6861C23.7087 16.9933 23.294 16.1555 23.0467 15.2302L22.0806 15.4884C22.3607 16.5364 22.835 17.5033 23.4905 18.3145L24.2683 17.6861ZM19.1197 18.5003H23.8794V17.5003H19.1197V18.5003ZM19.9524 15.2302C19.7051 16.1553 19.2905 16.9923 18.7305 17.6863L19.5088 18.3142C20.1639 17.5022 20.6383 16.5366 20.9185 15.4884L19.9524 15.2302ZM30.5642 19.067V23.1331H31.5642V19.067H30.5642ZM11.9387 19.567H31.0642V18.567H11.9387V19.567ZM12.4387 23.1331V19.067H11.4387V23.1331H12.4387ZM31.0642 22.6331H11.9387V23.6331H31.0642V22.6331Z" fill="#FFC727"/>
<path d="M16.2975 22.7288H26.7031C26.9593 22.7288 27.169 22.4888 27.169 22.1955C27.169 21.9 26.9593 21.6622 26.7031 21.6622H16.2975C16.0403 21.6622 15.8315 21.9011 15.8315 22.1955C15.8315 22.4899 16.0403 22.7288 16.2975 22.7288Z" fill="#FFC727" fill-opacity="0.52" stroke="#FFC727"/>
</svg>
